<mxfile host="app.diagrams.net" modified="2024-05-16T21:00:19.734Z" agent="Mozilla/5.0 (Windows NT 10.0; Win64; x64) AppleWebKit/537.36 (KHTML, like Gecko) Chrome/124.0.0.0 Safari/537.36" etag="_cgKszFZ1sGKrNriZlnD" version="24.4.2" type="github">
  <diagram name="Page 1" id="5bk7Gb2YT2sqerDLHxE1">
    <mxGraphModel dx="2279" dy="1791" grid="1" gridSize="10" guides="1" tooltips="1" connect="1" arrows="1" fold="1" page="1" pageScale="1" pageWidth="827" pageHeight="1169" math="0" shadow="0">
      <root>
        <mxCell id="0" />
        <mxCell id="1" parent="0" />
        <UserObject label="" tags="Arrière-plan" id="-43leVQ_KwWmYCP5Dvzr-1">
          <mxCell style="vsdxID=1;fillColor=none;gradientColor=none;strokeColor=none;spacingTop=-3;spacingBottom=-3;spacingLeft=-3;spacingRight=-3;points=[[0,0.5,0],[1,0.5,0],[0.5,1,0],[0.5,0,0]];labelBackgroundColor=none;rounded=1;html=1;whiteSpace=wrap;" parent="1" vertex="1">
            <mxGeometry x="1014" y="-920" width="101" height="50" as="geometry" />
          </mxCell>
        </UserObject>
        <mxCell id="-43leVQ_KwWmYCP5Dvzr-2" style="vsdxID=2;fillColor=#ffffff;gradientColor=none;shape=stencil(jZNNDoIwEIVP023TzkSBpfHnAp6ASJVGBFNRwdOLTJG2opFV++ZN5uvLwHB5ydOzYiAutamO6q6zOme4YgC6zJXRdXdiuGa43FdGHUx1LTO6n9POCaJXVEY98uUGkZrdVj8UaYKjjGZUoM5TdXtNbKg+1Fpr728bcu6uhqySinHMYzujla5fNGAJhBVaKwBwjBLns+MaDBusMHMIxGICYuywQhTxOfgYLmhINkx+PzwgGScXunSCAj8ozz5BKblMfM6RALzsBkL3Heg7/s0mSOZr+PAJ6TMNABCE9DuiX7vUHfqVpWXWRUEb79bDFe8k+j1w/QQ=);strokeColor=#282c33;spacingTop=-3;spacingBottom=-3;spacingLeft=-3;spacingRight=-3;points=[[0,0.5,0],[1,0.5,0],[0.5,1,0],[0.5,0,0]];labelBackgroundColor=none;rounded=1;html=1;whiteSpace=wrap;" parent="-43leVQ_KwWmYCP5Dvzr-1" vertex="1">
          <mxGeometry width="101" height="50" as="geometry" />
        </mxCell>
        <mxCell id="-43leVQ_KwWmYCP5Dvzr-3" value="&lt;div style=&quot;font-size: 1px&quot;&gt;&lt;p style=&quot;text-align:center;margin-left:0;margin-right:0;margin-top:0px;margin-bottom:0px;text-indent:0;vertical-align:middle;direction:ltr;&quot;&gt;&lt;font style=&quot;font-size:14.11px;font-family:Arial;color:#3a414a;direction:ltr;letter-spacing:0px;line-height:100%;opacity:1&quot;&gt;Situation Politique&lt;/font&gt;&lt;/p&gt;&lt;/div&gt;" style="text;vsdxID=1;fillColor=none;gradientColor=none;strokeColor=none;spacingTop=-3;spacingBottom=-3;spacingLeft=-3;spacingRight=-3;points=[[0,0.5,0],[1,0.5,0],[0.5,1,0],[0.5,0,0]];labelBackgroundColor=none;rounded=1;html=1;whiteSpace=wrap;verticalAlign=middle;align=center;overflow=width;;html=1;" parent="-43leVQ_KwWmYCP5Dvzr-1" vertex="1">
          <mxGeometry x="3.17" y="2.38" width="95.25" height="44.45" as="geometry" />
        </mxCell>
        <UserObject label="" tags="Arrière-plan" id="-43leVQ_KwWmYCP5Dvzr-5">
          <mxCell style="vsdxID=4;fillColor=none;gradientColor=none;strokeColor=none;spacingTop=-3;spacingBottom=-3;spacingLeft=-3;spacingRight=-3;points=[[0,0.5,0],[1,0.5,0],[0.5,1,0],[0.5,0,0]];labelBackgroundColor=none;rounded=1;html=1;whiteSpace=wrap;" parent="1" vertex="1">
            <mxGeometry x="1014.29" y="-750" width="101" height="50" as="geometry" />
          </mxCell>
        </UserObject>
        <mxCell id="-43leVQ_KwWmYCP5Dvzr-6" style="vsdxID=5;fillColor=#ffffff;gradientColor=none;shape=stencil(jZNNDoIwEIVP023TzkSBpfHnAp6ASJVGBFNRwdOLTJG2opFV++ZN5uvLwHB5ydOzYiAutamO6q6zOme4YgC6zJXRdXdiuGa43FdGHUx1LTO6n9POCaJXVEY98uUGkZrdVj8UaYKjjGZUoM5TdXtNbKg+1Fpr728bcu6uhqySinHMYzujla5fNGAJhBVaKwBwjBLns+MaDBusMHMIxGICYuywQhTxOfgYLmhINkx+PzwgGScXunSCAj8ozz5BKblMfM6RALzsBkL3Heg7/s0mSOZr+PAJ6TMNABCE9DuiX7vUHfqVpWXWRUEb79bDFe8k+j1w/QQ=);strokeColor=#282c33;spacingTop=-3;spacingBottom=-3;spacingLeft=-3;spacingRight=-3;points=[[0,0.5,0],[1,0.5,0],[0.5,1,0],[0.5,0,0]];labelBackgroundColor=none;rounded=1;html=1;whiteSpace=wrap;" parent="-43leVQ_KwWmYCP5Dvzr-5" vertex="1">
          <mxGeometry width="101" height="50" as="geometry" />
        </mxCell>
        <mxCell id="-43leVQ_KwWmYCP5Dvzr-7" value="&lt;div style=&quot;font-size: 1px&quot;&gt;&lt;p style=&quot;text-align:center;margin-left:0;margin-right:0;margin-top:0px;margin-bottom:0px;text-indent:0;vertical-align:middle;direction:ltr;&quot;&gt;&lt;font style=&quot;font-size:14.11px;font-family:Arial;color:#3a414a;direction:ltr;letter-spacing:0px;line-height:100%;opacity:1&quot;&gt;Date&lt;br/&gt;Terminale&lt;/font&gt;&lt;/p&gt;&lt;/div&gt;" style="text;vsdxID=4;fillColor=none;gradientColor=none;strokeColor=none;spacingTop=-3;spacingBottom=-3;spacingLeft=-3;spacingRight=-3;points=[[0,0.5,0],[1,0.5,0],[0.5,1,0],[0.5,0,0]];labelBackgroundColor=none;rounded=1;html=1;whiteSpace=wrap;verticalAlign=middle;align=center;overflow=width;;html=1;" parent="-43leVQ_KwWmYCP5Dvzr-5" vertex="1">
          <mxGeometry x="3.17" y="2.38" width="95.25" height="44.45" as="geometry" />
        </mxCell>
        <UserObject label="" tags="Arrière-plan" id="-43leVQ_KwWmYCP5Dvzr-8">
          <mxCell style="vsdxID=6;fillColor=none;gradientColor=none;strokeColor=none;spacingTop=-3;spacingBottom=-3;spacingLeft=-3;spacingRight=-3;points=[[0,0.5,0],[1,0.5,0],[0.5,1,0],[0.5,0,0],[2.36,0.71,0]];labelBackgroundColor=none;rounded=1;html=1;whiteSpace=wrap;" parent="1" vertex="1">
            <mxGeometry x="2040" y="-290" width="101" height="50" as="geometry" />
          </mxCell>
        </UserObject>
        <mxCell id="-43leVQ_KwWmYCP5Dvzr-9" style="vsdxID=7;fillColor=#ffffff;gradientColor=none;shape=stencil(jZNNDoIwEIVP023TzkSBpfHnAp6ASJVGBFNRwdOLTJG2opFV++ZN5uvLwHB5ydOzYiAutamO6q6zOme4YgC6zJXRdXdiuGa43FdGHUx1LTO6n9POCaJXVEY98uUGkZrdVj8UaYKjjGZUoM5TdXtNbKg+1Fpr728bcu6uhqySinHMYzujla5fNGAJhBVaKwBwjBLns+MaDBusMHMIxGICYuywQhTxOfgYLmhINkx+PzwgGScXunSCAj8ozz5BKblMfM6RALzsBkL3Heg7/s0mSOZr+PAJ6TMNABCE9DuiX7vUHfqVpWXWRUEb79bDFe8k+j1w/QQ=);strokeColor=#282c33;spacingTop=-3;spacingBottom=-3;spacingLeft=-3;spacingRight=-3;points=[[0,0.5,0],[1,0.5,0],[0.5,1,0],[0.5,0,0]];labelBackgroundColor=none;rounded=1;html=1;whiteSpace=wrap;" parent="-43leVQ_KwWmYCP5Dvzr-8" vertex="1">
          <mxGeometry width="101" height="50" as="geometry" />
        </mxCell>
        <mxCell id="-43leVQ_KwWmYCP5Dvzr-10" value="&lt;div style=&quot;font-size: 1px&quot;&gt;&lt;p style=&quot;text-align:center;margin-left:0;margin-right:0;margin-top:0px;margin-bottom:0px;text-indent:0;vertical-align:middle;direction:ltr;&quot;&gt;&lt;font style=&quot;font-size:14.11px;font-family:Arial;color:#3a414a;direction:ltr;letter-spacing:0px;line-height:100%;opacity:1&quot;&gt;Retour à l&amp;prime;Ordre Moral&lt;/font&gt;&lt;/p&gt;&lt;/div&gt;" style="text;vsdxID=6;fillColor=none;gradientColor=none;strokeColor=none;spacingTop=-3;spacingBottom=-3;spacingLeft=-3;spacingRight=-3;points=[[0,0.5,0],[1,0.5,0],[0.5,1,0],[0.5,0,0],[2.36,0.71,0]];labelBackgroundColor=none;rounded=1;html=1;whiteSpace=wrap;verticalAlign=middle;align=center;overflow=width;;html=1;" parent="-43leVQ_KwWmYCP5Dvzr-8" vertex="1">
          <mxGeometry x="3.17" y="2.38" width="95.25" height="44.45" as="geometry" />
        </mxCell>
        <UserObject label="" tags="Arrière-plan" id="-43leVQ_KwWmYCP5Dvzr-12">
          <mxCell style="vsdxID=9;fillColor=none;gradientColor=none;strokeColor=none;spacingTop=-3;spacingBottom=-3;spacingLeft=-3;spacingRight=-3;points=[[0,0.5,0],[1,0.5,0],[0.5,1,0],[0.5,0,0]];labelBackgroundColor=none;rounded=1;html=1;whiteSpace=wrap;" parent="1" vertex="1">
            <mxGeometry x="2040" y="-154" width="101" height="57" as="geometry" />
          </mxCell>
        </UserObject>
        <mxCell id="-43leVQ_KwWmYCP5Dvzr-13" style="vsdxID=10;fillColor=#ffffff;gradientColor=none;shape=stencil(lZNNboMwEIVP461lz0ANyypJL9AToOAEqwQih7Shpw9hjPwTqqis7DfvyZ+HMcPNpanOmoG4DLb/0j+mHhqGWwZgukZbM0wrhjuGm0Nv9dH2166m/bmanCBmRdeUkQ83iMruP82vJk1wlCqnAiVP/ffjxBvVleRFQeXRJebdB5n3V0tuScVC8Sxzdhn6xQ0chHDC6AQAjij8J9EFMA04ISt5WXoI8b7C4UNOUIq/qZgkZE3hlsPD6yc8/vDWdEHHoODLFcaVxAor8Dwvwy9G91AQdXSBDq+GseMfHUv69edfgRfQMeMCFDYFn+ZopYsv5m5azBNOs2/alh5IWE9fxCTRa8LdHQ==);strokeColor=#282c33;spacingTop=-3;spacingBottom=-3;spacingLeft=-3;spacingRight=-3;points=[[0,0.5,0],[1,0.5,0],[0.5,1,0],[0.5,0,0]];labelBackgroundColor=none;rounded=1;html=1;whiteSpace=wrap;" parent="-43leVQ_KwWmYCP5Dvzr-12" vertex="1">
          <mxGeometry width="101" height="57" as="geometry" />
        </mxCell>
        <mxCell id="-43leVQ_KwWmYCP5Dvzr-14" value="&lt;div style=&quot;font-size: 1px&quot;&gt;&lt;p style=&quot;text-align:center;margin-left:0;margin-right:0;margin-top:0px;margin-bottom:0px;text-indent:0;vertical-align:middle;direction:ltr;&quot;&gt;&lt;font style=&quot;font-size:14.11px;font-family:Arial;color:#3a414a;direction:ltr;letter-spacing:0px;line-height:100%;opacity:1&quot;&gt;En appeller aux Croix-de-Feu&lt;/font&gt;&lt;/p&gt;&lt;/div&gt;" style="text;vsdxID=9;fillColor=none;gradientColor=none;strokeColor=none;spacingTop=-3;spacingBottom=-3;spacingLeft=-3;spacingRight=-3;points=[[0,0.5,0],[1,0.5,0],[0.5,1,0],[0.5,0,0]];labelBackgroundColor=none;rounded=1;html=1;whiteSpace=wrap;verticalAlign=middle;align=center;overflow=width;;html=1;" parent="-43leVQ_KwWmYCP5Dvzr-12" vertex="1">
          <mxGeometry x="3.17" y="3.02" width="95.25" height="50.8" as="geometry" />
        </mxCell>
        <UserObject label="" tags="Arrière-plan" id="-43leVQ_KwWmYCP5Dvzr-19">
          <mxCell style="vsdxID=14;fillColor=none;gradientColor=none;strokeColor=none;spacingTop=-3;spacingBottom=-3;spacingLeft=-3;spacingRight=-3;points=[[0,0.5,0],[1,0.5,0],[0.5,1,0],[0.5,0,0]];labelBackgroundColor=none;rounded=1;html=1;whiteSpace=wrap;" parent="1" vertex="1">
            <mxGeometry x="2040" y="-49" width="101" height="50" as="geometry" />
          </mxCell>
        </UserObject>
        <mxCell id="-43leVQ_KwWmYCP5Dvzr-20" style="vsdxID=15;fillColor=#ffffff;gradientColor=none;shape=stencil(jZNNDoIwEIVP023TzkSBpfHnAp6ASJVGBFNRwdOLTJG2opFV++ZN5uvLwHB5ydOzYiAutamO6q6zOme4YgC6zJXRdXdiuGa43FdGHUx1LTO6n9POCaJXVEY98uUGkZrdVj8UaYKjjGZUoM5TdXtNbKg+1Fpr728bcu6uhqySinHMYzujla5fNGAJhBVaKwBwjBLns+MaDBusMHMIxGICYuywQhTxOfgYLmhINkx+PzwgGScXunSCAj8ozz5BKblMfM6RALzsBkL3Heg7/s0mSOZr+PAJ6TMNABCE9DuiX7vUHfqVpWXWRUEb79bDFe8k+j1w/QQ=);strokeColor=#282c33;spacingTop=-3;spacingBottom=-3;spacingLeft=-3;spacingRight=-3;points=[[0,0.5,0],[1,0.5,0],[0.5,1,0],[0.5,0,0]];labelBackgroundColor=none;rounded=1;html=1;whiteSpace=wrap;" parent="-43leVQ_KwWmYCP5Dvzr-19" vertex="1">
          <mxGeometry width="101" height="50" as="geometry" />
        </mxCell>
        <mxCell id="-43leVQ_KwWmYCP5Dvzr-21" value="&lt;div style=&quot;font-size: 1px&quot;&gt;&lt;p style=&quot;text-align:center;margin-left:0;margin-right:0;margin-top:0px;margin-bottom:0px;text-indent:0;vertical-align:middle;direction:ltr;&quot;&gt;&lt;font style=&quot;font-size:14.11px;font-family:Arial;color:#3a414a;direction:ltr;letter-spacing:0px;line-height:100%;opacity:1&quot;&gt;Le PSF au pouvoir !&lt;/font&gt;&lt;/p&gt;&lt;/div&gt;" style="text;vsdxID=14;fillColor=none;gradientColor=none;strokeColor=none;spacingTop=-3;spacingBottom=-3;spacingLeft=-3;spacingRight=-3;points=[[0,0.5,0],[1,0.5,0],[0.5,1,0],[0.5,0,0]];labelBackgroundColor=none;rounded=1;html=1;whiteSpace=wrap;verticalAlign=middle;align=center;overflow=width;;html=1;" parent="-43leVQ_KwWmYCP5Dvzr-19" vertex="1">
          <mxGeometry x="3.17" y="2.38" width="95.25" height="44.45" as="geometry" />
        </mxCell>
        <UserObject label="" tags="Arrière-plan" id="-43leVQ_KwWmYCP5Dvzr-23">
          <mxCell style="vsdxID=17;fillColor=none;gradientColor=none;strokeColor=none;spacingTop=-3;spacingBottom=-3;spacingLeft=-3;spacingRight=-3;points=[[0,0.5,0],[1,0.5,0],[0.5,1,0],[0.5,0,0]];labelBackgroundColor=none;rounded=1;html=1;whiteSpace=wrap;" parent="1" vertex="1">
            <mxGeometry x="1397" y="25" width="101" height="57" as="geometry" />
          </mxCell>
        </UserObject>
        <mxCell id="-43leVQ_KwWmYCP5Dvzr-24" style="vsdxID=18;fillColor=#ffffff;gradientColor=none;shape=stencil(lZNNboMwEIVP461lz0ANyypJL9AToOAEqwQih7Shpw9hjPwTqqis7DfvyZ+HMcPNpanOmoG4DLb/0j+mHhqGWwZgukZbM0wrhjuGm0Nv9dH2166m/bmanCBmRdeUkQ83iMruP82vJk1wlCqnAiVP/ffjxBvVleRFQeXRJebdB5n3V0tuScVC8Sxzdhn6xQ0chHDC6AQAjij8J9EFMA04ISt5WXoI8b7C4UNOUIq/qZgkZE3hlsPD6yc8/vDWdEHHoODLFcaVxAor8Dwvwy9G91AQdXSBDq+GseMfHUv69edfgRfQMeMCFDYFn+ZopYsv5m5azBNOs2/alh5IWE9fxCTRa8LdHQ==);strokeColor=#282c33;spacingTop=-3;spacingBottom=-3;spacingLeft=-3;spacingRight=-3;points=[[0,0.5,0],[1,0.5,0],[0.5,1,0],[0.5,0,0]];labelBackgroundColor=none;rounded=1;html=1;whiteSpace=wrap;" parent="-43leVQ_KwWmYCP5Dvzr-23" vertex="1">
          <mxGeometry width="101" height="57" as="geometry" />
        </mxCell>
        <mxCell id="-43leVQ_KwWmYCP5Dvzr-25" value="&lt;div style=&quot;font-size: 1px&quot;&gt;&lt;p style=&quot;text-align:center;margin-left:0;margin-right:0;margin-top:0px;margin-bottom:0px;text-indent:0;vertical-align:middle;direction:ltr;&quot;&gt;&lt;font style=&quot;font-size:14.11px;font-family:Arial;color:#3a414a;direction:ltr;letter-spacing:0px;line-height:100%;opacity:1&quot;&gt;Révision de la politique extérieure&lt;/font&gt;&lt;/p&gt;&lt;/div&gt;" style="text;vsdxID=17;fillColor=none;gradientColor=none;strokeColor=none;spacingTop=-3;spacingBottom=-3;spacingLeft=-3;spacingRight=-3;points=[[0,0.5,0],[1,0.5,0],[0.5,1,0],[0.5,0,0]];labelBackgroundColor=none;rounded=1;html=1;whiteSpace=wrap;verticalAlign=middle;align=center;overflow=width;;html=1;" parent="-43leVQ_KwWmYCP5Dvzr-23" vertex="1">
          <mxGeometry x="3.17" y="3.02" width="95.25" height="50.8" as="geometry" />
        </mxCell>
        <UserObject label="" tags="Arrière-plan" id="-43leVQ_KwWmYCP5Dvzr-28">
          <mxCell style="vsdxID=21;fillColor=none;gradientColor=none;strokeColor=none;spacingTop=-3;spacingBottom=-3;spacingLeft=-3;spacingRight=-3;points=[[0,0.5,0],[1,0.5,0],[0.5,1,0],[0.5,0,0]];labelBackgroundColor=none;rounded=1;html=1;whiteSpace=wrap;" parent="1" vertex="1">
            <mxGeometry x="2430" y="123.5" width="101" height="50" as="geometry" />
          </mxCell>
        </UserObject>
        <mxCell id="-43leVQ_KwWmYCP5Dvzr-29" style="vsdxID=22;fillColor=#ffffff;gradientColor=none;shape=stencil(jZNNDoIwEIVP023TzkSBpfHnAp6ASJVGBFNRwdOLTJG2opFV++ZN5uvLwHB5ydOzYiAutamO6q6zOme4YgC6zJXRdXdiuGa43FdGHUx1LTO6n9POCaJXVEY98uUGkZrdVj8UaYKjjGZUoM5TdXtNbKg+1Fpr728bcu6uhqySinHMYzujla5fNGAJhBVaKwBwjBLns+MaDBusMHMIxGICYuywQhTxOfgYLmhINkx+PzwgGScXunSCAj8ozz5BKblMfM6RALzsBkL3Heg7/s0mSOZr+PAJ6TMNABCE9DuiX7vUHfqVpWXWRUEb79bDFe8k+j1w/QQ=);strokeColor=#282c33;spacingTop=-3;spacingBottom=-3;spacingLeft=-3;spacingRight=-3;points=[[0,0.5,0],[1,0.5,0],[0.5,1,0],[0.5,0,0]];labelBackgroundColor=none;rounded=1;html=1;whiteSpace=wrap;" parent="-43leVQ_KwWmYCP5Dvzr-28" vertex="1">
          <mxGeometry width="101" height="50" as="geometry" />
        </mxCell>
        <mxCell id="-43leVQ_KwWmYCP5Dvzr-30" value="&lt;div style=&quot;font-size: 1px&quot;&gt;&lt;p style=&quot;text-align:center;margin-left:0;margin-right:0;margin-top:0px;margin-bottom:0px;text-indent:0;vertical-align:middle;direction:ltr;&quot;&gt;&lt;font style=&quot;font-size:14.11px;font-family:Arial;color:#3a414a;direction:ltr;letter-spacing:0px;line-height:100%;opacity:1&quot;&gt;Fin de la décadence&lt;/font&gt;&lt;/p&gt;&lt;/div&gt;" style="text;vsdxID=21;fillColor=none;gradientColor=none;strokeColor=none;spacingTop=-3;spacingBottom=-3;spacingLeft=-3;spacingRight=-3;points=[[0,0.5,0],[1,0.5,0],[0.5,1,0],[0.5,0,0]];labelBackgroundColor=none;rounded=1;html=1;whiteSpace=wrap;verticalAlign=middle;align=center;overflow=width;;html=1;" parent="-43leVQ_KwWmYCP5Dvzr-28" vertex="1">
          <mxGeometry x="2.17" y="2.38" width="95.25" height="44.45" as="geometry" />
        </mxCell>
        <UserObject label="" tags="Arrière-plan" id="-43leVQ_KwWmYCP5Dvzr-32">
          <mxCell style="vsdxID=24;fillColor=none;gradientColor=none;strokeColor=none;spacingTop=-3;spacingBottom=-3;spacingLeft=-3;spacingRight=-3;points=[[0,0.5,0],[1,0.5,0],[0.5,1,0],[0.5,0,0]];labelBackgroundColor=none;rounded=1;html=1;whiteSpace=wrap;" parent="1" vertex="1">
            <mxGeometry x="736" y="114" width="101" height="57" as="geometry" />
          </mxCell>
        </UserObject>
        <mxCell id="-43leVQ_KwWmYCP5Dvzr-33" style="vsdxID=25;fillColor=#ffffff;gradientColor=none;shape=stencil(lZNNboMwEIVP461lz0ANyypJL9AToOAEqwQih7Shpw9hjPwTqqis7DfvyZ+HMcPNpanOmoG4DLb/0j+mHhqGWwZgukZbM0wrhjuGm0Nv9dH2166m/bmanCBmRdeUkQ83iMruP82vJk1wlCqnAiVP/ffjxBvVleRFQeXRJebdB5n3V0tuScVC8Sxzdhn6xQ0chHDC6AQAjij8J9EFMA04ISt5WXoI8b7C4UNOUIq/qZgkZE3hlsPD6yc8/vDWdEHHoODLFcaVxAor8Dwvwy9G91AQdXSBDq+GseMfHUv69edfgRfQMeMCFDYFn+ZopYsv5m5azBNOs2/alh5IWE9fxCTRa8LdHQ==);strokeColor=#282c33;spacingTop=-3;spacingBottom=-3;spacingLeft=-3;spacingRight=-3;points=[[0,0.5,0],[1,0.5,0],[0.5,1,0],[0.5,0,0]];labelBackgroundColor=none;rounded=1;html=1;whiteSpace=wrap;" parent="-43leVQ_KwWmYCP5Dvzr-32" vertex="1">
          <mxGeometry width="101" height="57" as="geometry" />
        </mxCell>
        <mxCell id="-43leVQ_KwWmYCP5Dvzr-34" value="&lt;div style=&quot;font-size: 1px&quot;&gt;&lt;p style=&quot;text-align:center;margin-left:0;margin-right:0;margin-top:0px;margin-bottom:0px;text-indent:0;vertical-align:middle;direction:ltr;&quot;&gt;&lt;font style=&quot;font-size:14.11px;font-family:Arial;color:#3a414a;direction:ltr;letter-spacing:0px;line-height:100%;opacity:1&quot;&gt;Situation coloniale&lt;/font&gt;&lt;/p&gt;&lt;/div&gt;" style="text;vsdxID=24;fillColor=none;gradientColor=none;strokeColor=none;spacingTop=-3;spacingBottom=-3;spacingLeft=-3;spacingRight=-3;points=[[0,0.5,0],[1,0.5,0],[0.5,1,0],[0.5,0,0]];labelBackgroundColor=none;rounded=1;html=1;whiteSpace=wrap;verticalAlign=middle;align=center;overflow=width;;html=1;" parent="-43leVQ_KwWmYCP5Dvzr-32" vertex="1">
          <mxGeometry x="3.17" y="3.02" width="95.25" height="50.8" as="geometry" />
        </mxCell>
        <UserObject label="" tags="Arrière-plan" id="-43leVQ_KwWmYCP5Dvzr-35">
          <mxCell style="vsdxID=26;edgeStyle=none;startArrow=none;endArrow=block;startSize=5;endSize=5;strokeColor=#3a414a;spacingTop=-3;spacingBottom=-3;spacingLeft=-3;spacingRight=-3;verticalAlign=middle;html=1;labelBackgroundColor=none;rounded=1;" parent="1" edge="1">
            <mxGeometry relative="1" as="geometry">
              <mxPoint x="-1" y="-1" as="offset" />
              <Array as="points">
                <mxPoint x="723.93" y="142" />
                <mxPoint x="723.93" y="215.03" />
              </Array>
              <mxPoint x="736" y="142" as="sourcePoint" />
              <mxPoint x="711" y="215" as="targetPoint" />
            </mxGeometry>
          </mxCell>
        </UserObject>
        <UserObject label="" tags="Arrière-plan" id="-43leVQ_KwWmYCP5Dvzr-36">
          <mxCell style="vsdxID=27;fillColor=none;gradientColor=none;strokeColor=none;spacingTop=-3;spacingBottom=-3;spacingLeft=-3;spacingRight=-3;points=[[0,0.5,0],[1,0.5,0],[0.5,1,0],[0.5,0,0],[0.76,0.95,0]];labelBackgroundColor=none;rounded=1;html=1;whiteSpace=wrap;" parent="1" vertex="1">
            <mxGeometry x="609" y="190" width="101" height="50" as="geometry" />
          </mxCell>
        </UserObject>
        <mxCell id="-43leVQ_KwWmYCP5Dvzr-37" style="vsdxID=28;fillColor=#ffffff;gradientColor=none;shape=stencil(jZNNDoIwEIVP023TzkSBpfHnAp6ASJVGBFNRwdOLTJG2opFV++ZN5uvLwHB5ydOzYiAutamO6q6zOme4YgC6zJXRdXdiuGa43FdGHUx1LTO6n9POCaJXVEY98uUGkZrdVj8UaYKjjGZUoM5TdXtNbKg+1Fpr728bcu6uhqySinHMYzujla5fNGAJhBVaKwBwjBLns+MaDBusMHMIxGICYuywQhTxOfgYLmhINkx+PzwgGScXunSCAj8ozz5BKblMfM6RALzsBkL3Heg7/s0mSOZr+PAJ6TMNABCE9DuiX7vUHfqVpWXWRUEb79bDFe8k+j1w/QQ=);strokeColor=#282c33;spacingTop=-3;spacingBottom=-3;spacingLeft=-3;spacingRight=-3;points=[[0,0.5,0],[1,0.5,0],[0.5,1,0],[0.5,0,0]];labelBackgroundColor=none;rounded=1;html=1;whiteSpace=wrap;" parent="-43leVQ_KwWmYCP5Dvzr-36" vertex="1">
          <mxGeometry width="101" height="50" as="geometry" />
        </mxCell>
        <mxCell id="-43leVQ_KwWmYCP5Dvzr-38" value="&lt;div style=&quot;font-size: 1px&quot;&gt;&lt;p style=&quot;text-align:center;margin-left:0;margin-right:0;margin-top:0px;margin-bottom:0px;text-indent:0;vertical-align:middle;direction:ltr;&quot;&gt;&lt;font style=&quot;font-size:14.11px;font-family:Arial;color:#3a414a;direction:ltr;letter-spacing:0px;line-height:100%;opacity:1&quot;&gt;Troubles algériens&lt;/font&gt;&lt;/p&gt;&lt;/div&gt;" style="text;vsdxID=27;fillColor=none;gradientColor=none;strokeColor=none;spacingTop=-3;spacingBottom=-3;spacingLeft=-3;spacingRight=-3;points=[[0,0.5,0],[1,0.5,0],[0.5,1,0],[0.5,0,0],[0.76,0.95,0]];labelBackgroundColor=none;rounded=1;html=1;whiteSpace=wrap;verticalAlign=middle;align=center;overflow=width;;html=1;" parent="-43leVQ_KwWmYCP5Dvzr-36" vertex="1">
          <mxGeometry x="3.17" y="2.38" width="95.25" height="44.45" as="geometry" />
        </mxCell>
        <UserObject label="" tags="Arrière-plan" id="-43leVQ_KwWmYCP5Dvzr-39">
          <mxCell style="vsdxID=29;edgeStyle=none;startArrow=none;endArrow=block;startSize=5;endSize=5;strokeColor=#3a414a;spacingTop=-3;spacingBottom=-3;spacingLeft=-3;spacingRight=-3;verticalAlign=middle;html=1;labelBackgroundColor=none;rounded=1;" parent="1" edge="1">
            <mxGeometry relative="1" as="geometry">
              <mxPoint y="-1" as="offset" />
              <Array as="points">
                <mxPoint x="850.06" y="142" />
                <mxPoint x="850.06" y="215.03" />
              </Array>
              <mxPoint x="838" y="142" as="sourcePoint" />
              <mxPoint x="863" y="215" as="targetPoint" />
            </mxGeometry>
          </mxCell>
        </UserObject>
        <UserObject label="" tags="Arrière-plan" id="-43leVQ_KwWmYCP5Dvzr-40">
          <mxCell style="vsdxID=30;fillColor=none;gradientColor=none;strokeColor=none;spacingTop=-3;spacingBottom=-3;spacingLeft=-3;spacingRight=-3;points=[[0,0.5,0],[1,0.5,0],[0.5,1,0],[0.5,0,0],[-0.14,0.92,0]];labelBackgroundColor=none;rounded=1;html=1;whiteSpace=wrap;" parent="1" vertex="1">
            <mxGeometry x="863" y="187" width="101" height="57" as="geometry" />
          </mxCell>
        </UserObject>
        <mxCell id="-43leVQ_KwWmYCP5Dvzr-41" style="vsdxID=31;fillColor=#ffffff;gradientColor=none;shape=stencil(lZNNboMwEIVP461lz0ANyypJL9AToOAEqwQih7Shpw9hjPwTqqis7DfvyZ+HMcPNpanOmoG4DLb/0j+mHhqGWwZgukZbM0wrhjuGm0Nv9dH2166m/bmanCBmRdeUkQ83iMruP82vJk1wlCqnAiVP/ffjxBvVleRFQeXRJebdB5n3V0tuScVC8Sxzdhn6xQ0chHDC6AQAjij8J9EFMA04ISt5WXoI8b7C4UNOUIq/qZgkZE3hlsPD6yc8/vDWdEHHoODLFcaVxAor8Dwvwy9G91AQdXSBDq+GseMfHUv69edfgRfQMeMCFDYFn+ZopYsv5m5azBNOs2/alh5IWE9fxCTRa8LdHQ==);strokeColor=#282c33;spacingTop=-3;spacingBottom=-3;spacingLeft=-3;spacingRight=-3;points=[[0,0.5,0],[1,0.5,0],[0.5,1,0],[0.5,0,0]];labelBackgroundColor=none;rounded=1;html=1;whiteSpace=wrap;" parent="-43leVQ_KwWmYCP5Dvzr-40" vertex="1">
          <mxGeometry width="101" height="57" as="geometry" />
        </mxCell>
        <mxCell id="-43leVQ_KwWmYCP5Dvzr-42" value="&lt;div style=&quot;font-size: 1px&quot;&gt;&lt;p style=&quot;text-align:center;margin-left:0;margin-right:0;margin-top:0px;margin-bottom:0px;text-indent:0;vertical-align:middle;direction:ltr;&quot;&gt;&lt;font style=&quot;font-size:14.11px;font-family:Arial;color:#3a414a;direction:ltr;letter-spacing:0px;line-height:100%;opacity:1&quot;&gt;Pas un autre Yen Bai !&lt;/font&gt;&lt;/p&gt;&lt;/div&gt;" style="text;vsdxID=30;fillColor=none;gradientColor=none;strokeColor=none;spacingTop=-3;spacingBottom=-3;spacingLeft=-3;spacingRight=-3;points=[[0,0.5,0],[1,0.5,0],[0.5,1,0],[0.5,0,0],[-0.14,0.92,0]];labelBackgroundColor=none;rounded=1;html=1;whiteSpace=wrap;verticalAlign=middle;align=center;overflow=width;;html=1;" parent="-43leVQ_KwWmYCP5Dvzr-40" vertex="1">
          <mxGeometry x="3.17" y="3.02" width="95.25" height="50.8" as="geometry" />
        </mxCell>
        <UserObject label="" tags="Arrière-plan" id="-43leVQ_KwWmYCP5Dvzr-43">
          <mxCell style="vsdxID=32;fillColor=none;gradientColor=none;strokeColor=none;spacingTop=-3;spacingBottom=-3;spacingLeft=-3;spacingRight=-3;points=[[0,0.5,0],[1,0.5,0],[0.5,1,0],[0.5,0,0],[-0.36,1.01,0]];labelBackgroundColor=none;rounded=1;html=1;whiteSpace=wrap;" parent="1" vertex="1">
            <mxGeometry x="863" y="254" width="101" height="57" as="geometry" />
          </mxCell>
        </UserObject>
        <mxCell id="-43leVQ_KwWmYCP5Dvzr-44" style="vsdxID=33;fillColor=#ffffff;gradientColor=none;shape=stencil(lZNNboMwEIVP461lz0ANyypJL9AToOAEqwQih7Shpw9hjPwTqqis7DfvyZ+HMcPNpanOmoG4DLb/0j+mHhqGWwZgukZbM0wrhjuGm0Nv9dH2166m/bmanCBmRdeUkQ83iMruP82vJk1wlCqnAiVP/ffjxBvVleRFQeXRJebdB5n3V0tuScVC8Sxzdhn6xQ0chHDC6AQAjij8J9EFMA04ISt5WXoI8b7C4UNOUIq/qZgkZE3hlsPD6yc8/vDWdEHHoODLFcaVxAor8Dwvwy9G91AQdXSBDq+GseMfHUv69edfgRfQMeMCFDYFn+ZopYsv5m5azBNOs2/alh5IWE9fxCTRa8LdHQ==);strokeColor=#282c33;spacingTop=-3;spacingBottom=-3;spacingLeft=-3;spacingRight=-3;points=[[0,0.5,0],[1,0.5,0],[0.5,1,0],[0.5,0,0]];labelBackgroundColor=none;rounded=1;html=1;whiteSpace=wrap;" parent="-43leVQ_KwWmYCP5Dvzr-43" vertex="1">
          <mxGeometry width="101" height="57" as="geometry" />
        </mxCell>
        <mxCell id="-43leVQ_KwWmYCP5Dvzr-45" value="&lt;div style=&quot;font-size: 1px&quot;&gt;&lt;p style=&quot;text-align:center;margin-left:0;margin-right:0;margin-top:0px;margin-bottom:0px;text-indent:0;vertical-align:middle;direction:ltr;&quot;&gt;&lt;font style=&quot;font-size:14.11px;font-family:Arial;color:#3a414a;direction:ltr;letter-spacing:0px;line-height:100%;opacity:1&quot;&gt;Le Levant, perle de l&amp;prime;Orient&lt;/font&gt;&lt;/p&gt;&lt;/div&gt;" style="text;vsdxID=32;fillColor=none;gradientColor=none;strokeColor=none;spacingTop=-3;spacingBottom=-3;spacingLeft=-3;spacingRight=-3;points=[[0,0.5,0],[1,0.5,0],[0.5,1,0],[0.5,0,0],[-0.36,1.01,0]];labelBackgroundColor=none;rounded=1;html=1;whiteSpace=wrap;verticalAlign=middle;align=center;overflow=width;;html=1;" parent="-43leVQ_KwWmYCP5Dvzr-43" vertex="1">
          <mxGeometry x="3.17" y="3.02" width="95.25" height="50.8" as="geometry" />
        </mxCell>
        <UserObject label="" tags="Arrière-plan" id="-43leVQ_KwWmYCP5Dvzr-46">
          <mxCell style="vsdxID=34;fillColor=none;gradientColor=none;strokeColor=none;spacingTop=-3;spacingBottom=-3;spacingLeft=-3;spacingRight=-3;points=[[0,0.5,0],[1,0.5,0],[0.5,1,0],[0.5,0,0],[0.66,0.99,0]];labelBackgroundColor=none;rounded=1;html=1;whiteSpace=wrap;" parent="1" vertex="1">
            <mxGeometry x="609" y="254" width="101" height="57" as="geometry" />
          </mxCell>
        </UserObject>
        <mxCell id="-43leVQ_KwWmYCP5Dvzr-47" style="vsdxID=35;fillColor=#ffffff;gradientColor=none;shape=stencil(lZNNboMwEIVP461lz0ANyypJL9AToOAEqwQih7Shpw9hjPwTqqis7DfvyZ+HMcPNpanOmoG4DLb/0j+mHhqGWwZgukZbM0wrhjuGm0Nv9dH2166m/bmanCBmRdeUkQ83iMruP82vJk1wlCqnAiVP/ffjxBvVleRFQeXRJebdB5n3V0tuScVC8Sxzdhn6xQ0chHDC6AQAjij8J9EFMA04ISt5WXoI8b7C4UNOUIq/qZgkZE3hlsPD6yc8/vDWdEHHoODLFcaVxAor8Dwvwy9G91AQdXSBDq+GseMfHUv69edfgRfQMeMCFDYFn+ZopYsv5m5azBNOs2/alh5IWE9fxCTRa8LdHQ==);strokeColor=#282c33;spacingTop=-3;spacingBottom=-3;spacingLeft=-3;spacingRight=-3;points=[[0,0.5,0],[1,0.5,0],[0.5,1,0],[0.5,0,0]];labelBackgroundColor=none;rounded=1;html=1;whiteSpace=wrap;" parent="-43leVQ_KwWmYCP5Dvzr-46" vertex="1">
          <mxGeometry width="101" height="57" as="geometry" />
        </mxCell>
        <mxCell id="-43leVQ_KwWmYCP5Dvzr-48" value="&lt;div style=&quot;font-size: 1px&quot;&gt;&lt;p style=&quot;text-align:center;margin-left:0;margin-right:0;margin-top:0px;margin-bottom:0px;text-indent:0;vertical-align:middle;direction:ltr;&quot;&gt;&lt;font style=&quot;font-size:14.11px;font-family:Arial;color:#3a414a;direction:ltr;letter-spacing:0px;line-height:100%;opacity:1&quot;&gt;Reconsidérer les protectorats&lt;/font&gt;&lt;/p&gt;&lt;/div&gt;" style="text;vsdxID=34;fillColor=none;gradientColor=none;strokeColor=none;spacingTop=-3;spacingBottom=-3;spacingLeft=-3;spacingRight=-3;points=[[0,0.5,0],[1,0.5,0],[0.5,1,0],[0.5,0,0],[0.66,0.99,0]];labelBackgroundColor=none;rounded=1;html=1;whiteSpace=wrap;verticalAlign=middle;align=center;overflow=width;;html=1;" parent="-43leVQ_KwWmYCP5Dvzr-46" vertex="1">
          <mxGeometry x="3.17" y="3.02" width="95.25" height="50.8" as="geometry" />
        </mxCell>
        <UserObject label="" tags="Arrière-plan" id="-43leVQ_KwWmYCP5Dvzr-50">
          <mxCell style="vsdxID=37;fillColor=none;gradientColor=none;strokeColor=none;spacingTop=-3;spacingBottom=-3;spacingLeft=-3;spacingRight=-3;points=[[0,0.5,0],[1,0.5,0],[0.5,1,0],[0.5,0,0],[0.31,0.44,0],[-0.62,0.46,0],[0.45,-0.81,0]];labelBackgroundColor=none;rounded=1;html=1;whiteSpace=wrap;" parent="1" vertex="1">
            <mxGeometry x="736" y="342" width="101" height="57" as="geometry" />
          </mxCell>
        </UserObject>
        <mxCell id="-43leVQ_KwWmYCP5Dvzr-51" style="vsdxID=38;fillColor=#ffffff;gradientColor=none;shape=stencil(lZNNboMwEIVP461lz0ANyypJL9AToOAEqwQih7Shpw9hjPwTqqis7DfvyZ+HMcPNpanOmoG4DLb/0j+mHhqGWwZgukZbM0wrhjuGm0Nv9dH2166m/bmanCBmRdeUkQ83iMruP82vJk1wlCqnAiVP/ffjxBvVleRFQeXRJebdB5n3V0tuScVC8Sxzdhn6xQ0chHDC6AQAjij8J9EFMA04ISt5WXoI8b7C4UNOUIq/qZgkZE3hlsPD6yc8/vDWdEHHoODLFcaVxAor8Dwvwy9G91AQdXSBDq+GseMfHUv69edfgRfQMeMCFDYFn+ZopYsv5m5azBNOs2/alh5IWE9fxCTRa8LdHQ==);strokeColor=#282c33;spacingTop=-3;spacingBottom=-3;spacingLeft=-3;spacingRight=-3;points=[[0,0.5,0],[1,0.5,0],[0.5,1,0],[0.5,0,0]];labelBackgroundColor=none;rounded=1;html=1;whiteSpace=wrap;" parent="-43leVQ_KwWmYCP5Dvzr-50" vertex="1">
          <mxGeometry width="101" height="57" as="geometry" />
        </mxCell>
        <mxCell id="-43leVQ_KwWmYCP5Dvzr-52" value="&lt;div style=&quot;font-size: 1px&quot;&gt;&lt;p style=&quot;text-align:center;margin-left:0;margin-right:0;margin-top:0px;margin-bottom:0px;text-indent:0;vertical-align:middle;direction:ltr;&quot;&gt;&lt;font style=&quot;font-size:14.11px;font-family:Arial;color:#3a414a;direction:ltr;letter-spacing:0px;line-height:100%;opacity:1&quot;&gt;Paradis France&lt;/font&gt;&lt;/p&gt;&lt;/div&gt;" style="text;vsdxID=37;fillColor=none;gradientColor=none;strokeColor=none;spacingTop=-3;spacingBottom=-3;spacingLeft=-3;spacingRight=-3;points=[[0,0.5,0],[1,0.5,0],[0.5,1,0],[0.5,0,0],[0.31,0.44,0],[-0.62,0.46,0],[0.45,-0.81,0]];labelBackgroundColor=none;rounded=1;html=1;whiteSpace=wrap;verticalAlign=middle;align=center;overflow=width;;html=1;" parent="-43leVQ_KwWmYCP5Dvzr-50" vertex="1">
          <mxGeometry x="3.17" y="3.02" width="95.25" height="50.8" as="geometry" />
        </mxCell>
        <UserObject label="" tags="Arrière-plan" id="-43leVQ_KwWmYCP5Dvzr-53">
          <mxCell style="vsdxID=39;edgeStyle=none;startArrow=none;endArrow=block;startSize=5;endSize=5;strokeColor=#3a414a;spacingTop=-3;spacingBottom=-3;spacingLeft=-3;spacingRight=-3;verticalAlign=middle;html=1;labelBackgroundColor=none;rounded=1;" parent="1" edge="1">
            <mxGeometry relative="1" as="geometry">
              <mxPoint x="-1" as="offset" />
              <Array as="points">
                <mxPoint x="690" y="325.87" />
                <mxPoint x="773.75" y="325.87" />
              </Array>
              <mxPoint x="690" y="310" as="sourcePoint" />
              <mxPoint x="774" y="342" as="targetPoint" />
            </mxGeometry>
          </mxCell>
        </UserObject>
        <UserObject label="" tags="Arrière-plan" id="-43leVQ_KwWmYCP5Dvzr-54">
          <mxCell style="vsdxID=40;edgeStyle=none;startArrow=none;endArrow=block;startSize=5;endSize=5;strokeColor=#3a414a;spacingTop=-3;spacingBottom=-3;spacingLeft=-3;spacingRight=-3;verticalAlign=middle;html=1;labelBackgroundColor=none;rounded=1;" parent="1" edge="1">
            <mxGeometry relative="1" as="geometry">
              <mxPoint x="-1" as="offset" />
              <Array as="points">
                <mxPoint x="900" y="326.24" />
                <mxPoint x="799.92" y="326.24" />
              </Array>
              <mxPoint x="900" y="311" as="sourcePoint" />
              <mxPoint x="800" y="342" as="targetPoint" />
            </mxGeometry>
          </mxCell>
        </UserObject>
        <UserObject label="" tags="Arrière-plan" id="-43leVQ_KwWmYCP5Dvzr-58">
          <mxCell style="vsdxID=44;fillColor=none;gradientColor=none;strokeColor=none;spacingTop=-3;spacingBottom=-3;spacingLeft=-3;spacingRight=-3;points=[[0,0.5,0],[1,0.5,0],[0.5,1,0],[0.5,0,0]];labelBackgroundColor=none;rounded=1;html=1;whiteSpace=wrap;" parent="1" vertex="1">
            <mxGeometry x="1143" y="120" width="101" height="57" as="geometry" />
          </mxCell>
        </UserObject>
        <mxCell id="-43leVQ_KwWmYCP5Dvzr-59" style="vsdxID=45;fillColor=#ffffff;gradientColor=none;shape=stencil(lZNNboMwEIVP461lz0ANyypJL9AToOAEqwQih7Shpw9hjPwTqqis7DfvyZ+HMcPNpanOmoG4DLb/0j+mHhqGWwZgukZbM0wrhjuGm0Nv9dH2166m/bmanCBmRdeUkQ83iMruP82vJk1wlCqnAiVP/ffjxBvVleRFQeXRJebdB5n3V0tuScVC8Sxzdhn6xQ0chHDC6AQAjij8J9EFMA04ISt5WXoI8b7C4UNOUIq/qZgkZE3hlsPD6yc8/vDWdEHHoODLFcaVxAor8Dwvwy9G91AQdXSBDq+GseMfHUv69edfgRfQMeMCFDYFn+ZopYsv5m5azBNOs2/alh5IWE9fxCTRa8LdHQ==);strokeColor=#282c33;spacingTop=-3;spacingBottom=-3;spacingLeft=-3;spacingRight=-3;points=[[0,0.5,0],[1,0.5,0],[0.5,1,0],[0.5,0,0]];labelBackgroundColor=none;rounded=1;html=1;whiteSpace=wrap;" parent="-43leVQ_KwWmYCP5Dvzr-58" vertex="1">
          <mxGeometry width="101" height="57" as="geometry" />
        </mxCell>
        <mxCell id="-43leVQ_KwWmYCP5Dvzr-60" value="&lt;div style=&quot;font-size: 1px&quot;&gt;&lt;p style=&quot;text-align:center;margin-left:0;margin-right:0;margin-top:0px;margin-bottom:0px;text-indent:0;vertical-align:middle;direction:ltr;&quot;&gt;&lt;font style=&quot;font-size:14.11px;font-family:Arial;color:#3a414a;direction:ltr;letter-spacing:0px;line-height:100%;opacity:1&quot;&gt;La France, pilier de l&amp;prime;Europe !&lt;/font&gt;&lt;/p&gt;&lt;/div&gt;" style="text;vsdxID=44;fillColor=none;gradientColor=none;strokeColor=none;spacingTop=-3;spacingBottom=-3;spacingLeft=-3;spacingRight=-3;points=[[0,0.5,0],[1,0.5,0],[0.5,1,0],[0.5,0,0]];labelBackgroundColor=none;rounded=1;html=1;whiteSpace=wrap;verticalAlign=middle;align=center;overflow=width;;html=1;" parent="-43leVQ_KwWmYCP5Dvzr-58" vertex="1">
          <mxGeometry x="3.17" y="3.02" width="95.25" height="50.8" as="geometry" />
        </mxCell>
        <UserObject label="" tags="Arrière-plan" id="-43leVQ_KwWmYCP5Dvzr-61">
          <mxCell style="vsdxID=46;edgeStyle=none;startArrow=none;endArrow=block;startSize=5;endSize=5;strokeColor=#3a414a;spacingTop=-3;spacingBottom=-3;spacingLeft=-3;spacingRight=-3;verticalAlign=middle;html=1;labelBackgroundColor=none;rounded=1;" parent="1" edge="1">
            <mxGeometry relative="1" as="geometry">
              <mxPoint as="offset" />
              <Array as="points">
                <mxPoint x="1193" y="192.59" />
                <mxPoint x="1078.7" y="192.59" />
              </Array>
              <mxPoint x="1193" y="171" as="sourcePoint" />
              <mxPoint x="1079" y="215" as="targetPoint" />
            </mxGeometry>
          </mxCell>
        </UserObject>
        <UserObject label="" tags="Arrière-plan" id="-43leVQ_KwWmYCP5Dvzr-62">
          <mxCell style="vsdxID=47;fillColor=none;gradientColor=none;strokeColor=none;spacingTop=-3;spacingBottom=-3;spacingLeft=-3;spacingRight=-3;points=[[0,0.5,0],[1,0.5,0],[0.5,1,0],[0.5,0,0]];labelBackgroundColor=none;rounded=1;html=1;whiteSpace=wrap;" parent="1" vertex="1">
            <mxGeometry x="1028" y="215" width="101" height="57" as="geometry" />
          </mxCell>
        </UserObject>
        <mxCell id="-43leVQ_KwWmYCP5Dvzr-63" style="vsdxID=48;fillColor=#ffffff;gradientColor=none;shape=stencil(lZNNboMwEIVP461lz0ANyypJL9AToOAEqwQih7Shpw9hjPwTqqis7DfvyZ+HMcPNpanOmoG4DLb/0j+mHhqGWwZgukZbM0wrhjuGm0Nv9dH2166m/bmanCBmRdeUkQ83iMruP82vJk1wlCqnAiVP/ffjxBvVleRFQeXRJebdB5n3V0tuScVC8Sxzdhn6xQ0chHDC6AQAjij8J9EFMA04ISt5WXoI8b7C4UNOUIq/qZgkZE3hlsPD6yc8/vDWdEHHoODLFcaVxAor8Dwvwy9G91AQdXSBDq+GseMfHUv69edfgRfQMeMCFDYFn+ZopYsv5m5azBNOs2/alh5IWE9fxCTRa8LdHQ==);strokeColor=#282c33;spacingTop=-3;spacingBottom=-3;spacingLeft=-3;spacingRight=-3;points=[[0,0.5,0],[1,0.5,0],[0.5,1,0],[0.5,0,0]];labelBackgroundColor=none;rounded=1;html=1;whiteSpace=wrap;" parent="-43leVQ_KwWmYCP5Dvzr-62" vertex="1">
          <mxGeometry width="101" height="57" as="geometry" />
        </mxCell>
        <mxCell id="-43leVQ_KwWmYCP5Dvzr-64" value="&lt;div style=&quot;font-size: 1px&quot;&gt;&lt;p style=&quot;text-align:center;margin-left:0;margin-right:0;margin-top:0px;margin-bottom:0px;text-indent:0;vertical-align:middle;direction:ltr;&quot;&gt;&lt;font style=&quot;font-size:14.11px;font-family:Arial;color:#3a414a;direction:ltr;letter-spacing:0px;line-height:100%;opacity:1&quot;&gt;Préserver notre démocratie&lt;/font&gt;&lt;/p&gt;&lt;/div&gt;" style="text;vsdxID=47;fillColor=none;gradientColor=none;strokeColor=none;spacingTop=-3;spacingBottom=-3;spacingLeft=-3;spacingRight=-3;points=[[0,0.5,0],[1,0.5,0],[0.5,1,0],[0.5,0,0]];labelBackgroundColor=none;rounded=1;html=1;whiteSpace=wrap;verticalAlign=middle;align=center;overflow=width;;html=1;" parent="-43leVQ_KwWmYCP5Dvzr-62" vertex="1">
          <mxGeometry x="3.17" y="3.02" width="95.25" height="50.8" as="geometry" />
        </mxCell>
        <UserObject label="" tags="Arrière-plan" id="-43leVQ_KwWmYCP5Dvzr-65">
          <mxCell style="vsdxID=49;edgeStyle=none;startArrow=none;endArrow=block;startSize=5;endSize=5;strokeColor=#3a414a;spacingTop=-3;spacingBottom=-3;spacingLeft=-3;spacingRight=-3;verticalAlign=middle;html=1;labelBackgroundColor=none;rounded=1;" parent="1" edge="1">
            <mxGeometry relative="1" as="geometry">
              <mxPoint x="-1" as="offset" />
              <Array as="points">
                <mxPoint x="1193" y="192.59" />
                <mxPoint x="1307.3" y="192.59" />
              </Array>
              <mxPoint x="1193" y="171" as="sourcePoint" />
              <mxPoint x="1308" y="215" as="targetPoint" />
            </mxGeometry>
          </mxCell>
        </UserObject>
        <UserObject label="" tags="Arrière-plan" id="-43leVQ_KwWmYCP5Dvzr-66">
          <mxCell style="vsdxID=50;fillColor=none;gradientColor=none;strokeColor=none;spacingTop=-3;spacingBottom=-3;spacingLeft=-3;spacingRight=-3;points=[[0,0.5,0],[1,0.5,0],[0.5,1,0],[0.5,0,0]];labelBackgroundColor=none;rounded=1;html=1;whiteSpace=wrap;" parent="1" vertex="1">
            <mxGeometry x="1257" y="215" width="101" height="57" as="geometry" />
          </mxCell>
        </UserObject>
        <mxCell id="-43leVQ_KwWmYCP5Dvzr-67" style="vsdxID=51;fillColor=#ffffff;gradientColor=none;shape=stencil(lZNNboMwEIVP461lz0ANyypJL9AToOAEqwQih7Shpw9hjPwTqqis7DfvyZ+HMcPNpanOmoG4DLb/0j+mHhqGWwZgukZbM0wrhjuGm0Nv9dH2166m/bmanCBmRdeUkQ83iMruP82vJk1wlCqnAiVP/ffjxBvVleRFQeXRJebdB5n3V0tuScVC8Sxzdhn6xQ0chHDC6AQAjij8J9EFMA04ISt5WXoI8b7C4UNOUIq/qZgkZE3hlsPD6yc8/vDWdEHHoODLFcaVxAor8Dwvwy9G91AQdXSBDq+GseMfHUv69edfgRfQMeMCFDYFn+ZopYsv5m5azBNOs2/alh5IWE9fxCTRa8LdHQ==);strokeColor=#282c33;spacingTop=-3;spacingBottom=-3;spacingLeft=-3;spacingRight=-3;points=[[0,0.5,0],[1,0.5,0],[0.5,1,0],[0.5,0,0]];labelBackgroundColor=none;rounded=1;html=1;whiteSpace=wrap;" parent="-43leVQ_KwWmYCP5Dvzr-66" vertex="1">
          <mxGeometry width="101" height="57" as="geometry" />
        </mxCell>
        <mxCell id="-43leVQ_KwWmYCP5Dvzr-68" value="&lt;div style=&quot;font-size: 1px&quot;&gt;&lt;p style=&quot;text-align:center;margin-left:0;margin-right:0;margin-top:0px;margin-bottom:0px;text-indent:0;vertical-align:middle;direction:ltr;&quot;&gt;&lt;font style=&quot;font-size:14.11px;font-family:Arial;color:#3a414a;direction:ltr;letter-spacing:0px;line-height:100%;opacity:1&quot;&gt;Arsenal de l&amp;prime;Europe&lt;/font&gt;&lt;/p&gt;&lt;/div&gt;" style="text;vsdxID=50;fillColor=none;gradientColor=none;strokeColor=none;spacingTop=-3;spacingBottom=-3;spacingLeft=-3;spacingRight=-3;points=[[0,0.5,0],[1,0.5,0],[0.5,1,0],[0.5,0,0]];labelBackgroundColor=none;rounded=1;html=1;whiteSpace=wrap;verticalAlign=middle;align=center;overflow=width;;html=1;" parent="-43leVQ_KwWmYCP5Dvzr-66" vertex="1">
          <mxGeometry x="3.17" y="3.02" width="95.25" height="50.8" as="geometry" />
        </mxCell>
        <UserObject label="" tags="Arrière-plan" id="-43leVQ_KwWmYCP5Dvzr-69">
          <mxCell style="vsdxID=52;edgeStyle=none;startArrow=none;endArrow=block;startSize=5;endSize=5;strokeColor=#3a414a;spacingTop=-3;spacingBottom=-3;spacingLeft=-3;spacingRight=-3;verticalAlign=middle;html=1;labelBackgroundColor=none;rounded=1;" parent="1" edge="1">
            <mxGeometry relative="1" as="geometry">
              <mxPoint y="-1" as="offset" />
              <Array as="points" />
              <mxPoint x="1079" y="273" as="sourcePoint" />
              <mxPoint x="1079" y="323" as="targetPoint" />
            </mxGeometry>
          </mxCell>
        </UserObject>
        <UserObject label="" tags="Arrière-plan" id="-43leVQ_KwWmYCP5Dvzr-70">
          <mxCell style="vsdxID=53;fillColor=none;gradientColor=none;strokeColor=none;spacingTop=-3;spacingBottom=-3;spacingLeft=-3;spacingRight=-3;points=[[0,0.5,0],[1,0.5,0],[0.5,1,0],[0.5,0,0]];labelBackgroundColor=none;rounded=1;html=1;whiteSpace=wrap;" parent="1" vertex="1">
            <mxGeometry x="1028" y="323" width="101" height="57" as="geometry" />
          </mxCell>
        </UserObject>
        <mxCell id="-43leVQ_KwWmYCP5Dvzr-71" style="vsdxID=54;fillColor=#ffffff;gradientColor=none;shape=stencil(lZNNboMwEIVP461lz0ANyypJL9AToOAEqwQih7Shpw9hjPwTqqis7DfvyZ+HMcPNpanOmoG4DLb/0j+mHhqGWwZgukZbM0wrhjuGm0Nv9dH2166m/bmanCBmRdeUkQ83iMruP82vJk1wlCqnAiVP/ffjxBvVleRFQeXRJebdB5n3V0tuScVC8Sxzdhn6xQ0chHDC6AQAjij8J9EFMA04ISt5WXoI8b7C4UNOUIq/qZgkZE3hlsPD6yc8/vDWdEHHoODLFcaVxAor8Dwvwy9G91AQdXSBDq+GseMfHUv69edfgRfQMeMCFDYFn+ZopYsv5m5azBNOs2/alh5IWE9fxCTRa8LdHQ==);strokeColor=#282c33;spacingTop=-3;spacingBottom=-3;spacingLeft=-3;spacingRight=-3;points=[[0,0.5,0],[1,0.5,0],[0.5,1,0],[0.5,0,0]];labelBackgroundColor=none;rounded=1;html=1;whiteSpace=wrap;" parent="-43leVQ_KwWmYCP5Dvzr-70" vertex="1">
          <mxGeometry width="101" height="57" as="geometry" />
        </mxCell>
        <mxCell id="-43leVQ_KwWmYCP5Dvzr-72" value="&lt;div style=&quot;font-size: 1px&quot;&gt;&lt;p style=&quot;text-align:center;margin-left:0;margin-right:0;margin-top:0px;margin-bottom:0px;text-indent:0;vertical-align:middle;direction:ltr;&quot;&gt;&lt;font style=&quot;font-size:14.11px;font-family:Arial;color:#3a414a;direction:ltr;letter-spacing:0px;line-height:100%;opacity:1&quot;&gt;Annuler la dette grecque&lt;/font&gt;&lt;/p&gt;&lt;/div&gt;" style="text;vsdxID=53;fillColor=none;gradientColor=none;strokeColor=none;spacingTop=-3;spacingBottom=-3;spacingLeft=-3;spacingRight=-3;points=[[0,0.5,0],[1,0.5,0],[0.5,1,0],[0.5,0,0]];labelBackgroundColor=none;rounded=1;html=1;whiteSpace=wrap;verticalAlign=middle;align=center;overflow=width;;html=1;" parent="-43leVQ_KwWmYCP5Dvzr-70" vertex="1">
          <mxGeometry x="3.17" y="3.02" width="95.25" height="50.8" as="geometry" />
        </mxCell>
        <UserObject label="" tags="Arrière-plan" id="-43leVQ_KwWmYCP5Dvzr-73">
          <mxCell style="vsdxID=55;edgeStyle=none;startArrow=none;endArrow=block;startSize=5;endSize=5;strokeColor=#3a414a;spacingTop=-3;spacingBottom=-3;spacingLeft=-3;spacingRight=-3;verticalAlign=middle;html=1;labelBackgroundColor=none;rounded=1;" parent="1" edge="1">
            <mxGeometry relative="1" as="geometry">
              <mxPoint y="-1" as="offset" />
              <Array as="points" />
              <mxPoint x="1308" y="273" as="sourcePoint" />
              <mxPoint x="1308" y="323" as="targetPoint" />
            </mxGeometry>
          </mxCell>
        </UserObject>
        <UserObject label="" tags="Arrière-plan" id="-43leVQ_KwWmYCP5Dvzr-74">
          <mxCell style="vsdxID=56;fillColor=none;gradientColor=none;strokeColor=none;spacingTop=-3;spacingBottom=-3;spacingLeft=-3;spacingRight=-3;points=[[0,0.5,0],[1,0.5,0],[0.5,1,0],[0.5,0,0]];labelBackgroundColor=none;rounded=1;html=1;whiteSpace=wrap;" parent="1" vertex="1">
            <mxGeometry x="1257" y="323" width="101" height="57" as="geometry" />
          </mxCell>
        </UserObject>
        <mxCell id="-43leVQ_KwWmYCP5Dvzr-75" style="vsdxID=57;fillColor=#ffffff;gradientColor=none;shape=stencil(lZNNboMwEIVP461lz0ANyypJL9AToOAEqwQih7Shpw9hjPwTqqis7DfvyZ+HMcPNpanOmoG4DLb/0j+mHhqGWwZgukZbM0wrhjuGm0Nv9dH2166m/bmanCBmRdeUkQ83iMruP82vJk1wlCqnAiVP/ffjxBvVleRFQeXRJebdB5n3V0tuScVC8Sxzdhn6xQ0chHDC6AQAjij8J9EFMA04ISt5WXoI8b7C4UNOUIq/qZgkZE3hlsPD6yc8/vDWdEHHoODLFcaVxAor8Dwvwy9G91AQdXSBDq+GseMfHUv69edfgRfQMeMCFDYFn+ZopYsv5m5azBNOs2/alh5IWE9fxCTRa8LdHQ==);strokeColor=#282c33;spacingTop=-3;spacingBottom=-3;spacingLeft=-3;spacingRight=-3;points=[[0,0.5,0],[1,0.5,0],[0.5,1,0],[0.5,0,0]];labelBackgroundColor=none;rounded=1;html=1;whiteSpace=wrap;" parent="-43leVQ_KwWmYCP5Dvzr-74" vertex="1">
          <mxGeometry width="101" height="57" as="geometry" />
        </mxCell>
        <mxCell id="-43leVQ_KwWmYCP5Dvzr-76" value="&lt;div style=&quot;font-size: 1px&quot;&gt;&lt;p style=&quot;text-align:center;margin-left:0;margin-right:0;margin-top:0px;margin-bottom:0px;text-indent:0;vertical-align:middle;direction:ltr;&quot;&gt;&lt;font style=&quot;font-size:14.11px;font-family:Arial;color:#3a414a;direction:ltr;letter-spacing:0px;line-height:100%;opacity:1&quot;&gt;Financer la Zapadoslavie&lt;/font&gt;&lt;/p&gt;&lt;/div&gt;" style="text;vsdxID=56;fillColor=none;gradientColor=none;strokeColor=none;spacingTop=-3;spacingBottom=-3;spacingLeft=-3;spacingRight=-3;points=[[0,0.5,0],[1,0.5,0],[0.5,1,0],[0.5,0,0]];labelBackgroundColor=none;rounded=1;html=1;whiteSpace=wrap;verticalAlign=middle;align=center;overflow=width;;html=1;" parent="-43leVQ_KwWmYCP5Dvzr-74" vertex="1">
          <mxGeometry x="3.17" y="3.02" width="95.25" height="50.8" as="geometry" />
        </mxCell>
        <UserObject label="" tags="Arrière-plan" id="-43leVQ_KwWmYCP5Dvzr-77">
          <mxCell style="vsdxID=58;edgeStyle=none;startArrow=none;endArrow=block;startSize=5;endSize=5;strokeColor=#3a414a;spacingTop=-3;spacingBottom=-3;spacingLeft=-3;spacingRight=-3;verticalAlign=middle;html=1;labelBackgroundColor=none;rounded=1;" parent="1" edge="1">
            <mxGeometry relative="1" as="geometry">
              <mxPoint y="-1" as="offset" />
              <Array as="points" />
              <mxPoint x="1079" y="381" as="sourcePoint" />
              <mxPoint x="1079" y="431" as="targetPoint" />
            </mxGeometry>
          </mxCell>
        </UserObject>
        <UserObject label="" tags="Arrière-plan" id="-43leVQ_KwWmYCP5Dvzr-78">
          <mxCell style="vsdxID=59;fillColor=none;gradientColor=none;strokeColor=none;spacingTop=-3;spacingBottom=-3;spacingLeft=-3;spacingRight=-3;points=[[0,0.5,0],[1,0.5,0],[0.5,1,0],[0.5,0,0],[0.65,1.01,0]];labelBackgroundColor=none;rounded=1;html=1;whiteSpace=wrap;" parent="1" vertex="1">
            <mxGeometry x="1028" y="431" width="101" height="57" as="geometry" />
          </mxCell>
        </UserObject>
        <mxCell id="-43leVQ_KwWmYCP5Dvzr-79" style="vsdxID=60;fillColor=#ffffff;gradientColor=none;shape=stencil(lZNNboMwEIVP461lz0ANyypJL9AToOAEqwQih7Shpw9hjPwTqqis7DfvyZ+HMcPNpanOmoG4DLb/0j+mHhqGWwZgukZbM0wrhjuGm0Nv9dH2166m/bmanCBmRdeUkQ83iMruP82vJk1wlCqnAiVP/ffjxBvVleRFQeXRJebdB5n3V0tuScVC8Sxzdhn6xQ0chHDC6AQAjij8J9EFMA04ISt5WXoI8b7C4UNOUIq/qZgkZE3hlsPD6yc8/vDWdEHHoODLFcaVxAor8Dwvwy9G91AQdXSBDq+GseMfHUv69edfgRfQMeMCFDYFn+ZopYsv5m5azBNOs2/alh5IWE9fxCTRa8LdHQ==);strokeColor=#282c33;spacingTop=-3;spacingBottom=-3;spacingLeft=-3;spacingRight=-3;points=[[0,0.5,0],[1,0.5,0],[0.5,1,0],[0.5,0,0]];labelBackgroundColor=none;rounded=1;html=1;whiteSpace=wrap;" parent="-43leVQ_KwWmYCP5Dvzr-78" vertex="1">
          <mxGeometry width="101" height="57" as="geometry" />
        </mxCell>
        <mxCell id="-43leVQ_KwWmYCP5Dvzr-80" value="&lt;div style=&quot;font-size: 1px&quot;&gt;&lt;p style=&quot;text-align:center;margin-left:0;margin-right:0;margin-top:0px;margin-bottom:0px;text-indent:0;vertical-align:middle;direction:ltr;&quot;&gt;&lt;font style=&quot;font-size:14.11px;font-family:Arial;color:#3a414a;direction:ltr;letter-spacing:0px;line-height:100%;opacity:1&quot;&gt;Barrer la route des Italiens&lt;/font&gt;&lt;/p&gt;&lt;/div&gt;" style="text;vsdxID=59;fillColor=none;gradientColor=none;strokeColor=none;spacingTop=-3;spacingBottom=-3;spacingLeft=-3;spacingRight=-3;points=[[0,0.5,0],[1,0.5,0],[0.5,1,0],[0.5,0,0],[0.65,1.01,0]];labelBackgroundColor=none;rounded=1;html=1;whiteSpace=wrap;verticalAlign=middle;align=center;overflow=width;;html=1;" parent="-43leVQ_KwWmYCP5Dvzr-78" vertex="1">
          <mxGeometry x="3.17" y="3.02" width="95.25" height="50.8" as="geometry" />
        </mxCell>
        <UserObject label="" tags="Arrière-plan" id="-43leVQ_KwWmYCP5Dvzr-81">
          <mxCell style="vsdxID=61;edgeStyle=none;startArrow=none;endArrow=block;startSize=5;endSize=5;strokeColor=#3a414a;spacingTop=-3;spacingBottom=-3;spacingLeft=-3;spacingRight=-3;verticalAlign=middle;html=1;labelBackgroundColor=none;rounded=1;" parent="1" edge="1">
            <mxGeometry relative="1" as="geometry">
              <mxPoint y="-1" as="offset" />
              <Array as="points" />
              <mxPoint x="1308" y="381" as="sourcePoint" />
              <mxPoint x="1308" y="431" as="targetPoint" />
            </mxGeometry>
          </mxCell>
        </UserObject>
        <UserObject label="" tags="Arrière-plan" id="-43leVQ_KwWmYCP5Dvzr-82">
          <mxCell style="vsdxID=62;fillColor=none;gradientColor=none;strokeColor=none;spacingTop=-3;spacingBottom=-3;spacingLeft=-3;spacingRight=-3;points=[[0,0.5,0],[1,0.5,0],[0.5,1,0],[0.5,0,0]];labelBackgroundColor=none;rounded=1;html=1;whiteSpace=wrap;" parent="1" vertex="1">
            <mxGeometry x="1257" y="431" width="101" height="57" as="geometry" />
          </mxCell>
        </UserObject>
        <mxCell id="-43leVQ_KwWmYCP5Dvzr-83" style="vsdxID=63;fillColor=#ffffff;gradientColor=none;shape=stencil(lZNNboMwEIVP461lz0ANyypJL9AToOAEqwQih7Shpw9hjPwTqqis7DfvyZ+HMcPNpanOmoG4DLb/0j+mHhqGWwZgukZbM0wrhjuGm0Nv9dH2166m/bmanCBmRdeUkQ83iMruP82vJk1wlCqnAiVP/ffjxBvVleRFQeXRJebdB5n3V0tuScVC8Sxzdhn6xQ0chHDC6AQAjij8J9EFMA04ISt5WXoI8b7C4UNOUIq/qZgkZE3hlsPD6yc8/vDWdEHHoODLFcaVxAor8Dwvwy9G91AQdXSBDq+GseMfHUv69edfgRfQMeMCFDYFn+ZopYsv5m5azBNOs2/alh5IWE9fxCTRa8LdHQ==);strokeColor=#282c33;spacingTop=-3;spacingBottom=-3;spacingLeft=-3;spacingRight=-3;points=[[0,0.5,0],[1,0.5,0],[0.5,1,0],[0.5,0,0]];labelBackgroundColor=none;rounded=1;html=1;whiteSpace=wrap;" parent="-43leVQ_KwWmYCP5Dvzr-82" vertex="1">
          <mxGeometry width="101" height="57" as="geometry" />
        </mxCell>
        <mxCell id="-43leVQ_KwWmYCP5Dvzr-84" value="&lt;div style=&quot;font-size: 1px&quot;&gt;&lt;p style=&quot;text-align:center;margin-left:0;margin-right:0;margin-top:0px;margin-bottom:0px;text-indent:0;vertical-align:middle;direction:ltr;&quot;&gt;&lt;font style=&quot;font-size:14.11px;font-family:Arial;color:#3a414a;direction:ltr;letter-spacing:0px;line-height:100%;opacity:1&quot;&gt;Faire obstacle aux Allemands&lt;/font&gt;&lt;/p&gt;&lt;/div&gt;" style="text;vsdxID=62;fillColor=none;gradientColor=none;strokeColor=none;spacingTop=-3;spacingBottom=-3;spacingLeft=-3;spacingRight=-3;points=[[0,0.5,0],[1,0.5,0],[0.5,1,0],[0.5,0,0]];labelBackgroundColor=none;rounded=1;html=1;whiteSpace=wrap;verticalAlign=middle;align=center;overflow=width;;html=1;" parent="-43leVQ_KwWmYCP5Dvzr-82" vertex="1">
          <mxGeometry x="3.17" y="3.02" width="95.25" height="50.8" as="geometry" />
        </mxCell>
        <UserObject label="" tags="Arrière-plan" id="-43leVQ_KwWmYCP5Dvzr-85">
          <mxCell style="vsdxID=64;edgeStyle=none;startArrow=none;endArrow=block;startSize=5;endSize=5;strokeColor=#3a414a;spacingTop=-3;spacingBottom=-3;spacingLeft=-3;spacingRight=-3;verticalAlign=middle;html=1;labelBackgroundColor=none;rounded=1;" parent="1" edge="1">
            <mxGeometry relative="1" as="geometry">
              <mxPoint x="-1" as="offset" />
              <Array as="points">
                <mxPoint x="1308" y="522.29" />
                <mxPoint x="1193.7" y="522.29" />
              </Array>
              <mxPoint x="1308" y="488" as="sourcePoint" />
              <mxPoint x="1193" y="558" as="targetPoint" />
            </mxGeometry>
          </mxCell>
        </UserObject>
        <UserObject label="" tags="Arrière-plan" id="-43leVQ_KwWmYCP5Dvzr-86">
          <mxCell style="vsdxID=65;fillColor=none;gradientColor=none;strokeColor=none;spacingTop=-3;spacingBottom=-3;spacingLeft=-3;spacingRight=-3;points=[[0,0.5,0],[1,0.5,0],[0.5,1,0],[0.5,0,0],[0.47,-0.21,0]];labelBackgroundColor=none;rounded=1;html=1;whiteSpace=wrap;" parent="1" vertex="1">
            <mxGeometry x="1143" y="558" width="101" height="57" as="geometry" />
          </mxCell>
        </UserObject>
        <mxCell id="-43leVQ_KwWmYCP5Dvzr-87" style="vsdxID=66;fillColor=#ffffff;gradientColor=none;shape=stencil(lZNNboMwEIVP461lz0ANyypJL9AToOAEqwQih7Shpw9hjPwTqqis7DfvyZ+HMcPNpanOmoG4DLb/0j+mHhqGWwZgukZbM0wrhjuGm0Nv9dH2166m/bmanCBmRdeUkQ83iMruP82vJk1wlCqnAiVP/ffjxBvVleRFQeXRJebdB5n3V0tuScVC8Sxzdhn6xQ0chHDC6AQAjij8J9EFMA04ISt5WXoI8b7C4UNOUIq/qZgkZE3hlsPD6yc8/vDWdEHHoODLFcaVxAor8Dwvwy9G91AQdXSBDq+GseMfHUv69edfgRfQMeMCFDYFn+ZopYsv5m5azBNOs2/alh5IWE9fxCTRa8LdHQ==);strokeColor=#282c33;spacingTop=-3;spacingBottom=-3;spacingLeft=-3;spacingRight=-3;points=[[0,0.5,0],[1,0.5,0],[0.5,1,0],[0.5,0,0]];labelBackgroundColor=none;rounded=1;html=1;whiteSpace=wrap;" parent="-43leVQ_KwWmYCP5Dvzr-86" vertex="1">
          <mxGeometry width="101" height="57" as="geometry" />
        </mxCell>
        <mxCell id="-43leVQ_KwWmYCP5Dvzr-88" value="&lt;div style=&quot;font-size: 1px&quot;&gt;&lt;p style=&quot;text-align:center;margin-left:0;margin-right:0;margin-top:0px;margin-bottom:0px;text-indent:0;vertical-align:middle;direction:ltr;&quot;&gt;&lt;font style=&quot;font-size:14.11px;font-family:Arial;color:#3a414a;direction:ltr;letter-spacing:0px;line-height:100%;opacity:1&quot;&gt;Mettre fin à l&amp;prime;ours rouge&lt;/font&gt;&lt;/p&gt;&lt;/div&gt;" style="text;vsdxID=65;fillColor=none;gradientColor=none;strokeColor=none;spacingTop=-3;spacingBottom=-3;spacingLeft=-3;spacingRight=-3;points=[[0,0.5,0],[1,0.5,0],[0.5,1,0],[0.5,0,0],[0.47,-0.21,0]];labelBackgroundColor=none;rounded=1;html=1;whiteSpace=wrap;verticalAlign=middle;align=center;overflow=width;;html=1;" parent="-43leVQ_KwWmYCP5Dvzr-86" vertex="1">
          <mxGeometry x="3.17" y="3.02" width="95.25" height="50.8" as="geometry" />
        </mxCell>
        <UserObject label="" tags="Arrière-plan" id="-43leVQ_KwWmYCP5Dvzr-89">
          <mxCell style="vsdxID=67;edgeStyle=none;startArrow=none;endArrow=block;startSize=5;endSize=5;strokeColor=#3a414a;spacingTop=-3;spacingBottom=-3;spacingLeft=-3;spacingRight=-3;verticalAlign=middle;html=1;labelBackgroundColor=none;rounded=1;" parent="1" edge="1">
            <mxGeometry relative="1" as="geometry">
              <mxPoint x="-1" as="offset" />
              <Array as="points">
                <mxPoint x="1099" y="523.29" />
                <mxPoint x="1193.62" y="523.29" />
              </Array>
              <mxPoint x="1099" y="489" as="sourcePoint" />
              <mxPoint x="1193" y="558" as="targetPoint" />
            </mxGeometry>
          </mxCell>
        </UserObject>
        <UserObject label="" tags="Arrière-plan" id="-43leVQ_KwWmYCP5Dvzr-91">
          <mxCell style="vsdxID=69;fillColor=none;gradientColor=none;strokeColor=none;spacingTop=-3;spacingBottom=-3;spacingLeft=-3;spacingRight=-3;points=[[0,0.5,0],[1,0.5,0],[0.5,1,0],[0.5,0,0]];labelBackgroundColor=none;rounded=1;html=1;whiteSpace=wrap;" parent="1" vertex="1">
            <mxGeometry x="1660" y="120" width="101" height="57" as="geometry" />
          </mxCell>
        </UserObject>
        <mxCell id="-43leVQ_KwWmYCP5Dvzr-92" style="vsdxID=70;fillColor=#ffffff;gradientColor=none;shape=stencil(lZNNboMwEIVP461lz0ANyypJL9AToOAEqwQih7Shpw9hjPwTqqis7DfvyZ+HMcPNpanOmoG4DLb/0j+mHhqGWwZgukZbM0wrhjuGm0Nv9dH2166m/bmanCBmRdeUkQ83iMruP82vJk1wlCqnAiVP/ffjxBvVleRFQeXRJebdB5n3V0tuScVC8Sxzdhn6xQ0chHDC6AQAjij8J9EFMA04ISt5WXoI8b7C4UNOUIq/qZgkZE3hlsPD6yc8/vDWdEHHoODLFcaVxAor8Dwvwy9G91AQdXSBDq+GseMfHUv69edfgRfQMeMCFDYFn+ZopYsv5m5azBNOs2/alh5IWE9fxCTRa8LdHQ==);strokeColor=#282c33;spacingTop=-3;spacingBottom=-3;spacingLeft=-3;spacingRight=-3;points=[[0,0.5,0],[1,0.5,0],[0.5,1,0],[0.5,0,0]];labelBackgroundColor=none;rounded=1;html=1;whiteSpace=wrap;" parent="-43leVQ_KwWmYCP5Dvzr-91" vertex="1">
          <mxGeometry width="101" height="57" as="geometry" />
        </mxCell>
        <mxCell id="-43leVQ_KwWmYCP5Dvzr-93" value="&lt;div style=&quot;font-size: 1px&quot;&gt;&lt;p style=&quot;text-align:center;margin-left:0;margin-right:0;margin-top:0px;margin-bottom:0px;text-indent:0;vertical-align:middle;direction:ltr;&quot;&gt;&lt;font style=&quot;font-size:14.11px;font-family:Arial;color:#3a414a;direction:ltr;letter-spacing:0px;line-height:100%;opacity:1&quot;&gt;La France, maître du continent !&lt;/font&gt;&lt;/p&gt;&lt;/div&gt;" style="text;vsdxID=69;fillColor=none;gradientColor=none;strokeColor=none;spacingTop=-3;spacingBottom=-3;spacingLeft=-3;spacingRight=-3;points=[[0,0.5,0],[1,0.5,0],[0.5,1,0],[0.5,0,0]];labelBackgroundColor=none;rounded=1;html=1;whiteSpace=wrap;verticalAlign=middle;align=center;overflow=width;;html=1;" parent="-43leVQ_KwWmYCP5Dvzr-91" vertex="1">
          <mxGeometry x="3.17" y="3.02" width="95.25" height="50.8" as="geometry" />
        </mxCell>
        <UserObject label="" tags="Arrière-plan" id="-43leVQ_KwWmYCP5Dvzr-96">
          <mxCell style="vsdxID=73;fillColor=none;gradientColor=none;strokeColor=none;spacingTop=-3;spacingBottom=-3;spacingLeft=-3;spacingRight=-3;points=[[0,0.5,0],[1,0.5,0],[0.5,1,0],[0.5,0,0]];labelBackgroundColor=none;rounded=1;html=1;whiteSpace=wrap;" parent="1" vertex="1">
            <mxGeometry x="1536" y="230" width="101" height="57" as="geometry" />
          </mxCell>
        </UserObject>
        <mxCell id="-43leVQ_KwWmYCP5Dvzr-97" style="vsdxID=74;fillColor=#ffffff;gradientColor=none;shape=stencil(lZNNboMwEIVP461lz0ANyypJL9AToOAEqwQih7Shpw9hjPwTqqis7DfvyZ+HMcPNpanOmoG4DLb/0j+mHhqGWwZgukZbM0wrhjuGm0Nv9dH2166m/bmanCBmRdeUkQ83iMruP82vJk1wlCqnAiVP/ffjxBvVleRFQeXRJebdB5n3V0tuScVC8Sxzdhn6xQ0chHDC6AQAjij8J9EFMA04ISt5WXoI8b7C4UNOUIq/qZgkZE3hlsPD6yc8/vDWdEHHoODLFcaVxAor8Dwvwy9G91AQdXSBDq+GseMfHUv69edfgRfQMeMCFDYFn+ZopYsv5m5azBNOs2/alh5IWE9fxCTRa8LdHQ==);strokeColor=#282c33;spacingTop=-3;spacingBottom=-3;spacingLeft=-3;spacingRight=-3;points=[[0,0.5,0],[1,0.5,0],[0.5,1,0],[0.5,0,0]];labelBackgroundColor=none;rounded=1;html=1;whiteSpace=wrap;" parent="-43leVQ_KwWmYCP5Dvzr-96" vertex="1">
          <mxGeometry width="101" height="57" as="geometry" />
        </mxCell>
        <mxCell id="-43leVQ_KwWmYCP5Dvzr-98" value="&lt;div style=&quot;font-size: 1px&quot;&gt;&lt;p style=&quot;text-align:center;margin-left:0;margin-right:0;margin-top:0px;margin-bottom:0px;text-indent:0;vertical-align:middle;direction:ltr;&quot;&gt;&lt;font style=&quot;font-size:14.11px;font-family:Arial;color:#3a414a;direction:ltr;letter-spacing:0px;line-height:100%;opacity:1&quot;&gt;Réaffirmer Versailles&lt;/font&gt;&lt;/p&gt;&lt;/div&gt;" style="text;vsdxID=73;fillColor=none;gradientColor=none;strokeColor=none;spacingTop=-3;spacingBottom=-3;spacingLeft=-3;spacingRight=-3;points=[[0,0.5,0],[1,0.5,0],[0.5,1,0],[0.5,0,0]];labelBackgroundColor=none;rounded=1;html=1;whiteSpace=wrap;verticalAlign=middle;align=center;overflow=width;;html=1;" parent="-43leVQ_KwWmYCP5Dvzr-96" vertex="1">
          <mxGeometry x="3.17" y="3.02" width="95.25" height="50.8" as="geometry" />
        </mxCell>
        <UserObject label="" tags="Arrière-plan" id="-43leVQ_KwWmYCP5Dvzr-100">
          <mxCell style="vsdxID=76;fillColor=none;gradientColor=none;strokeColor=none;spacingTop=-3;spacingBottom=-3;spacingLeft=-3;spacingRight=-3;points=[[0,0.5,0],[1,0.5,0],[0.5,1,0],[0.5,0,0]];labelBackgroundColor=none;rounded=1;html=1;whiteSpace=wrap;" parent="1" vertex="1">
            <mxGeometry x="1790" y="230" width="101" height="57" as="geometry" />
          </mxCell>
        </UserObject>
        <mxCell id="-43leVQ_KwWmYCP5Dvzr-101" style="vsdxID=77;fillColor=#ffffff;gradientColor=none;shape=stencil(lZNNboMwEIVP461lz0ANyypJL9AToOAEqwQih7Shpw9hjPwTqqis7DfvyZ+HMcPNpanOmoG4DLb/0j+mHhqGWwZgukZbM0wrhjuGm0Nv9dH2166m/bmanCBmRdeUkQ83iMruP82vJk1wlCqnAiVP/ffjxBvVleRFQeXRJebdB5n3V0tuScVC8Sxzdhn6xQ0chHDC6AQAjij8J9EFMA04ISt5WXoI8b7C4UNOUIq/qZgkZE3hlsPD6yc8/vDWdEHHoODLFcaVxAor8Dwvwy9G91AQdXSBDq+GseMfHUv69edfgRfQMeMCFDYFn+ZopYsv5m5azBNOs2/alh5IWE9fxCTRa8LdHQ==);strokeColor=#282c33;spacingTop=-3;spacingBottom=-3;spacingLeft=-3;spacingRight=-3;points=[[0,0.5,0],[1,0.5,0],[0.5,1,0],[0.5,0,0]];labelBackgroundColor=none;rounded=1;html=1;whiteSpace=wrap;" parent="-43leVQ_KwWmYCP5Dvzr-100" vertex="1">
          <mxGeometry width="101" height="57" as="geometry" />
        </mxCell>
        <mxCell id="-43leVQ_KwWmYCP5Dvzr-102" value="&lt;div style=&quot;&quot;&gt;&lt;p style=&quot;text-align: center; margin: 0px; text-indent: 0px; vertical-align: middle; direction: ltr;&quot;&gt;&lt;font face=&quot;Arial&quot; color=&quot;#3a414a&quot;&gt;&lt;span style=&quot;font-size: 14.11px;&quot;&gt;Subventionner Peugeot&lt;/span&gt;&lt;/font&gt;&lt;/p&gt;&lt;/div&gt;" style="text;vsdxID=76;fillColor=none;gradientColor=none;strokeColor=none;spacingTop=-3;spacingBottom=-3;spacingLeft=-3;spacingRight=-3;points=[[0,0.5,0],[1,0.5,0],[0.5,1,0],[0.5,0,0]];labelBackgroundColor=none;rounded=1;html=1;whiteSpace=wrap;verticalAlign=middle;align=center;overflow=width;;html=1;" parent="-43leVQ_KwWmYCP5Dvzr-100" vertex="1">
          <mxGeometry x="3.17" y="3.02" width="95.25" height="50.8" as="geometry" />
        </mxCell>
        <UserObject label="" tags="Arrière-plan" id="-43leVQ_KwWmYCP5Dvzr-104">
          <mxCell style="vsdxID=79;fillColor=none;gradientColor=none;strokeColor=none;spacingTop=-3;spacingBottom=-3;spacingLeft=-3;spacingRight=-3;points=[[0,0.5,0],[1,0.5,0],[0.5,1,0],[0.5,0,0]];labelBackgroundColor=none;rounded=1;html=1;whiteSpace=wrap;" parent="1" vertex="1">
            <mxGeometry x="1536" y="323" width="101" height="57" as="geometry" />
          </mxCell>
        </UserObject>
        <mxCell id="-43leVQ_KwWmYCP5Dvzr-105" style="vsdxID=80;fillColor=#ffffff;gradientColor=none;shape=stencil(lZNNboMwEIVP461lz0ANyypJL9AToOAEqwQih7Shpw9hjPwTqqis7DfvyZ+HMcPNpanOmoG4DLb/0j+mHhqGWwZgukZbM0wrhjuGm0Nv9dH2166m/bmanCBmRdeUkQ83iMruP82vJk1wlCqnAiVP/ffjxBvVleRFQeXRJebdB5n3V0tuScVC8Sxzdhn6xQ0chHDC6AQAjij8J9EFMA04ISt5WXoI8b7C4UNOUIq/qZgkZE3hlsPD6yc8/vDWdEHHoODLFcaVxAor8Dwvwy9G91AQdXSBDq+GseMfHUv69edfgRfQMeMCFDYFn+ZopYsv5m5azBNOs2/alh5IWE9fxCTRa8LdHQ==);strokeColor=#282c33;spacingTop=-3;spacingBottom=-3;spacingLeft=-3;spacingRight=-3;points=[[0,0.5,0],[1,0.5,0],[0.5,1,0],[0.5,0,0]];labelBackgroundColor=none;rounded=1;html=1;whiteSpace=wrap;" parent="-43leVQ_KwWmYCP5Dvzr-104" vertex="1">
          <mxGeometry width="101" height="57" as="geometry" />
        </mxCell>
        <mxCell id="-43leVQ_KwWmYCP5Dvzr-106" value="&lt;div style=&quot;font-size: 1px&quot;&gt;&lt;p style=&quot;text-align:center;margin-left:0;margin-right:0;margin-top:0px;margin-bottom:0px;text-indent:0;vertical-align:middle;direction:ltr;&quot;&gt;&lt;font style=&quot;font-size:14.11px;font-family:Arial;color:#3a414a;direction:ltr;letter-spacing:0px;line-height:100%;opacity:1&quot;&gt;Protéger la Belgique&lt;/font&gt;&lt;/p&gt;&lt;/div&gt;" style="text;vsdxID=79;fillColor=none;gradientColor=none;strokeColor=none;spacingTop=-3;spacingBottom=-3;spacingLeft=-3;spacingRight=-3;points=[[0,0.5,0],[1,0.5,0],[0.5,1,0],[0.5,0,0]];labelBackgroundColor=none;rounded=1;html=1;whiteSpace=wrap;verticalAlign=middle;align=center;overflow=width;;html=1;" parent="-43leVQ_KwWmYCP5Dvzr-104" vertex="1">
          <mxGeometry x="3.17" y="3.02" width="95.25" height="50.8" as="geometry" />
        </mxCell>
        <UserObject label="" tags="Arrière-plan" id="-43leVQ_KwWmYCP5Dvzr-107">
          <mxCell style="vsdxID=81;edgeStyle=none;startArrow=none;endArrow=block;startSize=5;endSize=5;strokeColor=#3a414a;spacingTop=-3;spacingBottom=-3;spacingLeft=-3;spacingRight=-3;verticalAlign=middle;html=1;labelBackgroundColor=none;rounded=1;" parent="1" edge="1">
            <mxGeometry relative="1" as="geometry">
              <mxPoint y="-1" as="offset" />
              <Array as="points" />
              <mxPoint x="1587" y="381" as="sourcePoint" />
              <mxPoint x="1587" y="431" as="targetPoint" />
            </mxGeometry>
          </mxCell>
        </UserObject>
        <mxCell id="NtC6nbSk1421t6tspnrx-39" value="" style="edgeStyle=orthogonalEdgeStyle;rounded=0;orthogonalLoop=1;jettySize=auto;html=1;" edge="1" parent="1" source="-43leVQ_KwWmYCP5Dvzr-108" target="NtC6nbSk1421t6tspnrx-36">
          <mxGeometry relative="1" as="geometry" />
        </mxCell>
        <UserObject label="" tags="Arrière-plan" id="-43leVQ_KwWmYCP5Dvzr-108">
          <mxCell style="vsdxID=82;fillColor=none;gradientColor=none;strokeColor=none;spacingTop=-3;spacingBottom=-3;spacingLeft=-3;spacingRight=-3;points=[[0,0.5,0],[1,0.5,0],[0.5,1,0],[0.5,0,0]];labelBackgroundColor=none;rounded=1;html=1;whiteSpace=wrap;" parent="1" vertex="1">
            <mxGeometry x="1536" y="431" width="101" height="57" as="geometry" />
          </mxCell>
        </UserObject>
        <mxCell id="-43leVQ_KwWmYCP5Dvzr-109" style="vsdxID=83;fillColor=#ffffff;gradientColor=none;shape=stencil(lZNNboMwEIVP461lz0ANyypJL9AToOAEqwQih7Shpw9hjPwTqqis7DfvyZ+HMcPNpanOmoG4DLb/0j+mHhqGWwZgukZbM0wrhjuGm0Nv9dH2166m/bmanCBmRdeUkQ83iMruP82vJk1wlCqnAiVP/ffjxBvVleRFQeXRJebdB5n3V0tuScVC8Sxzdhn6xQ0chHDC6AQAjij8J9EFMA04ISt5WXoI8b7C4UNOUIq/qZgkZE3hlsPD6yc8/vDWdEHHoODLFcaVxAor8Dwvwy9G91AQdXSBDq+GseMfHUv69edfgRfQMeMCFDYFn+ZopYsv5m5azBNOs2/alh5IWE9fxCTRa8LdHQ==);strokeColor=#282c33;spacingTop=-3;spacingBottom=-3;spacingLeft=-3;spacingRight=-3;points=[[0,0.5,0],[1,0.5,0],[0.5,1,0],[0.5,0,0]];labelBackgroundColor=none;rounded=1;html=1;whiteSpace=wrap;" parent="-43leVQ_KwWmYCP5Dvzr-108" vertex="1">
          <mxGeometry width="101" height="57" as="geometry" />
        </mxCell>
        <mxCell id="-43leVQ_KwWmYCP5Dvzr-110" value="&lt;div style=&quot;font-size: 1px&quot;&gt;&lt;p style=&quot;text-align:center;margin-left:0;margin-right:0;margin-top:0px;margin-bottom:0px;text-indent:0;vertical-align:middle;direction:ltr;&quot;&gt;&lt;font style=&quot;font-size:14.11px;font-family:Arial;color:#3a414a;direction:ltr;letter-spacing:0px;line-height:100%;opacity:1&quot;&gt;Saisir les actifs allemands&lt;/font&gt;&lt;/p&gt;&lt;/div&gt;" style="text;vsdxID=82;fillColor=none;gradientColor=none;strokeColor=none;spacingTop=-3;spacingBottom=-3;spacingLeft=-3;spacingRight=-3;points=[[0,0.5,0],[1,0.5,0],[0.5,1,0],[0.5,0,0]];labelBackgroundColor=none;rounded=1;html=1;whiteSpace=wrap;verticalAlign=middle;align=center;overflow=width;;html=1;" parent="-43leVQ_KwWmYCP5Dvzr-108" vertex="1">
          <mxGeometry x="3.17" y="3.02" width="95.25" height="50.8" as="geometry" />
        </mxCell>
        <UserObject label="" tags="Arrière-plan" id="-43leVQ_KwWmYCP5Dvzr-111">
          <mxCell style="vsdxID=84;edgeStyle=none;startArrow=none;endArrow=block;startSize=5;endSize=5;strokeColor=#3a414a;spacingTop=-3;spacingBottom=-3;spacingLeft=-3;spacingRight=-3;verticalAlign=middle;html=1;labelBackgroundColor=none;rounded=1;" parent="1" edge="1">
            <mxGeometry relative="1" as="geometry">
              <mxPoint y="-1" as="offset" />
              <Array as="points" />
              <mxPoint x="1841" y="273" as="sourcePoint" />
              <mxPoint x="1841" y="323" as="targetPoint" />
            </mxGeometry>
          </mxCell>
        </UserObject>
        <mxCell id="NtC6nbSk1421t6tspnrx-28" value="" style="edgeStyle=orthogonalEdgeStyle;rounded=0;orthogonalLoop=1;jettySize=auto;html=1;" edge="1" parent="1" source="-43leVQ_KwWmYCP5Dvzr-112" target="NtC6nbSk1421t6tspnrx-25">
          <mxGeometry relative="1" as="geometry" />
        </mxCell>
        <UserObject label="" tags="Arrière-plan" id="-43leVQ_KwWmYCP5Dvzr-112">
          <mxCell style="vsdxID=85;fillColor=none;gradientColor=none;strokeColor=none;spacingTop=-3;spacingBottom=-3;spacingLeft=-3;spacingRight=-3;points=[[0,0.5,0],[1,0.5,0],[0.5,1,0],[0.5,0,0]];labelBackgroundColor=none;rounded=1;html=1;whiteSpace=wrap;" parent="1" vertex="1">
            <mxGeometry x="1790" y="323" width="101" height="57" as="geometry" />
          </mxCell>
        </UserObject>
        <mxCell id="-43leVQ_KwWmYCP5Dvzr-113" style="vsdxID=86;fillColor=#ffffff;gradientColor=none;shape=stencil(lZNNboMwEIVP461lz0ANyypJL9AToOAEqwQih7Shpw9hjPwTqqis7DfvyZ+HMcPNpanOmoG4DLb/0j+mHhqGWwZgukZbM0wrhjuGm0Nv9dH2166m/bmanCBmRdeUkQ83iMruP82vJk1wlCqnAiVP/ffjxBvVleRFQeXRJebdB5n3V0tuScVC8Sxzdhn6xQ0chHDC6AQAjij8J9EFMA04ISt5WXoI8b7C4UNOUIq/qZgkZE3hlsPD6yc8/vDWdEHHoODLFcaVxAor8Dwvwy9G91AQdXSBDq+GseMfHUv69edfgRfQMeMCFDYFn+ZopYsv5m5azBNOs2/alh5IWE9fxCTRa8LdHQ==);strokeColor=#282c33;spacingTop=-3;spacingBottom=-3;spacingLeft=-3;spacingRight=-3;points=[[0,0.5,0],[1,0.5,0],[0.5,1,0],[0.5,0,0]];labelBackgroundColor=none;rounded=1;html=1;whiteSpace=wrap;" parent="-43leVQ_KwWmYCP5Dvzr-112" vertex="1">
          <mxGeometry width="101" height="57" as="geometry" />
        </mxCell>
        <mxCell id="-43leVQ_KwWmYCP5Dvzr-114" value="&lt;div style=&quot;font-size: 1px&quot;&gt;&lt;p style=&quot;text-align:center;margin-left:0;margin-right:0;margin-top:0px;margin-bottom:0px;text-indent:0;vertical-align:middle;direction:ltr;&quot;&gt;&lt;font style=&quot;font-size:14.11px;font-family:Arial;color:#3a414a;direction:ltr;letter-spacing:0px;line-height:100%;opacity:1&quot;&gt;Technologie Citroën&lt;/font&gt;&lt;/p&gt;&lt;/div&gt;" style="text;vsdxID=85;fillColor=none;gradientColor=none;strokeColor=none;spacingTop=-3;spacingBottom=-3;spacingLeft=-3;spacingRight=-3;points=[[0,0.5,0],[1,0.5,0],[0.5,1,0],[0.5,0,0]];labelBackgroundColor=none;rounded=1;html=1;whiteSpace=wrap;verticalAlign=middle;align=center;overflow=width;;html=1;" parent="-43leVQ_KwWmYCP5Dvzr-112" vertex="1">
          <mxGeometry x="3.17" y="3.02" width="95.25" height="50.8" as="geometry" />
        </mxCell>
        <mxCell id="NtC6nbSk1421t6tspnrx-2" style="edgeStyle=orthogonalEdgeStyle;rounded=0;orthogonalLoop=1;jettySize=auto;html=1;exitX=0;exitY=0.5;exitDx=0;exitDy=0;exitPerimeter=0;entryX=1;entryY=0.5;entryDx=0;entryDy=0;entryPerimeter=0;" edge="1" parent="1" source="-43leVQ_KwWmYCP5Dvzr-21" target="-43leVQ_KwWmYCP5Dvzr-23">
          <mxGeometry relative="1" as="geometry" />
        </mxCell>
        <mxCell id="NtC6nbSk1421t6tspnrx-3" style="edgeStyle=orthogonalEdgeStyle;rounded=0;orthogonalLoop=1;jettySize=auto;html=1;exitX=0;exitY=0.5;exitDx=0;exitDy=0;exitPerimeter=0;entryX=0.5;entryY=0;entryDx=0;entryDy=0;entryPerimeter=0;" edge="1" parent="1" source="-43leVQ_KwWmYCP5Dvzr-23" target="-43leVQ_KwWmYCP5Dvzr-32">
          <mxGeometry relative="1" as="geometry" />
        </mxCell>
        <mxCell id="NtC6nbSk1421t6tspnrx-4" style="edgeStyle=orthogonalEdgeStyle;rounded=0;orthogonalLoop=1;jettySize=auto;html=1;exitX=0.5;exitY=1;exitDx=0;exitDy=0;exitPerimeter=0;entryX=0.5;entryY=0;entryDx=0;entryDy=0;entryPerimeter=0;" edge="1" parent="1" source="-43leVQ_KwWmYCP5Dvzr-25" target="-43leVQ_KwWmYCP5Dvzr-58">
          <mxGeometry relative="1" as="geometry" />
        </mxCell>
        <mxCell id="NtC6nbSk1421t6tspnrx-5" style="edgeStyle=orthogonalEdgeStyle;rounded=0;orthogonalLoop=1;jettySize=auto;html=1;exitX=0.5;exitY=1;exitDx=0;exitDy=0;exitPerimeter=0;entryX=0.5;entryY=0;entryDx=0;entryDy=0;entryPerimeter=0;" edge="1" parent="1" source="-43leVQ_KwWmYCP5Dvzr-25" target="-43leVQ_KwWmYCP5Dvzr-91">
          <mxGeometry relative="1" as="geometry" />
        </mxCell>
        <mxCell id="NtC6nbSk1421t6tspnrx-6" style="edgeStyle=orthogonalEdgeStyle;rounded=0;orthogonalLoop=1;jettySize=auto;html=1;exitX=0.5;exitY=1;exitDx=0;exitDy=0;exitPerimeter=0;entryX=0.5;entryY=0;entryDx=0;entryDy=0;entryPerimeter=0;" edge="1" parent="1" source="-43leVQ_KwWmYCP5Dvzr-91" target="-43leVQ_KwWmYCP5Dvzr-96">
          <mxGeometry relative="1" as="geometry" />
        </mxCell>
        <mxCell id="NtC6nbSk1421t6tspnrx-7" style="edgeStyle=orthogonalEdgeStyle;rounded=0;orthogonalLoop=1;jettySize=auto;html=1;exitX=0.5;exitY=1;exitDx=0;exitDy=0;exitPerimeter=0;entryX=0.5;entryY=0;entryDx=0;entryDy=0;entryPerimeter=0;" edge="1" parent="1" source="-43leVQ_KwWmYCP5Dvzr-93" target="-43leVQ_KwWmYCP5Dvzr-100">
          <mxGeometry relative="1" as="geometry" />
        </mxCell>
        <mxCell id="NtC6nbSk1421t6tspnrx-8" style="edgeStyle=orthogonalEdgeStyle;rounded=0;orthogonalLoop=1;jettySize=auto;html=1;exitX=0.5;exitY=1;exitDx=0;exitDy=0;exitPerimeter=0;entryX=0.5;entryY=0;entryDx=0;entryDy=0;entryPerimeter=0;" edge="1" parent="1" source="-43leVQ_KwWmYCP5Dvzr-32" target="-43leVQ_KwWmYCP5Dvzr-50">
          <mxGeometry relative="1" as="geometry" />
        </mxCell>
        <mxCell id="NtC6nbSk1421t6tspnrx-11" style="edgeStyle=orthogonalEdgeStyle;rounded=0;orthogonalLoop=1;jettySize=auto;html=1;exitX=0.5;exitY=1;exitDx=0;exitDy=0;exitPerimeter=0;entryX=0.5;entryY=0;entryDx=0;entryDy=0;entryPerimeter=0;" edge="1" parent="1" source="-43leVQ_KwWmYCP5Dvzr-38" target="-43leVQ_KwWmYCP5Dvzr-46">
          <mxGeometry relative="1" as="geometry" />
        </mxCell>
        <mxCell id="NtC6nbSk1421t6tspnrx-12" style="edgeStyle=orthogonalEdgeStyle;rounded=0;orthogonalLoop=1;jettySize=auto;html=1;exitX=0.5;exitY=1;exitDx=0;exitDy=0;exitPerimeter=0;entryX=0.5;entryY=0;entryDx=0;entryDy=0;entryPerimeter=0;" edge="1" parent="1" source="-43leVQ_KwWmYCP5Dvzr-40" target="-43leVQ_KwWmYCP5Dvzr-43">
          <mxGeometry relative="1" as="geometry" />
        </mxCell>
        <mxCell id="NtC6nbSk1421t6tspnrx-13" style="edgeStyle=orthogonalEdgeStyle;rounded=0;orthogonalLoop=1;jettySize=auto;html=1;exitX=0.5;exitY=1;exitDx=0;exitDy=0;exitPerimeter=0;entryX=0.5;entryY=0;entryDx=0;entryDy=0;entryPerimeter=0;" edge="1" parent="1" source="-43leVQ_KwWmYCP5Dvzr-12" target="-43leVQ_KwWmYCP5Dvzr-21">
          <mxGeometry relative="1" as="geometry" />
        </mxCell>
        <mxCell id="NtC6nbSk1421t6tspnrx-15" style="edgeStyle=orthogonalEdgeStyle;rounded=0;orthogonalLoop=1;jettySize=auto;html=1;exitX=0.5;exitY=1;exitDx=0;exitDy=0;exitPerimeter=0;entryX=0.5;entryY=0;entryDx=0;entryDy=0;entryPerimeter=0;" edge="1" parent="1" source="-43leVQ_KwWmYCP5Dvzr-10" target="-43leVQ_KwWmYCP5Dvzr-12">
          <mxGeometry relative="1" as="geometry" />
        </mxCell>
        <UserObject label="" tags="Arrière-plan" id="NtC6nbSk1421t6tspnrx-16">
          <mxCell style="vsdxID=9;fillColor=none;gradientColor=none;strokeColor=none;spacingTop=-3;spacingBottom=-3;spacingLeft=-3;spacingRight=-3;points=[[0,0.5,0],[1,0.5,0],[0.5,1,0],[0.5,0,0]];labelBackgroundColor=none;rounded=1;html=1;whiteSpace=wrap;" vertex="1" parent="1">
            <mxGeometry x="2200" y="-120" width="101" height="57" as="geometry" />
          </mxCell>
        </UserObject>
        <mxCell id="NtC6nbSk1421t6tspnrx-17" style="vsdxID=10;fillColor=#ffffff;gradientColor=none;shape=stencil(lZNNboMwEIVP461lz0ANyypJL9AToOAEqwQih7Shpw9hjPwTqqis7DfvyZ+HMcPNpanOmoG4DLb/0j+mHhqGWwZgukZbM0wrhjuGm0Nv9dH2166m/bmanCBmRdeUkQ83iMruP82vJk1wlCqnAiVP/ffjxBvVleRFQeXRJebdB5n3V0tuScVC8Sxzdhn6xQ0chHDC6AQAjij8J9EFMA04ISt5WXoI8b7C4UNOUIq/qZgkZE3hlsPD6yc8/vDWdEHHoODLFcaVxAor8Dwvwy9G91AQdXSBDq+GseMfHUv69edfgRfQMeMCFDYFn+ZopYsv5m5azBNOs2/alh5IWE9fxCTRa8LdHQ==);strokeColor=#282c33;spacingTop=-3;spacingBottom=-3;spacingLeft=-3;spacingRight=-3;points=[[0,0.5,0],[1,0.5,0],[0.5,1,0],[0.5,0,0]];labelBackgroundColor=none;rounded=1;html=1;whiteSpace=wrap;" vertex="1" parent="NtC6nbSk1421t6tspnrx-16">
          <mxGeometry width="101" height="57" as="geometry" />
        </mxCell>
        <mxCell id="NtC6nbSk1421t6tspnrx-18" value="&lt;div style=&quot;font-size: 1px&quot;&gt;&lt;p style=&quot;text-align:center;margin-left:0;margin-right:0;margin-top:0px;margin-bottom:0px;text-indent:0;vertical-align:middle;direction:ltr;&quot;&gt;&lt;font style=&quot;font-size:14.11px;font-family:Arial;color:#3a414a;direction:ltr;letter-spacing:0px;line-height:100%;opacity:1&quot;&gt;Ni communisme, ni nazisme !&lt;/font&gt;&lt;/p&gt;&lt;/div&gt;" style="text;vsdxID=9;fillColor=none;gradientColor=none;strokeColor=none;spacingTop=-3;spacingBottom=-3;spacingLeft=-3;spacingRight=-3;points=[[0,0.5,0],[1,0.5,0],[0.5,1,0],[0.5,0,0]];labelBackgroundColor=none;rounded=1;html=1;whiteSpace=wrap;verticalAlign=middle;align=center;overflow=width;;html=1;" vertex="1" parent="NtC6nbSk1421t6tspnrx-16">
          <mxGeometry x="3.17" y="3.02" width="95.25" height="50.8" as="geometry" />
        </mxCell>
        <mxCell id="NtC6nbSk1421t6tspnrx-20" style="edgeStyle=orthogonalEdgeStyle;rounded=0;orthogonalLoop=1;jettySize=auto;html=1;exitX=0.5;exitY=1;exitDx=0;exitDy=0;exitPerimeter=0;entryX=0.5;entryY=0;entryDx=0;entryDy=0;entryPerimeter=0;" edge="1" parent="1" source="-43leVQ_KwWmYCP5Dvzr-98" target="-43leVQ_KwWmYCP5Dvzr-104">
          <mxGeometry relative="1" as="geometry" />
        </mxCell>
        <mxCell id="NtC6nbSk1421t6tspnrx-21" style="edgeStyle=orthogonalEdgeStyle;rounded=0;orthogonalLoop=1;jettySize=auto;html=1;exitX=1;exitY=0.5;exitDx=0;exitDy=0;exitPerimeter=0;entryX=0;entryY=0.5;entryDx=0;entryDy=0;entryPerimeter=0;" edge="1" parent="1" source="-43leVQ_KwWmYCP5Dvzr-12" target="NtC6nbSk1421t6tspnrx-17">
          <mxGeometry relative="1" as="geometry" />
        </mxCell>
        <mxCell id="NtC6nbSk1421t6tspnrx-32" value="" style="edgeStyle=orthogonalEdgeStyle;rounded=0;orthogonalLoop=1;jettySize=auto;html=1;" edge="1" parent="1" source="NtC6nbSk1421t6tspnrx-25" target="NtC6nbSk1421t6tspnrx-29">
          <mxGeometry relative="1" as="geometry" />
        </mxCell>
        <UserObject label="" tags="Arrière-plan" id="NtC6nbSk1421t6tspnrx-25">
          <mxCell style="vsdxID=85;fillColor=none;gradientColor=none;strokeColor=none;spacingTop=-3;spacingBottom=-3;spacingLeft=-3;spacingRight=-3;points=[[0,0.5,0],[1,0.5,0],[0.5,1,0],[0.5,0,0]];labelBackgroundColor=none;rounded=1;html=1;whiteSpace=wrap;" vertex="1" parent="1">
            <mxGeometry x="1790" y="431" width="101" height="57" as="geometry" />
          </mxCell>
        </UserObject>
        <mxCell id="NtC6nbSk1421t6tspnrx-26" style="vsdxID=86;fillColor=#ffffff;gradientColor=none;shape=stencil(lZNNboMwEIVP461lz0ANyypJL9AToOAEqwQih7Shpw9hjPwTqqis7DfvyZ+HMcPNpanOmoG4DLb/0j+mHhqGWwZgukZbM0wrhjuGm0Nv9dH2166m/bmanCBmRdeUkQ83iMruP82vJk1wlCqnAiVP/ffjxBvVleRFQeXRJebdB5n3V0tuScVC8Sxzdhn6xQ0chHDC6AQAjij8J9EFMA04ISt5WXoI8b7C4UNOUIq/qZgkZE3hlsPD6yc8/vDWdEHHoODLFcaVxAor8Dwvwy9G91AQdXSBDq+GseMfHUv69edfgRfQMeMCFDYFn+ZopYsv5m5azBNOs2/alh5IWE9fxCTRa8LdHQ==);strokeColor=#282c33;spacingTop=-3;spacingBottom=-3;spacingLeft=-3;spacingRight=-3;points=[[0,0.5,0],[1,0.5,0],[0.5,1,0],[0.5,0,0]];labelBackgroundColor=none;rounded=1;html=1;whiteSpace=wrap;" vertex="1" parent="NtC6nbSk1421t6tspnrx-25">
          <mxGeometry width="101" height="57" as="geometry" />
        </mxCell>
        <mxCell id="NtC6nbSk1421t6tspnrx-27" value="&lt;div style=&quot;&quot;&gt;&lt;p style=&quot;text-align: center; margin: 0px; text-indent: 0px; vertical-align: middle; direction: ltr;&quot;&gt;&lt;font face=&quot;Arial&quot; color=&quot;#3a414a&quot;&gt;&lt;span style=&quot;font-size: 14.11px;&quot;&gt;&quot;Superviser&quot; Renault&lt;/span&gt;&lt;/font&gt;&lt;/p&gt;&lt;/div&gt;" style="text;vsdxID=85;fillColor=none;gradientColor=none;strokeColor=none;spacingTop=-3;spacingBottom=-3;spacingLeft=-3;spacingRight=-3;points=[[0,0.5,0],[1,0.5,0],[0.5,1,0],[0.5,0,0]];labelBackgroundColor=none;rounded=1;html=1;whiteSpace=wrap;verticalAlign=middle;align=center;overflow=width;;html=1;" vertex="1" parent="NtC6nbSk1421t6tspnrx-25">
          <mxGeometry x="3.17" y="3.02" width="95.25" height="50.8" as="geometry" />
        </mxCell>
        <UserObject label="" tags="Arrière-plan" id="NtC6nbSk1421t6tspnrx-29">
          <mxCell style="vsdxID=85;fillColor=none;gradientColor=none;strokeColor=none;spacingTop=-3;spacingBottom=-3;spacingLeft=-3;spacingRight=-3;points=[[0,0.5,0],[1,0.5,0],[0.5,1,0],[0.5,0,0]];labelBackgroundColor=none;rounded=1;html=1;whiteSpace=wrap;" vertex="1" parent="1">
            <mxGeometry x="1790" y="540" width="101" height="57" as="geometry" />
          </mxCell>
        </UserObject>
        <mxCell id="NtC6nbSk1421t6tspnrx-30" style="vsdxID=86;fillColor=#ffffff;gradientColor=none;shape=stencil(lZNNboMwEIVP461lz0ANyypJL9AToOAEqwQih7Shpw9hjPwTqqis7DfvyZ+HMcPNpanOmoG4DLb/0j+mHhqGWwZgukZbM0wrhjuGm0Nv9dH2166m/bmanCBmRdeUkQ83iMruP82vJk1wlCqnAiVP/ffjxBvVleRFQeXRJebdB5n3V0tuScVC8Sxzdhn6xQ0chHDC6AQAjij8J9EFMA04ISt5WXoI8b7C4UNOUIq/qZgkZE3hlsPD6yc8/vDWdEHHoODLFcaVxAor8Dwvwy9G91AQdXSBDq+GseMfHUv69edfgRfQMeMCFDYFn+ZopYsv5m5azBNOs2/alh5IWE9fxCTRa8LdHQ==);strokeColor=#282c33;spacingTop=-3;spacingBottom=-3;spacingLeft=-3;spacingRight=-3;points=[[0,0.5,0],[1,0.5,0],[0.5,1,0],[0.5,0,0]];labelBackgroundColor=none;rounded=1;html=1;whiteSpace=wrap;" vertex="1" parent="NtC6nbSk1421t6tspnrx-29">
          <mxGeometry width="101" height="57" as="geometry" />
        </mxCell>
        <mxCell id="NtC6nbSk1421t6tspnrx-31" value="&lt;div style=&quot;&quot;&gt;&lt;p style=&quot;text-align: center; margin: 0px; text-indent: 0px; vertical-align: middle; direction: ltr;&quot;&gt;&lt;font face=&quot;Arial&quot; color=&quot;#3a414a&quot;&gt;&lt;span style=&quot;font-size: 14.11px;&quot;&gt;Mettre fin aux avions&amp;nbsp;&lt;/span&gt;&lt;/font&gt;&lt;/p&gt;&lt;/div&gt;" style="text;vsdxID=85;fillColor=none;gradientColor=none;strokeColor=none;spacingTop=-3;spacingBottom=-3;spacingLeft=-3;spacingRight=-3;points=[[0,0.5,0],[1,0.5,0],[0.5,1,0],[0.5,0,0]];labelBackgroundColor=none;rounded=1;html=1;whiteSpace=wrap;verticalAlign=middle;align=center;overflow=width;;html=1;" vertex="1" parent="NtC6nbSk1421t6tspnrx-29">
          <mxGeometry x="3.17" y="3.02" width="95.25" height="50.8" as="geometry" />
        </mxCell>
        <UserObject label="" tags="Arrière-plan" id="NtC6nbSk1421t6tspnrx-33">
          <mxCell style="vsdxID=4;fillColor=none;gradientColor=none;strokeColor=none;spacingTop=-3;spacingBottom=-3;spacingLeft=-3;spacingRight=-3;points=[[0,0.5,0],[1,0.5,0],[0.5,1,0],[0.5,0,0]];labelBackgroundColor=none;rounded=1;html=1;whiteSpace=wrap;" vertex="1" parent="1">
            <mxGeometry x="-670" y="-30" width="101" height="50" as="geometry" />
          </mxCell>
        </UserObject>
        <mxCell id="NtC6nbSk1421t6tspnrx-34" style="vsdxID=5;fillColor=#ffffff;gradientColor=none;shape=stencil(jZNNDoIwEIVP023TzkSBpfHnAp6ASJVGBFNRwdOLTJG2opFV++ZN5uvLwHB5ydOzYiAutamO6q6zOme4YgC6zJXRdXdiuGa43FdGHUx1LTO6n9POCaJXVEY98uUGkZrdVj8UaYKjjGZUoM5TdXtNbKg+1Fpr728bcu6uhqySinHMYzujla5fNGAJhBVaKwBwjBLns+MaDBusMHMIxGICYuywQhTxOfgYLmhINkx+PzwgGScXunSCAj8ozz5BKblMfM6RALzsBkL3Heg7/s0mSOZr+PAJ6TMNABCE9DuiX7vUHfqVpWXWRUEb79bDFe8k+j1w/QQ=);strokeColor=#282c33;spacingTop=-3;spacingBottom=-3;spacingLeft=-3;spacingRight=-3;points=[[0,0.5,0],[1,0.5,0],[0.5,1,0],[0.5,0,0]];labelBackgroundColor=none;rounded=1;html=1;whiteSpace=wrap;" vertex="1" parent="NtC6nbSk1421t6tspnrx-33">
          <mxGeometry width="101" height="50" as="geometry" />
        </mxCell>
        <mxCell id="NtC6nbSk1421t6tspnrx-35" value="&lt;div style=&quot;&quot;&gt;&lt;p style=&quot;text-align: center; margin: 0px; text-indent: 0px; vertical-align: middle; direction: ltr;&quot;&gt;&lt;font face=&quot;Arial&quot; color=&quot;#3a414a&quot;&gt;&lt;span style=&quot;font-size: 14.11px;&quot;&gt;Rêve de Charlemagne&lt;/span&gt;&lt;/font&gt;&lt;/p&gt;&lt;/div&gt;" style="text;vsdxID=4;fillColor=none;gradientColor=none;strokeColor=none;spacingTop=-3;spacingBottom=-3;spacingLeft=-3;spacingRight=-3;points=[[0,0.5,0],[1,0.5,0],[0.5,1,0],[0.5,0,0]];labelBackgroundColor=none;rounded=1;html=1;whiteSpace=wrap;verticalAlign=middle;align=center;overflow=width;;html=1;" vertex="1" parent="NtC6nbSk1421t6tspnrx-33">
          <mxGeometry x="3.17" y="2.38" width="95.25" height="44.45" as="geometry" />
        </mxCell>
        <UserObject label="" tags="Arrière-plan" id="NtC6nbSk1421t6tspnrx-36">
          <mxCell style="vsdxID=82;fillColor=none;gradientColor=none;strokeColor=none;spacingTop=-3;spacingBottom=-3;spacingLeft=-3;spacingRight=-3;points=[[0,0.5,0],[1,0.5,0],[0.5,1,0],[0.5,0,0]];labelBackgroundColor=none;rounded=1;html=1;whiteSpace=wrap;" vertex="1" parent="1">
            <mxGeometry x="1536" y="540" width="101" height="57" as="geometry" />
          </mxCell>
        </UserObject>
        <mxCell id="NtC6nbSk1421t6tspnrx-37" style="vsdxID=83;fillColor=#ffffff;gradientColor=none;shape=stencil(lZNNboMwEIVP461lz0ANyypJL9AToOAEqwQih7Shpw9hjPwTqqis7DfvyZ+HMcPNpanOmoG4DLb/0j+mHhqGWwZgukZbM0wrhjuGm0Nv9dH2166m/bmanCBmRdeUkQ83iMruP82vJk1wlCqnAiVP/ffjxBvVleRFQeXRJebdB5n3V0tuScVC8Sxzdhn6xQ0chHDC6AQAjij8J9EFMA04ISt5WXoI8b7C4UNOUIq/qZgkZE3hlsPD6yc8/vDWdEHHoODLFcaVxAor8Dwvwy9G91AQdXSBDq+GseMfHUv69edfgRfQMeMCFDYFn+ZopYsv5m5azBNOs2/alh5IWE9fxCTRa8LdHQ==);strokeColor=#282c33;spacingTop=-3;spacingBottom=-3;spacingLeft=-3;spacingRight=-3;points=[[0,0.5,0],[1,0.5,0],[0.5,1,0],[0.5,0,0]];labelBackgroundColor=none;rounded=1;html=1;whiteSpace=wrap;" vertex="1" parent="NtC6nbSk1421t6tspnrx-36">
          <mxGeometry width="101" height="57" as="geometry" />
        </mxCell>
        <mxCell id="NtC6nbSk1421t6tspnrx-38" value="&lt;div style=&quot;font-size: 1px&quot;&gt;&lt;p style=&quot;text-align:center;margin-left:0;margin-right:0;margin-top:0px;margin-bottom:0px;text-indent:0;vertical-align:middle;direction:ltr;&quot;&gt;&lt;font style=&quot;font-size:14.11px;font-family:Arial;color:#3a414a;direction:ltr;letter-spacing:0px;line-height:100%;opacity:1&quot;&gt;Détourner l&#39;or des espagnols&lt;/font&gt;&lt;/p&gt;&lt;/div&gt;" style="text;vsdxID=82;fillColor=none;gradientColor=none;strokeColor=none;spacingTop=-3;spacingBottom=-3;spacingLeft=-3;spacingRight=-3;points=[[0,0.5,0],[1,0.5,0],[0.5,1,0],[0.5,0,0]];labelBackgroundColor=none;rounded=1;html=1;whiteSpace=wrap;verticalAlign=middle;align=center;overflow=width;;html=1;" vertex="1" parent="NtC6nbSk1421t6tspnrx-36">
          <mxGeometry x="3.17" y="3.02" width="95.25" height="50.8" as="geometry" />
        </mxCell>
        <UserObject label="" tags="Arrière-plan" id="NtC6nbSk1421t6tspnrx-40">
          <mxCell style="vsdxID=4;fillColor=none;gradientColor=none;strokeColor=none;spacingTop=-3;spacingBottom=-3;spacingLeft=-3;spacingRight=-3;points=[[0,0.5,0],[1,0.5,0],[0.5,1,0],[0.5,0,0]];labelBackgroundColor=none;rounded=1;html=1;whiteSpace=wrap;" vertex="1" parent="1">
            <mxGeometry x="-670" y="40" width="101" height="50" as="geometry" />
          </mxCell>
        </UserObject>
        <mxCell id="NtC6nbSk1421t6tspnrx-41" style="vsdxID=5;fillColor=#ffffff;gradientColor=none;shape=stencil(jZNNDoIwEIVP023TzkSBpfHnAp6ASJVGBFNRwdOLTJG2opFV++ZN5uvLwHB5ydOzYiAutamO6q6zOme4YgC6zJXRdXdiuGa43FdGHUx1LTO6n9POCaJXVEY98uUGkZrdVj8UaYKjjGZUoM5TdXtNbKg+1Fpr728bcu6uhqySinHMYzujla5fNGAJhBVaKwBwjBLns+MaDBusMHMIxGICYuywQhTxOfgYLmhINkx+PzwgGScXunSCAj8ozz5BKblMfM6RALzsBkL3Heg7/s0mSOZr+PAJ6TMNABCE9DuiX7vUHfqVpWXWRUEb79bDFe8k+j1w/QQ=);strokeColor=#282c33;spacingTop=-3;spacingBottom=-3;spacingLeft=-3;spacingRight=-3;points=[[0,0.5,0],[1,0.5,0],[0.5,1,0],[0.5,0,0]];labelBackgroundColor=none;rounded=1;html=1;whiteSpace=wrap;" vertex="1" parent="NtC6nbSk1421t6tspnrx-40">
          <mxGeometry width="101" height="50" as="geometry" />
        </mxCell>
        <mxCell id="NtC6nbSk1421t6tspnrx-42" value="&lt;div style=&quot;&quot;&gt;&lt;p style=&quot;text-align: center; margin: 0px; text-indent: 0px; vertical-align: middle; direction: ltr;&quot;&gt;&lt;font face=&quot;Arial&quot; color=&quot;#3a414a&quot;&gt;&lt;span style=&quot;font-size: 14.11px;&quot;&gt;Evahir l&#39;Empire Mexicain&lt;/span&gt;&lt;/font&gt;&lt;/p&gt;&lt;/div&gt;" style="text;vsdxID=4;fillColor=none;gradientColor=none;strokeColor=none;spacingTop=-3;spacingBottom=-3;spacingLeft=-3;spacingRight=-3;points=[[0,0.5,0],[1,0.5,0],[0.5,1,0],[0.5,0,0]];labelBackgroundColor=none;rounded=1;html=1;whiteSpace=wrap;verticalAlign=middle;align=center;overflow=width;;html=1;" vertex="1" parent="NtC6nbSk1421t6tspnrx-40">
          <mxGeometry x="3.17" y="2.38" width="95.25" height="44.45" as="geometry" />
        </mxCell>
        <UserObject label="" tags="Arrière-plan" id="NtC6nbSk1421t6tspnrx-43">
          <mxCell style="vsdxID=4;fillColor=none;gradientColor=none;strokeColor=none;spacingTop=-3;spacingBottom=-3;spacingLeft=-3;spacingRight=-3;points=[[0,0.5,0],[1,0.5,0],[0.5,1,0],[0.5,0,0]];labelBackgroundColor=none;rounded=1;html=1;whiteSpace=wrap;" vertex="1" parent="1">
            <mxGeometry x="-670" y="110" width="101" height="50" as="geometry" />
          </mxCell>
        </UserObject>
        <mxCell id="NtC6nbSk1421t6tspnrx-44" style="vsdxID=5;fillColor=#ffffff;gradientColor=none;shape=stencil(jZNNDoIwEIVP023TzkSBpfHnAp6ASJVGBFNRwdOLTJG2opFV++ZN5uvLwHB5ydOzYiAutamO6q6zOme4YgC6zJXRdXdiuGa43FdGHUx1LTO6n9POCaJXVEY98uUGkZrdVj8UaYKjjGZUoM5TdXtNbKg+1Fpr728bcu6uhqySinHMYzujla5fNGAJhBVaKwBwjBLns+MaDBusMHMIxGICYuywQhTxOfgYLmhINkx+PzwgGScXunSCAj8ozz5BKblMfM6RALzsBkL3Heg7/s0mSOZr+PAJ6TMNABCE9DuiX7vUHfqVpWXWRUEb79bDFe8k+j1w/QQ=);strokeColor=#282c33;spacingTop=-3;spacingBottom=-3;spacingLeft=-3;spacingRight=-3;points=[[0,0.5,0],[1,0.5,0],[0.5,1,0],[0.5,0,0]];labelBackgroundColor=none;rounded=1;html=1;whiteSpace=wrap;" vertex="1" parent="NtC6nbSk1421t6tspnrx-43">
          <mxGeometry width="101" height="50" as="geometry" />
        </mxCell>
        <mxCell id="NtC6nbSk1421t6tspnrx-45" value="&lt;div style=&quot;&quot;&gt;&lt;p style=&quot;text-align: center; margin: 0px; text-indent: 0px; vertical-align: middle; direction: ltr;&quot;&gt;&lt;font face=&quot;Arial&quot; color=&quot;#3a414a&quot;&gt;&lt;span style=&quot;font-size: 14.11px;&quot;&gt;Charognard Américain&lt;/span&gt;&lt;/font&gt;&lt;/p&gt;&lt;/div&gt;" style="text;vsdxID=4;fillColor=none;gradientColor=none;strokeColor=none;spacingTop=-3;spacingBottom=-3;spacingLeft=-3;spacingRight=-3;points=[[0,0.5,0],[1,0.5,0],[0.5,1,0],[0.5,0,0]];labelBackgroundColor=none;rounded=1;html=1;whiteSpace=wrap;verticalAlign=middle;align=center;overflow=width;;html=1;" vertex="1" parent="NtC6nbSk1421t6tspnrx-43">
          <mxGeometry x="2.87" y="2.77" width="95.25" height="44.45" as="geometry" />
        </mxCell>
        <UserObject label="" tags="Arrière-plan" id="NtC6nbSk1421t6tspnrx-50">
          <mxCell style="vsdxID=82;fillColor=none;gradientColor=none;strokeColor=none;spacingTop=-3;spacingBottom=-3;spacingLeft=-3;spacingRight=-3;points=[[0,0.5,0],[1,0.5,0],[0.5,1,0],[0.5,0,0]];labelBackgroundColor=none;rounded=1;html=1;whiteSpace=wrap;" vertex="1" parent="1">
            <mxGeometry x="1660" y="680" width="101" height="57" as="geometry" />
          </mxCell>
        </UserObject>
        <mxCell id="NtC6nbSk1421t6tspnrx-51" style="vsdxID=83;fillColor=#ffffff;gradientColor=none;shape=stencil(lZNNboMwEIVP461lz0ANyypJL9AToOAEqwQih7Shpw9hjPwTqqis7DfvyZ+HMcPNpanOmoG4DLb/0j+mHhqGWwZgukZbM0wrhjuGm0Nv9dH2166m/bmanCBmRdeUkQ83iMruP82vJk1wlCqnAiVP/ffjxBvVleRFQeXRJebdB5n3V0tuScVC8Sxzdhn6xQ0chHDC6AQAjij8J9EFMA04ISt5WXoI8b7C4UNOUIq/qZgkZE3hlsPD6yc8/vDWdEHHoODLFcaVxAor8Dwvwy9G91AQdXSBDq+GseMfHUv69edfgRfQMeMCFDYFn+ZopYsv5m5azBNOs2/alh5IWE9fxCTRa8LdHQ==);strokeColor=#282c33;spacingTop=-3;spacingBottom=-3;spacingLeft=-3;spacingRight=-3;points=[[0,0.5,0],[1,0.5,0],[0.5,1,0],[0.5,0,0]];labelBackgroundColor=none;rounded=1;html=1;whiteSpace=wrap;" vertex="1" parent="NtC6nbSk1421t6tspnrx-50">
          <mxGeometry width="101" height="57" as="geometry" />
        </mxCell>
        <mxCell id="NtC6nbSk1421t6tspnrx-52" value="&lt;div style=&quot;font-size: 1px&quot;&gt;&lt;p style=&quot;text-align:center;margin-left:0;margin-right:0;margin-top:0px;margin-bottom:0px;text-indent:0;vertical-align:middle;direction:ltr;&quot;&gt;&lt;font style=&quot;font-size:14.11px;font-family:Arial;color:#3a414a;direction:ltr;letter-spacing:0px;line-height:100%;opacity:1&quot;&gt;Seconde Révolution Industrielle&lt;/font&gt;&lt;/p&gt;&lt;/div&gt;" style="text;vsdxID=82;fillColor=none;gradientColor=none;strokeColor=none;spacingTop=-3;spacingBottom=-3;spacingLeft=-3;spacingRight=-3;points=[[0,0.5,0],[1,0.5,0],[0.5,1,0],[0.5,0,0]];labelBackgroundColor=none;rounded=1;html=1;whiteSpace=wrap;verticalAlign=middle;align=center;overflow=width;;html=1;" vertex="1" parent="NtC6nbSk1421t6tspnrx-50">
          <mxGeometry x="3.17" y="3.02" width="95.25" height="50.8" as="geometry" />
        </mxCell>
        <mxCell id="NtC6nbSk1421t6tspnrx-55" style="edgeStyle=orthogonalEdgeStyle;rounded=0;orthogonalLoop=1;jettySize=auto;html=1;exitX=0.5;exitY=1;exitDx=0;exitDy=0;exitPerimeter=0;entryX=0.578;entryY=-0.014;entryDx=0;entryDy=0;entryPerimeter=0;" edge="1" parent="1" source="NtC6nbSk1421t6tspnrx-30" target="NtC6nbSk1421t6tspnrx-50">
          <mxGeometry relative="1" as="geometry" />
        </mxCell>
        <mxCell id="NtC6nbSk1421t6tspnrx-56" style="edgeStyle=orthogonalEdgeStyle;rounded=0;orthogonalLoop=1;jettySize=auto;html=1;exitX=0.5;exitY=1;exitDx=0;exitDy=0;exitPerimeter=0;entryX=0.402;entryY=-0.023;entryDx=0;entryDy=0;entryPerimeter=0;" edge="1" parent="1" source="NtC6nbSk1421t6tspnrx-38" target="NtC6nbSk1421t6tspnrx-51">
          <mxGeometry relative="1" as="geometry" />
        </mxCell>
        <UserObject label="" tags="Arrière-plan" id="NtC6nbSk1421t6tspnrx-57">
          <mxCell style="vsdxID=82;fillColor=none;gradientColor=none;strokeColor=none;spacingTop=-3;spacingBottom=-3;spacingLeft=-3;spacingRight=-3;points=[[0,0.5,0],[1,0.5,0],[0.5,1,0],[0.5,0,0]];labelBackgroundColor=none;rounded=1;html=1;whiteSpace=wrap;" vertex="1" parent="1">
            <mxGeometry x="1430" y="810" width="101" height="57" as="geometry" />
          </mxCell>
        </UserObject>
        <mxCell id="NtC6nbSk1421t6tspnrx-58" style="vsdxID=83;fillColor=#ffffff;gradientColor=none;shape=stencil(lZNNboMwEIVP461lz0ANyypJL9AToOAEqwQih7Shpw9hjPwTqqis7DfvyZ+HMcPNpanOmoG4DLb/0j+mHhqGWwZgukZbM0wrhjuGm0Nv9dH2166m/bmanCBmRdeUkQ83iMruP82vJk1wlCqnAiVP/ffjxBvVleRFQeXRJebdB5n3V0tuScVC8Sxzdhn6xQ0chHDC6AQAjij8J9EFMA04ISt5WXoI8b7C4UNOUIq/qZgkZE3hlsPD6yc8/vDWdEHHoODLFcaVxAor8Dwvwy9G91AQdXSBDq+GseMfHUv69edfgRfQMeMCFDYFn+ZopYsv5m5azBNOs2/alh5IWE9fxCTRa8LdHQ==);strokeColor=#282c33;spacingTop=-3;spacingBottom=-3;spacingLeft=-3;spacingRight=-3;points=[[0,0.5,0],[1,0.5,0],[0.5,1,0],[0.5,0,0]];labelBackgroundColor=none;rounded=1;html=1;whiteSpace=wrap;" vertex="1" parent="NtC6nbSk1421t6tspnrx-57">
          <mxGeometry width="101" height="57" as="geometry" />
        </mxCell>
        <mxCell id="NtC6nbSk1421t6tspnrx-59" value="&lt;div style=&quot;font-size: 1px&quot;&gt;&lt;p style=&quot;text-align:center;margin-left:0;margin-right:0;margin-top:0px;margin-bottom:0px;text-indent:0;vertical-align:middle;direction:ltr;&quot;&gt;&lt;font style=&quot;font-size:14.11px;font-family:Arial;color:#3a414a;direction:ltr;letter-spacing:0px;line-height:100%;opacity:1&quot;&gt;Focus sur l&#39;export&lt;/font&gt;&lt;/p&gt;&lt;/div&gt;" style="text;vsdxID=82;fillColor=none;gradientColor=none;strokeColor=none;spacingTop=-3;spacingBottom=-3;spacingLeft=-3;spacingRight=-3;points=[[0,0.5,0],[1,0.5,0],[0.5,1,0],[0.5,0,0]];labelBackgroundColor=none;rounded=1;html=1;whiteSpace=wrap;verticalAlign=middle;align=center;overflow=width;;html=1;" vertex="1" parent="NtC6nbSk1421t6tspnrx-57">
          <mxGeometry x="3.17" y="3.02" width="95.25" height="50.8" as="geometry" />
        </mxCell>
        <mxCell id="NtC6nbSk1421t6tspnrx-100" style="edgeStyle=orthogonalEdgeStyle;rounded=0;orthogonalLoop=1;jettySize=auto;html=1;exitX=0;exitY=0.5;exitDx=0;exitDy=0;exitPerimeter=0;" edge="1" parent="1" source="NtC6nbSk1421t6tspnrx-60">
          <mxGeometry relative="1" as="geometry">
            <mxPoint x="1590" y="900" as="targetPoint" />
          </mxGeometry>
        </mxCell>
        <UserObject label="" tags="Arrière-plan" id="NtC6nbSk1421t6tspnrx-60">
          <mxCell style="vsdxID=82;fillColor=none;gradientColor=none;strokeColor=none;spacingTop=-3;spacingBottom=-3;spacingLeft=-3;spacingRight=-3;points=[[0,0.5,0],[1,0.5,0],[0.5,1,0],[0.5,0,0]];labelBackgroundColor=none;rounded=1;html=1;whiteSpace=wrap;" vertex="1" parent="1">
            <mxGeometry x="1660" y="810" width="101" height="57" as="geometry" />
          </mxCell>
        </UserObject>
        <mxCell id="NtC6nbSk1421t6tspnrx-61" style="vsdxID=83;fillColor=#ffffff;gradientColor=none;shape=stencil(lZNNboMwEIVP461lz0ANyypJL9AToOAEqwQih7Shpw9hjPwTqqis7DfvyZ+HMcPNpanOmoG4DLb/0j+mHhqGWwZgukZbM0wrhjuGm0Nv9dH2166m/bmanCBmRdeUkQ83iMruP82vJk1wlCqnAiVP/ffjxBvVleRFQeXRJebdB5n3V0tuScVC8Sxzdhn6xQ0chHDC6AQAjij8J9EFMA04ISt5WXoI8b7C4UNOUIq/qZgkZE3hlsPD6yc8/vDWdEHHoODLFcaVxAor8Dwvwy9G91AQdXSBDq+GseMfHUv69edfgRfQMeMCFDYFn+ZopYsv5m5azBNOs2/alh5IWE9fxCTRa8LdHQ==);strokeColor=#282c33;spacingTop=-3;spacingBottom=-3;spacingLeft=-3;spacingRight=-3;points=[[0,0.5,0],[1,0.5,0],[0.5,1,0],[0.5,0,0]];labelBackgroundColor=none;rounded=1;html=1;whiteSpace=wrap;" vertex="1" parent="NtC6nbSk1421t6tspnrx-60">
          <mxGeometry width="101" height="57" as="geometry" />
        </mxCell>
        <mxCell id="NtC6nbSk1421t6tspnrx-62" value="&lt;div style=&quot;font-size: 1px&quot;&gt;&lt;p style=&quot;text-align:center;margin-left:0;margin-right:0;margin-top:0px;margin-bottom:0px;text-indent:0;vertical-align:middle;direction:ltr;&quot;&gt;&lt;font style=&quot;font-size:14.11px;font-family:Arial;color:#3a414a;direction:ltr;letter-spacing:0px;line-height:100%;opacity:1&quot;&gt;Adopter le protectionnisme&lt;/font&gt;&lt;/p&gt;&lt;/div&gt;" style="text;vsdxID=82;fillColor=none;gradientColor=none;strokeColor=none;spacingTop=-3;spacingBottom=-3;spacingLeft=-3;spacingRight=-3;points=[[0,0.5,0],[1,0.5,0],[0.5,1,0],[0.5,0,0]];labelBackgroundColor=none;rounded=1;html=1;whiteSpace=wrap;verticalAlign=middle;align=center;overflow=width;;html=1;" vertex="1" parent="NtC6nbSk1421t6tspnrx-60">
          <mxGeometry x="3.17" y="3.02" width="95.25" height="50.8" as="geometry" />
        </mxCell>
        <mxCell id="NtC6nbSk1421t6tspnrx-102" style="edgeStyle=orthogonalEdgeStyle;rounded=0;orthogonalLoop=1;jettySize=auto;html=1;exitX=0;exitY=0.5;exitDx=0;exitDy=0;exitPerimeter=0;" edge="1" parent="1" source="NtC6nbSk1421t6tspnrx-63">
          <mxGeometry relative="1" as="geometry">
            <mxPoint x="1830" y="900" as="targetPoint" />
          </mxGeometry>
        </mxCell>
        <UserObject label="" tags="Arrière-plan" id="NtC6nbSk1421t6tspnrx-63">
          <mxCell style="vsdxID=82;fillColor=none;gradientColor=none;strokeColor=none;spacingTop=-3;spacingBottom=-3;spacingLeft=-3;spacingRight=-3;points=[[0,0.5,0],[1,0.5,0],[0.5,1,0],[0.5,0,0]];labelBackgroundColor=none;rounded=1;html=1;whiteSpace=wrap;" vertex="1" parent="1">
            <mxGeometry x="1891" y="810" width="101" height="57" as="geometry" />
          </mxCell>
        </UserObject>
        <mxCell id="NtC6nbSk1421t6tspnrx-64" style="vsdxID=83;fillColor=#ffffff;gradientColor=none;shape=stencil(lZNNboMwEIVP461lz0ANyypJL9AToOAEqwQih7Shpw9hjPwTqqis7DfvyZ+HMcPNpanOmoG4DLb/0j+mHhqGWwZgukZbM0wrhjuGm0Nv9dH2166m/bmanCBmRdeUkQ83iMruP82vJk1wlCqnAiVP/ffjxBvVleRFQeXRJebdB5n3V0tuScVC8Sxzdhn6xQ0chHDC6AQAjij8J9EFMA04ISt5WXoI8b7C4UNOUIq/qZgkZE3hlsPD6yc8/vDWdEHHoODLFcaVxAor8Dwvwy9G91AQdXSBDq+GseMfHUv69edfgRfQMeMCFDYFn+ZopYsv5m5azBNOs2/alh5IWE9fxCTRa8LdHQ==);strokeColor=#282c33;spacingTop=-3;spacingBottom=-3;spacingLeft=-3;spacingRight=-3;points=[[0,0.5,0],[1,0.5,0],[0.5,1,0],[0.5,0,0]];labelBackgroundColor=none;rounded=1;html=1;whiteSpace=wrap;" vertex="1" parent="NtC6nbSk1421t6tspnrx-63">
          <mxGeometry width="101" height="57" as="geometry" />
        </mxCell>
        <mxCell id="NtC6nbSk1421t6tspnrx-65" value="&lt;div style=&quot;font-size: 1px&quot;&gt;&lt;p style=&quot;text-align:center;margin-left:0;margin-right:0;margin-top:0px;margin-bottom:0px;text-indent:0;vertical-align:middle;direction:ltr;&quot;&gt;&lt;font style=&quot;font-size:14.11px;font-family:Arial;color:#3a414a;direction:ltr;letter-spacing:0px;line-height:100%;opacity:1&quot;&gt;Continuer le libre-échange&lt;/font&gt;&lt;/p&gt;&lt;/div&gt;" style="text;vsdxID=82;fillColor=none;gradientColor=none;strokeColor=none;spacingTop=-3;spacingBottom=-3;spacingLeft=-3;spacingRight=-3;points=[[0,0.5,0],[1,0.5,0],[0.5,1,0],[0.5,0,0]];labelBackgroundColor=none;rounded=1;html=1;whiteSpace=wrap;verticalAlign=middle;align=center;overflow=width;;html=1;" vertex="1" parent="NtC6nbSk1421t6tspnrx-63">
          <mxGeometry x="3.17" y="3.02" width="95.25" height="50.8" as="geometry" />
        </mxCell>
        <UserObject label="" tags="Arrière-plan" id="NtC6nbSk1421t6tspnrx-67">
          <mxCell style="vsdxID=82;fillColor=none;gradientColor=none;strokeColor=none;spacingTop=-3;spacingBottom=-3;spacingLeft=-3;spacingRight=-3;points=[[0,0.5,0],[1,0.5,0],[0.5,1,0],[0.5,0,0]];labelBackgroundColor=none;rounded=1;html=1;whiteSpace=wrap;" vertex="1" parent="1">
            <mxGeometry x="-670" y="180" width="101" height="57" as="geometry" />
          </mxCell>
        </UserObject>
        <mxCell id="NtC6nbSk1421t6tspnrx-68" style="vsdxID=83;fillColor=#ffffff;gradientColor=none;shape=stencil(lZNNboMwEIVP461lz0ANyypJL9AToOAEqwQih7Shpw9hjPwTqqis7DfvyZ+HMcPNpanOmoG4DLb/0j+mHhqGWwZgukZbM0wrhjuGm0Nv9dH2166m/bmanCBmRdeUkQ83iMruP82vJk1wlCqnAiVP/ffjxBvVleRFQeXRJebdB5n3V0tuScVC8Sxzdhn6xQ0chHDC6AQAjij8J9EFMA04ISt5WXoI8b7C4UNOUIq/qZgkZE3hlsPD6yc8/vDWdEHHoODLFcaVxAor8Dwvwy9G91AQdXSBDq+GseMfHUv69edfgRfQMeMCFDYFn+ZopYsv5m5azBNOs2/alh5IWE9fxCTRa8LdHQ==);strokeColor=#282c33;spacingTop=-3;spacingBottom=-3;spacingLeft=-3;spacingRight=-3;points=[[0,0.5,0],[1,0.5,0],[0.5,1,0],[0.5,0,0]];labelBackgroundColor=none;rounded=1;html=1;whiteSpace=wrap;" vertex="1" parent="NtC6nbSk1421t6tspnrx-67">
          <mxGeometry width="101" height="57" as="geometry" />
        </mxCell>
        <mxCell id="NtC6nbSk1421t6tspnrx-69" value="&lt;div style=&quot;font-size: 1px&quot;&gt;&lt;p style=&quot;text-align:center;margin-left:0;margin-right:0;margin-top:0px;margin-bottom:0px;text-indent:0;vertical-align:middle;direction:ltr;&quot;&gt;&lt;font style=&quot;font-size:14.11px;font-family:Arial;color:#3a414a;direction:ltr;letter-spacing:0px;line-height:100%;opacity:1&quot;&gt;Réinstaurer les corporations&lt;/font&gt;&lt;/p&gt;&lt;/div&gt;" style="text;vsdxID=82;fillColor=none;gradientColor=none;strokeColor=none;spacingTop=-3;spacingBottom=-3;spacingLeft=-3;spacingRight=-3;points=[[0,0.5,0],[1,0.5,0],[0.5,1,0],[0.5,0,0]];labelBackgroundColor=none;rounded=1;html=1;whiteSpace=wrap;verticalAlign=middle;align=center;overflow=width;;html=1;" vertex="1" parent="NtC6nbSk1421t6tspnrx-67">
          <mxGeometry x="3.17" y="3.02" width="95.25" height="50.8" as="geometry" />
        </mxCell>
        <mxCell id="NtC6nbSk1421t6tspnrx-70" style="edgeStyle=orthogonalEdgeStyle;rounded=0;orthogonalLoop=1;jettySize=auto;html=1;exitX=0.5;exitY=1;exitDx=0;exitDy=0;exitPerimeter=0;entryX=0.5;entryY=0;entryDx=0;entryDy=0;entryPerimeter=0;" edge="1" parent="1" source="NtC6nbSk1421t6tspnrx-50" target="NtC6nbSk1421t6tspnrx-58">
          <mxGeometry relative="1" as="geometry" />
        </mxCell>
        <mxCell id="NtC6nbSk1421t6tspnrx-71" style="edgeStyle=orthogonalEdgeStyle;rounded=0;orthogonalLoop=1;jettySize=auto;html=1;exitX=0.5;exitY=1;exitDx=0;exitDy=0;exitPerimeter=0;entryX=0.502;entryY=-0.042;entryDx=0;entryDy=0;entryPerimeter=0;" edge="1" parent="1" source="NtC6nbSk1421t6tspnrx-51" target="NtC6nbSk1421t6tspnrx-61">
          <mxGeometry relative="1" as="geometry" />
        </mxCell>
        <mxCell id="NtC6nbSk1421t6tspnrx-72" style="edgeStyle=orthogonalEdgeStyle;rounded=0;orthogonalLoop=1;jettySize=auto;html=1;exitX=0.5;exitY=1;exitDx=0;exitDy=0;exitPerimeter=0;entryX=0.5;entryY=0;entryDx=0;entryDy=0;entryPerimeter=0;" edge="1" parent="1" source="NtC6nbSk1421t6tspnrx-51" target="NtC6nbSk1421t6tspnrx-64">
          <mxGeometry relative="1" as="geometry" />
        </mxCell>
        <UserObject label="" tags="Arrière-plan" id="NtC6nbSk1421t6tspnrx-73">
          <mxCell style="vsdxID=82;fillColor=none;gradientColor=none;strokeColor=none;spacingTop=-3;spacingBottom=-3;spacingLeft=-3;spacingRight=-3;points=[[0,0.5,0],[1,0.5,0],[0.5,1,0],[0.5,0,0]];labelBackgroundColor=none;rounded=1;html=1;whiteSpace=wrap;" vertex="1" parent="1">
            <mxGeometry x="1540" y="900" width="101" height="57" as="geometry" />
          </mxCell>
        </UserObject>
        <mxCell id="NtC6nbSk1421t6tspnrx-74" style="vsdxID=83;fillColor=#ffffff;gradientColor=none;shape=stencil(lZNNboMwEIVP461lz0ANyypJL9AToOAEqwQih7Shpw9hjPwTqqis7DfvyZ+HMcPNpanOmoG4DLb/0j+mHhqGWwZgukZbM0wrhjuGm0Nv9dH2166m/bmanCBmRdeUkQ83iMruP82vJk1wlCqnAiVP/ffjxBvVleRFQeXRJebdB5n3V0tuScVC8Sxzdhn6xQ0chHDC6AQAjij8J9EFMA04ISt5WXoI8b7C4UNOUIq/qZgkZE3hlsPD6yc8/vDWdEHHoODLFcaVxAor8Dwvwy9G91AQdXSBDq+GseMfHUv69edfgRfQMeMCFDYFn+ZopYsv5m5azBNOs2/alh5IWE9fxCTRa8LdHQ==);strokeColor=#282c33;spacingTop=-3;spacingBottom=-3;spacingLeft=-3;spacingRight=-3;points=[[0,0.5,0],[1,0.5,0],[0.5,1,0],[0.5,0,0]];labelBackgroundColor=none;rounded=1;html=1;whiteSpace=wrap;" vertex="1" parent="NtC6nbSk1421t6tspnrx-73">
          <mxGeometry width="101" height="57" as="geometry" />
        </mxCell>
        <mxCell id="NtC6nbSk1421t6tspnrx-75" value="&lt;div style=&quot;&quot;&gt;&lt;p style=&quot;text-align: center; margin: 0px; text-indent: 0px; vertical-align: middle; direction: ltr;&quot;&gt;&lt;font face=&quot;Arial&quot; color=&quot;#3a414a&quot;&gt;&lt;span style=&quot;font-size: 14.11px;&quot;&gt;Priorité Nationale&lt;/span&gt;&lt;/font&gt;&lt;/p&gt;&lt;/div&gt;" style="text;vsdxID=82;fillColor=none;gradientColor=none;strokeColor=none;spacingTop=-3;spacingBottom=-3;spacingLeft=-3;spacingRight=-3;points=[[0,0.5,0],[1,0.5,0],[0.5,1,0],[0.5,0,0]];labelBackgroundColor=none;rounded=1;html=1;whiteSpace=wrap;verticalAlign=middle;align=center;overflow=width;;html=1;" vertex="1" parent="NtC6nbSk1421t6tspnrx-73">
          <mxGeometry x="3.17" y="3.02" width="95.25" height="50.8" as="geometry" />
        </mxCell>
        <UserObject label="" tags="Arrière-plan" id="NtC6nbSk1421t6tspnrx-76">
          <mxCell style="vsdxID=82;fillColor=none;gradientColor=none;strokeColor=none;spacingTop=-3;spacingBottom=-3;spacingLeft=-3;spacingRight=-3;points=[[0,0.5,0],[1,0.5,0],[0.5,1,0],[0.5,0,0]];labelBackgroundColor=none;rounded=1;html=1;whiteSpace=wrap;" vertex="1" parent="1">
            <mxGeometry x="1780" y="900" width="101" height="57" as="geometry" />
          </mxCell>
        </UserObject>
        <mxCell id="NtC6nbSk1421t6tspnrx-77" style="vsdxID=83;fillColor=#ffffff;gradientColor=none;shape=stencil(lZNNboMwEIVP461lz0ANyypJL9AToOAEqwQih7Shpw9hjPwTqqis7DfvyZ+HMcPNpanOmoG4DLb/0j+mHhqGWwZgukZbM0wrhjuGm0Nv9dH2166m/bmanCBmRdeUkQ83iMruP82vJk1wlCqnAiVP/ffjxBvVleRFQeXRJebdB5n3V0tuScVC8Sxzdhn6xQ0chHDC6AQAjij8J9EFMA04ISt5WXoI8b7C4UNOUIq/qZgkZE3hlsPD6yc8/vDWdEHHoODLFcaVxAor8Dwvwy9G91AQdXSBDq+GseMfHUv69edfgRfQMeMCFDYFn+ZopYsv5m5azBNOs2/alh5IWE9fxCTRa8LdHQ==);strokeColor=#282c33;spacingTop=-3;spacingBottom=-3;spacingLeft=-3;spacingRight=-3;points=[[0,0.5,0],[1,0.5,0],[0.5,1,0],[0.5,0,0]];labelBackgroundColor=none;rounded=1;html=1;whiteSpace=wrap;" vertex="1" parent="NtC6nbSk1421t6tspnrx-76">
          <mxGeometry width="101" height="57" as="geometry" />
        </mxCell>
        <mxCell id="NtC6nbSk1421t6tspnrx-78" value="&lt;div style=&quot;&quot;&gt;&lt;p style=&quot;text-align: center; margin: 0px; text-indent: 0px; vertical-align: middle; direction: ltr;&quot;&gt;&lt;font face=&quot;Arial&quot; color=&quot;#3a414a&quot;&gt;&lt;span style=&quot;font-size: 14.11px;&quot;&gt;Augmenter la taxe sur l&#39;import&lt;/span&gt;&lt;/font&gt;&lt;/p&gt;&lt;/div&gt;" style="text;vsdxID=82;fillColor=none;gradientColor=none;strokeColor=none;spacingTop=-3;spacingBottom=-3;spacingLeft=-3;spacingRight=-3;points=[[0,0.5,0],[1,0.5,0],[0.5,1,0],[0.5,0,0]];labelBackgroundColor=none;rounded=1;html=1;whiteSpace=wrap;verticalAlign=middle;align=center;overflow=width;;html=1;" vertex="1" parent="NtC6nbSk1421t6tspnrx-76">
          <mxGeometry x="3.17" y="3.02" width="95.25" height="50.8" as="geometry" />
        </mxCell>
        <UserObject label="" tags="Arrière-plan" id="NtC6nbSk1421t6tspnrx-79">
          <mxCell style="vsdxID=82;fillColor=none;gradientColor=none;strokeColor=none;spacingTop=-3;spacingBottom=-3;spacingLeft=-3;spacingRight=-3;points=[[0,0.5,0],[1,0.5,0],[0.5,1,0],[0.5,0,0]];labelBackgroundColor=none;rounded=1;html=1;whiteSpace=wrap;" vertex="1" parent="1">
            <mxGeometry x="1660" y="900" width="101" height="57" as="geometry" />
          </mxCell>
        </UserObject>
        <mxCell id="NtC6nbSk1421t6tspnrx-80" style="vsdxID=83;fillColor=#ffffff;gradientColor=none;shape=stencil(lZNNboMwEIVP461lz0ANyypJL9AToOAEqwQih7Shpw9hjPwTqqis7DfvyZ+HMcPNpanOmoG4DLb/0j+mHhqGWwZgukZbM0wrhjuGm0Nv9dH2166m/bmanCBmRdeUkQ83iMruP82vJk1wlCqnAiVP/ffjxBvVleRFQeXRJebdB5n3V0tuScVC8Sxzdhn6xQ0chHDC6AQAjij8J9EFMA04ISt5WXoI8b7C4UNOUIq/qZgkZE3hlsPD6yc8/vDWdEHHoODLFcaVxAor8Dwvwy9G91AQdXSBDq+GseMfHUv69edfgRfQMeMCFDYFn+ZopYsv5m5azBNOs2/alh5IWE9fxCTRa8LdHQ==);strokeColor=#282c33;spacingTop=-3;spacingBottom=-3;spacingLeft=-3;spacingRight=-3;points=[[0,0.5,0],[1,0.5,0],[0.5,1,0],[0.5,0,0]];labelBackgroundColor=none;rounded=1;html=1;whiteSpace=wrap;" vertex="1" parent="NtC6nbSk1421t6tspnrx-79">
          <mxGeometry width="101" height="57" as="geometry" />
        </mxCell>
        <mxCell id="NtC6nbSk1421t6tspnrx-81" value="&lt;div style=&quot;font-size: 1px&quot;&gt;&lt;p style=&quot;text-align:center;margin-left:0;margin-right:0;margin-top:0px;margin-bottom:0px;text-indent:0;vertical-align:middle;direction:ltr;&quot;&gt;&lt;font style=&quot;font-size:14.11px;font-family:Arial;color:#3a414a;direction:ltr;letter-spacing:0px;line-height:100%;opacity:1&quot;&gt;Puissance agricole&lt;/font&gt;&lt;/p&gt;&lt;/div&gt;" style="text;vsdxID=82;fillColor=none;gradientColor=none;strokeColor=none;spacingTop=-3;spacingBottom=-3;spacingLeft=-3;spacingRight=-3;points=[[0,0.5,0],[1,0.5,0],[0.5,1,0],[0.5,0,0]];labelBackgroundColor=none;rounded=1;html=1;whiteSpace=wrap;verticalAlign=middle;align=center;overflow=width;;html=1;" vertex="1" parent="NtC6nbSk1421t6tspnrx-79">
          <mxGeometry x="3.17" y="3.02" width="95.25" height="50.8" as="geometry" />
        </mxCell>
        <UserObject label="" tags="Arrière-plan" id="NtC6nbSk1421t6tspnrx-82">
          <mxCell style="vsdxID=82;fillColor=none;gradientColor=none;strokeColor=none;spacingTop=-3;spacingBottom=-3;spacingLeft=-3;spacingRight=-3;points=[[0,0.5,0],[1,0.5,0],[0.5,1,0],[0.5,0,0]];labelBackgroundColor=none;rounded=1;html=1;whiteSpace=wrap;" vertex="1" parent="1">
            <mxGeometry x="1430" y="900" width="101" height="57" as="geometry" />
          </mxCell>
        </UserObject>
        <mxCell id="NtC6nbSk1421t6tspnrx-83" style="vsdxID=83;fillColor=#ffffff;gradientColor=none;shape=stencil(lZNNboMwEIVP461lz0ANyypJL9AToOAEqwQih7Shpw9hjPwTqqis7DfvyZ+HMcPNpanOmoG4DLb/0j+mHhqGWwZgukZbM0wrhjuGm0Nv9dH2166m/bmanCBmRdeUkQ83iMruP82vJk1wlCqnAiVP/ffjxBvVleRFQeXRJebdB5n3V0tuScVC8Sxzdhn6xQ0chHDC6AQAjij8J9EFMA04ISt5WXoI8b7C4UNOUIq/qZgkZE3hlsPD6yc8/vDWdEHHoODLFcaVxAor8Dwvwy9G91AQdXSBDq+GseMfHUv69edfgRfQMeMCFDYFn+ZopYsv5m5azBNOs2/alh5IWE9fxCTRa8LdHQ==);strokeColor=#282c33;spacingTop=-3;spacingBottom=-3;spacingLeft=-3;spacingRight=-3;points=[[0,0.5,0],[1,0.5,0],[0.5,1,0],[0.5,0,0]];labelBackgroundColor=none;rounded=1;html=1;whiteSpace=wrap;" vertex="1" parent="NtC6nbSk1421t6tspnrx-82">
          <mxGeometry width="101" height="57" as="geometry" />
        </mxCell>
        <mxCell id="NtC6nbSk1421t6tspnrx-84" value="&lt;div style=&quot;font-size: 1px&quot;&gt;&lt;p style=&quot;text-align:center;margin-left:0;margin-right:0;margin-top:0px;margin-bottom:0px;text-indent:0;vertical-align:middle;direction:ltr;&quot;&gt;&lt;font style=&quot;font-size:14.11px;font-family:Arial;color:#3a414a;direction:ltr;letter-spacing:0px;line-height:100%;opacity:1&quot;&gt;Miracle économique français&lt;/font&gt;&lt;/p&gt;&lt;/div&gt;" style="text;vsdxID=82;fillColor=none;gradientColor=none;strokeColor=none;spacingTop=-3;spacingBottom=-3;spacingLeft=-3;spacingRight=-3;points=[[0,0.5,0],[1,0.5,0],[0.5,1,0],[0.5,0,0]];labelBackgroundColor=none;rounded=1;html=1;whiteSpace=wrap;verticalAlign=middle;align=center;overflow=width;;html=1;" vertex="1" parent="NtC6nbSk1421t6tspnrx-82">
          <mxGeometry x="3.17" y="3.02" width="95.25" height="50.8" as="geometry" />
        </mxCell>
        <UserObject label="" tags="Arrière-plan" id="NtC6nbSk1421t6tspnrx-85">
          <mxCell style="vsdxID=82;fillColor=none;gradientColor=none;strokeColor=none;spacingTop=-3;spacingBottom=-3;spacingLeft=-3;spacingRight=-3;points=[[0,0.5,0],[1,0.5,0],[0.5,1,0],[0.5,0,0]];labelBackgroundColor=none;rounded=1;html=1;whiteSpace=wrap;" vertex="1" parent="1">
            <mxGeometry x="1891" y="900" width="101" height="57" as="geometry" />
          </mxCell>
        </UserObject>
        <mxCell id="NtC6nbSk1421t6tspnrx-86" style="vsdxID=83;fillColor=#ffffff;gradientColor=none;shape=stencil(lZNNboMwEIVP461lz0ANyypJL9AToOAEqwQih7Shpw9hjPwTqqis7DfvyZ+HMcPNpanOmoG4DLb/0j+mHhqGWwZgukZbM0wrhjuGm0Nv9dH2166m/bmanCBmRdeUkQ83iMruP82vJk1wlCqnAiVP/ffjxBvVleRFQeXRJebdB5n3V0tuScVC8Sxzdhn6xQ0chHDC6AQAjij8J9EFMA04ISt5WXoI8b7C4UNOUIq/qZgkZE3hlsPD6yc8/vDWdEHHoODLFcaVxAor8Dwvwy9G91AQdXSBDq+GseMfHUv69edfgRfQMeMCFDYFn+ZopYsv5m5azBNOs2/alh5IWE9fxCTRa8LdHQ==);strokeColor=#282c33;spacingTop=-3;spacingBottom=-3;spacingLeft=-3;spacingRight=-3;points=[[0,0.5,0],[1,0.5,0],[0.5,1,0],[0.5,0,0]];labelBackgroundColor=none;rounded=1;html=1;whiteSpace=wrap;" vertex="1" parent="NtC6nbSk1421t6tspnrx-85">
          <mxGeometry width="101" height="57" as="geometry" />
        </mxCell>
        <mxCell id="NtC6nbSk1421t6tspnrx-87" value="&lt;div style=&quot;font-size: 1px&quot;&gt;&lt;p style=&quot;text-align:center;margin-left:0;margin-right:0;margin-top:0px;margin-bottom:0px;text-indent:0;vertical-align:middle;direction:ltr;&quot;&gt;&lt;font style=&quot;font-size:14.11px;font-family:Arial;color:#3a414a;direction:ltr;letter-spacing:0px;line-height:100%;opacity:1&quot;&gt;Entente Economique Latine&lt;/font&gt;&lt;/p&gt;&lt;/div&gt;" style="text;vsdxID=82;fillColor=none;gradientColor=none;strokeColor=none;spacingTop=-3;spacingBottom=-3;spacingLeft=-3;spacingRight=-3;points=[[0,0.5,0],[1,0.5,0],[0.5,1,0],[0.5,0,0]];labelBackgroundColor=none;rounded=1;html=1;whiteSpace=wrap;verticalAlign=middle;align=center;overflow=width;;html=1;" vertex="1" parent="NtC6nbSk1421t6tspnrx-85">
          <mxGeometry x="3.17" y="3.02" width="95.25" height="50.8" as="geometry" />
        </mxCell>
        <UserObject label="" tags="Arrière-plan" id="NtC6nbSk1421t6tspnrx-88">
          <mxCell style="vsdxID=82;fillColor=none;gradientColor=none;strokeColor=none;spacingTop=-3;spacingBottom=-3;spacingLeft=-3;spacingRight=-3;points=[[0,0.5,0],[1,0.5,0],[0.5,1,0],[0.5,0,0]];labelBackgroundColor=none;rounded=1;html=1;whiteSpace=wrap;" vertex="1" parent="1">
            <mxGeometry x="1430" y="990" width="101" height="57" as="geometry" />
          </mxCell>
        </UserObject>
        <mxCell id="NtC6nbSk1421t6tspnrx-89" style="vsdxID=83;fillColor=#ffffff;gradientColor=none;shape=stencil(lZNNboMwEIVP461lz0ANyypJL9AToOAEqwQih7Shpw9hjPwTqqis7DfvyZ+HMcPNpanOmoG4DLb/0j+mHhqGWwZgukZbM0wrhjuGm0Nv9dH2166m/bmanCBmRdeUkQ83iMruP82vJk1wlCqnAiVP/ffjxBvVleRFQeXRJebdB5n3V0tuScVC8Sxzdhn6xQ0chHDC6AQAjij8J9EFMA04ISt5WXoI8b7C4UNOUIq/qZgkZE3hlsPD6yc8/vDWdEHHoODLFcaVxAor8Dwvwy9G91AQdXSBDq+GseMfHUv69edfgRfQMeMCFDYFn+ZopYsv5m5azBNOs2/alh5IWE9fxCTRa8LdHQ==);strokeColor=#282c33;spacingTop=-3;spacingBottom=-3;spacingLeft=-3;spacingRight=-3;points=[[0,0.5,0],[1,0.5,0],[0.5,1,0],[0.5,0,0]];labelBackgroundColor=none;rounded=1;html=1;whiteSpace=wrap;" vertex="1" parent="NtC6nbSk1421t6tspnrx-88">
          <mxGeometry width="101" height="57" as="geometry" />
        </mxCell>
        <mxCell id="NtC6nbSk1421t6tspnrx-90" value="&lt;div style=&quot;font-size: 1px&quot;&gt;&lt;p style=&quot;text-align:center;margin-left:0;margin-right:0;margin-top:0px;margin-bottom:0px;text-indent:0;vertical-align:middle;direction:ltr;&quot;&gt;&lt;font style=&quot;font-size:14.11px;font-family:Arial;color:#3a414a;direction:ltr;letter-spacing:0px;line-height:100%;opacity:1&quot;&gt;France, 1er exportateur&lt;/font&gt;&lt;/p&gt;&lt;/div&gt;" style="text;vsdxID=82;fillColor=none;gradientColor=none;strokeColor=none;spacingTop=-3;spacingBottom=-3;spacingLeft=-3;spacingRight=-3;points=[[0,0.5,0],[1,0.5,0],[0.5,1,0],[0.5,0,0]];labelBackgroundColor=none;rounded=1;html=1;whiteSpace=wrap;verticalAlign=middle;align=center;overflow=width;;html=1;" vertex="1" parent="NtC6nbSk1421t6tspnrx-88">
          <mxGeometry x="3.17" y="3.02" width="95.25" height="50.8" as="geometry" />
        </mxCell>
        <UserObject label="" tags="Arrière-plan" id="NtC6nbSk1421t6tspnrx-91">
          <mxCell style="vsdxID=82;fillColor=none;gradientColor=none;strokeColor=none;spacingTop=-3;spacingBottom=-3;spacingLeft=-3;spacingRight=-3;points=[[0,0.5,0],[1,0.5,0],[0.5,1,0],[0.5,0,0]];labelBackgroundColor=none;rounded=1;html=1;whiteSpace=wrap;" vertex="1" parent="1">
            <mxGeometry x="1660" y="990" width="101" height="57" as="geometry" />
          </mxCell>
        </UserObject>
        <mxCell id="NtC6nbSk1421t6tspnrx-92" style="vsdxID=83;fillColor=#ffffff;gradientColor=none;shape=stencil(lZNNboMwEIVP461lz0ANyypJL9AToOAEqwQih7Shpw9hjPwTqqis7DfvyZ+HMcPNpanOmoG4DLb/0j+mHhqGWwZgukZbM0wrhjuGm0Nv9dH2166m/bmanCBmRdeUkQ83iMruP82vJk1wlCqnAiVP/ffjxBvVleRFQeXRJebdB5n3V0tuScVC8Sxzdhn6xQ0chHDC6AQAjij8J9EFMA04ISt5WXoI8b7C4UNOUIq/qZgkZE3hlsPD6yc8/vDWdEHHoODLFcaVxAor8Dwvwy9G91AQdXSBDq+GseMfHUv69edfgRfQMeMCFDYFn+ZopYsv5m5azBNOs2/alh5IWE9fxCTRa8LdHQ==);strokeColor=#282c33;spacingTop=-3;spacingBottom=-3;spacingLeft=-3;spacingRight=-3;points=[[0,0.5,0],[1,0.5,0],[0.5,1,0],[0.5,0,0]];labelBackgroundColor=none;rounded=1;html=1;whiteSpace=wrap;" vertex="1" parent="NtC6nbSk1421t6tspnrx-91">
          <mxGeometry width="101" height="57" as="geometry" />
        </mxCell>
        <mxCell id="NtC6nbSk1421t6tspnrx-93" value="&lt;div style=&quot;font-size: 1px&quot;&gt;&lt;p style=&quot;text-align:center;margin-left:0;margin-right:0;margin-top:0px;margin-bottom:0px;text-indent:0;vertical-align:middle;direction:ltr;&quot;&gt;&lt;font style=&quot;font-size:14.11px;font-family:Arial;color:#3a414a;direction:ltr;letter-spacing:0px;line-height:100%;opacity:1&quot;&gt;Inverser l&#39;exode des populations&lt;/font&gt;&lt;/p&gt;&lt;/div&gt;" style="text;vsdxID=82;fillColor=none;gradientColor=none;strokeColor=none;spacingTop=-3;spacingBottom=-3;spacingLeft=-3;spacingRight=-3;points=[[0,0.5,0],[1,0.5,0],[0.5,1,0],[0.5,0,0]];labelBackgroundColor=none;rounded=1;html=1;whiteSpace=wrap;verticalAlign=middle;align=center;overflow=width;;html=1;" vertex="1" parent="NtC6nbSk1421t6tspnrx-91">
          <mxGeometry x="3.17" y="3.02" width="95.25" height="50.8" as="geometry" />
        </mxCell>
        <UserObject label="" tags="Arrière-plan" id="NtC6nbSk1421t6tspnrx-94">
          <mxCell style="vsdxID=82;fillColor=none;gradientColor=none;strokeColor=none;spacingTop=-3;spacingBottom=-3;spacingLeft=-3;spacingRight=-3;points=[[0,0.5,0],[1,0.5,0],[0.5,1,0],[0.5,0,0]];labelBackgroundColor=none;rounded=1;html=1;whiteSpace=wrap;" vertex="1" parent="1">
            <mxGeometry x="1890" y="990" width="101" height="57" as="geometry" />
          </mxCell>
        </UserObject>
        <mxCell id="NtC6nbSk1421t6tspnrx-95" style="vsdxID=83;fillColor=#ffffff;gradientColor=none;shape=stencil(lZNNboMwEIVP461lz0ANyypJL9AToOAEqwQih7Shpw9hjPwTqqis7DfvyZ+HMcPNpanOmoG4DLb/0j+mHhqGWwZgukZbM0wrhjuGm0Nv9dH2166m/bmanCBmRdeUkQ83iMruP82vJk1wlCqnAiVP/ffjxBvVleRFQeXRJebdB5n3V0tuScVC8Sxzdhn6xQ0chHDC6AQAjij8J9EFMA04ISt5WXoI8b7C4UNOUIq/qZgkZE3hlsPD6yc8/vDWdEHHoODLFcaVxAor8Dwvwy9G91AQdXSBDq+GseMfHUv69edfgRfQMeMCFDYFn+ZopYsv5m5azBNOs2/alh5IWE9fxCTRa8LdHQ==);strokeColor=#282c33;spacingTop=-3;spacingBottom=-3;spacingLeft=-3;spacingRight=-3;points=[[0,0.5,0],[1,0.5,0],[0.5,1,0],[0.5,0,0]];labelBackgroundColor=none;rounded=1;html=1;whiteSpace=wrap;" vertex="1" parent="NtC6nbSk1421t6tspnrx-94">
          <mxGeometry width="101" height="57" as="geometry" />
        </mxCell>
        <mxCell id="NtC6nbSk1421t6tspnrx-96" value="&lt;div style=&quot;&quot;&gt;&lt;p style=&quot;text-align: center; margin: 0px; text-indent: 0px; vertical-align: middle; direction: ltr;&quot;&gt;&lt;font face=&quot;Arial&quot; color=&quot;#3a414a&quot;&gt;&lt;span style=&quot;font-size: 14.11px;&quot;&gt;Hégémonie Commerciale Française&lt;/span&gt;&lt;/font&gt;&lt;/p&gt;&lt;/div&gt;" style="text;vsdxID=82;fillColor=none;gradientColor=none;strokeColor=none;spacingTop=-3;spacingBottom=-3;spacingLeft=-3;spacingRight=-3;points=[[0,0.5,0],[1,0.5,0],[0.5,1,0],[0.5,0,0]];labelBackgroundColor=none;rounded=1;html=1;whiteSpace=wrap;verticalAlign=middle;align=center;overflow=width;;html=1;" vertex="1" parent="NtC6nbSk1421t6tspnrx-94">
          <mxGeometry x="3.17" y="3.02" width="95.25" height="50.8" as="geometry" />
        </mxCell>
        <mxCell id="NtC6nbSk1421t6tspnrx-97" style="edgeStyle=orthogonalEdgeStyle;rounded=0;orthogonalLoop=1;jettySize=auto;html=1;exitX=0.5;exitY=1;exitDx=0;exitDy=0;exitPerimeter=0;entryX=0.5;entryY=0;entryDx=0;entryDy=0;entryPerimeter=0;" edge="1" parent="1" source="NtC6nbSk1421t6tspnrx-60" target="NtC6nbSk1421t6tspnrx-80">
          <mxGeometry relative="1" as="geometry" />
        </mxCell>
        <mxCell id="NtC6nbSk1421t6tspnrx-98" style="edgeStyle=orthogonalEdgeStyle;rounded=0;orthogonalLoop=1;jettySize=auto;html=1;exitX=0.5;exitY=1;exitDx=0;exitDy=0;exitPerimeter=0;entryX=0.5;entryY=0;entryDx=0;entryDy=0;entryPerimeter=0;" edge="1" parent="1" source="NtC6nbSk1421t6tspnrx-57" target="NtC6nbSk1421t6tspnrx-83">
          <mxGeometry relative="1" as="geometry" />
        </mxCell>
        <mxCell id="NtC6nbSk1421t6tspnrx-99" style="edgeStyle=orthogonalEdgeStyle;rounded=0;orthogonalLoop=1;jettySize=auto;html=1;exitX=1;exitY=0.5;exitDx=0;exitDy=0;exitPerimeter=0;entryX=0.5;entryY=0;entryDx=0;entryDy=0;entryPerimeter=0;" edge="1" parent="1" source="NtC6nbSk1421t6tspnrx-57" target="NtC6nbSk1421t6tspnrx-74">
          <mxGeometry relative="1" as="geometry" />
        </mxCell>
        <mxCell id="NtC6nbSk1421t6tspnrx-101" style="edgeStyle=orthogonalEdgeStyle;rounded=0;orthogonalLoop=1;jettySize=auto;html=1;exitX=1;exitY=0.5;exitDx=0;exitDy=0;exitPerimeter=0;entryX=0.5;entryY=0;entryDx=0;entryDy=0;entryPerimeter=0;" edge="1" parent="1" source="NtC6nbSk1421t6tspnrx-60" target="NtC6nbSk1421t6tspnrx-77">
          <mxGeometry relative="1" as="geometry" />
        </mxCell>
        <mxCell id="NtC6nbSk1421t6tspnrx-103" style="edgeStyle=orthogonalEdgeStyle;rounded=0;orthogonalLoop=1;jettySize=auto;html=1;exitX=0.5;exitY=1;exitDx=0;exitDy=0;exitPerimeter=0;entryX=0.5;entryY=0;entryDx=0;entryDy=0;entryPerimeter=0;" edge="1" parent="1" source="NtC6nbSk1421t6tspnrx-64" target="NtC6nbSk1421t6tspnrx-86">
          <mxGeometry relative="1" as="geometry" />
        </mxCell>
        <mxCell id="NtC6nbSk1421t6tspnrx-104" style="edgeStyle=orthogonalEdgeStyle;rounded=0;orthogonalLoop=1;jettySize=auto;html=1;exitX=0.5;exitY=1;exitDx=0;exitDy=0;exitPerimeter=0;entryX=0.5;entryY=0;entryDx=0;entryDy=0;entryPerimeter=0;" edge="1" parent="1" source="NtC6nbSk1421t6tspnrx-87" target="NtC6nbSk1421t6tspnrx-95">
          <mxGeometry relative="1" as="geometry" />
        </mxCell>
        <mxCell id="NtC6nbSk1421t6tspnrx-106" style="edgeStyle=orthogonalEdgeStyle;rounded=0;orthogonalLoop=1;jettySize=auto;html=1;exitX=0.5;exitY=1;exitDx=0;exitDy=0;exitPerimeter=0;entryX=0.5;entryY=0;entryDx=0;entryDy=0;entryPerimeter=0;" edge="1" parent="1" source="NtC6nbSk1421t6tspnrx-82" target="NtC6nbSk1421t6tspnrx-89">
          <mxGeometry relative="1" as="geometry" />
        </mxCell>
        <mxCell id="NtC6nbSk1421t6tspnrx-107" style="edgeStyle=orthogonalEdgeStyle;rounded=0;orthogonalLoop=1;jettySize=auto;html=1;exitX=0.5;exitY=1;exitDx=0;exitDy=0;exitPerimeter=0;entryX=0.5;entryY=0;entryDx=0;entryDy=0;entryPerimeter=0;" edge="1" parent="1" source="NtC6nbSk1421t6tspnrx-80" target="NtC6nbSk1421t6tspnrx-92">
          <mxGeometry relative="1" as="geometry" />
        </mxCell>
        <UserObject label="" tags="Arrière-plan" id="NtC6nbSk1421t6tspnrx-108">
          <mxCell style="vsdxID=82;fillColor=none;gradientColor=none;strokeColor=none;spacingTop=-3;spacingBottom=-3;spacingLeft=-3;spacingRight=-3;points=[[0,0.5,0],[1,0.5,0],[0.5,1,0],[0.5,0,0]];labelBackgroundColor=none;rounded=1;html=1;whiteSpace=wrap;" vertex="1" parent="1">
            <mxGeometry x="-670" y="260" width="101" height="57" as="geometry" />
          </mxCell>
        </UserObject>
        <mxCell id="NtC6nbSk1421t6tspnrx-109" style="vsdxID=83;fillColor=#ffffff;gradientColor=none;shape=stencil(lZNNboMwEIVP461lz0ANyypJL9AToOAEqwQih7Shpw9hjPwTqqis7DfvyZ+HMcPNpanOmoG4DLb/0j+mHhqGWwZgukZbM0wrhjuGm0Nv9dH2166m/bmanCBmRdeUkQ83iMruP82vJk1wlCqnAiVP/ffjxBvVleRFQeXRJebdB5n3V0tuScVC8Sxzdhn6xQ0chHDC6AQAjij8J9EFMA04ISt5WXoI8b7C4UNOUIq/qZgkZE3hlsPD6yc8/vDWdEHHoODLFcaVxAor8Dwvwy9G91AQdXSBDq+GseMfHUv69edfgRfQMeMCFDYFn+ZopYsv5m5azBNOs2/alh5IWE9fxCTRa8LdHQ==);strokeColor=#282c33;spacingTop=-3;spacingBottom=-3;spacingLeft=-3;spacingRight=-3;points=[[0,0.5,0],[1,0.5,0],[0.5,1,0],[0.5,0,0]];labelBackgroundColor=none;rounded=1;html=1;whiteSpace=wrap;" vertex="1" parent="NtC6nbSk1421t6tspnrx-108">
          <mxGeometry width="101" height="57" as="geometry" />
        </mxCell>
        <mxCell id="NtC6nbSk1421t6tspnrx-110" value="&lt;div style=&quot;font-size: 1px&quot;&gt;&lt;p style=&quot;text-align:center;margin-left:0;margin-right:0;margin-top:0px;margin-bottom:0px;text-indent:0;vertical-align:middle;direction:ltr;&quot;&gt;&lt;font style=&quot;font-size:14.11px;font-family:Arial;color:#3a414a;direction:ltr;letter-spacing:0px;line-height:100%;opacity:1&quot;&gt;Détruire la Perfide Albion&lt;/font&gt;&lt;/p&gt;&lt;/div&gt;" style="text;vsdxID=82;fillColor=none;gradientColor=none;strokeColor=none;spacingTop=-3;spacingBottom=-3;spacingLeft=-3;spacingRight=-3;points=[[0,0.5,0],[1,0.5,0],[0.5,1,0],[0.5,0,0]];labelBackgroundColor=none;rounded=1;html=1;whiteSpace=wrap;verticalAlign=middle;align=center;overflow=width;;html=1;" vertex="1" parent="NtC6nbSk1421t6tspnrx-108">
          <mxGeometry x="3.17" y="3.02" width="95.25" height="50.8" as="geometry" />
        </mxCell>
        <UserObject label="" tags="Arrière-plan" id="NtC6nbSk1421t6tspnrx-111">
          <mxCell style="vsdxID=82;fillColor=none;gradientColor=none;strokeColor=none;spacingTop=-3;spacingBottom=-3;spacingLeft=-3;spacingRight=-3;points=[[0,0.5,0],[1,0.5,0],[0.5,1,0],[0.5,0,0]];labelBackgroundColor=none;rounded=1;html=1;whiteSpace=wrap;" vertex="1" parent="1">
            <mxGeometry x="-630" y="285" width="121" height="82" as="geometry" />
          </mxCell>
        </UserObject>
        <mxCell id="NtC6nbSk1421t6tspnrx-112" style="vsdxID=83;fillColor=#ffffff;gradientColor=none;shape=stencil(lZNNboMwEIVP461lz0ANyypJL9AToOAEqwQih7Shpw9hjPwTqqis7DfvyZ+HMcPNpanOmoG4DLb/0j+mHhqGWwZgukZbM0wrhjuGm0Nv9dH2166m/bmanCBmRdeUkQ83iMruP82vJk1wlCqnAiVP/ffjxBvVleRFQeXRJebdB5n3V0tuScVC8Sxzdhn6xQ0chHDC6AQAjij8J9EFMA04ISt5WXoI8b7C4UNOUIq/qZgkZE3hlsPD6yc8/vDWdEHHoODLFcaVxAor8Dwvwy9G91AQdXSBDq+GseMfHUv69edfgRfQMeMCFDYFn+ZopYsv5m5azBNOs2/alh5IWE9fxCTRa8LdHQ==);strokeColor=#282c33;spacingTop=-3;spacingBottom=-3;spacingLeft=-3;spacingRight=-3;points=[[0,0.5,0],[1,0.5,0],[0.5,1,0],[0.5,0,0]];labelBackgroundColor=none;rounded=1;html=1;whiteSpace=wrap;" vertex="1" parent="NtC6nbSk1421t6tspnrx-111">
          <mxGeometry width="101" height="57" as="geometry" />
        </mxCell>
        <mxCell id="NtC6nbSk1421t6tspnrx-113" value="&lt;div style=&quot;font-size: 1px&quot;&gt;&lt;p style=&quot;text-align:center;margin-left:0;margin-right:0;margin-top:0px;margin-bottom:0px;text-indent:0;vertical-align:middle;direction:ltr;&quot;&gt;&lt;font style=&quot;font-size:14.11px;font-family:Arial;color:#3a414a;direction:ltr;letter-spacing:0px;line-height:100%;opacity:1&quot;&gt;Partitionner le Royaume-Uni&lt;/font&gt;&lt;/p&gt;&lt;/div&gt;" style="text;vsdxID=82;fillColor=none;gradientColor=none;strokeColor=none;spacingTop=-3;spacingBottom=-3;spacingLeft=-3;spacingRight=-3;points=[[0,0.5,0],[1,0.5,0],[0.5,1,0],[0.5,0,0]];labelBackgroundColor=none;rounded=1;html=1;whiteSpace=wrap;verticalAlign=middle;align=center;overflow=width;;html=1;" vertex="1" parent="NtC6nbSk1421t6tspnrx-111">
          <mxGeometry x="3.17" y="3.02" width="95.25" height="50.8" as="geometry" />
        </mxCell>
        <UserObject label="" tags="Arrière-plan" id="NtC6nbSk1421t6tspnrx-114">
          <mxCell style="vsdxID=82;fillColor=none;gradientColor=none;strokeColor=none;spacingTop=-3;spacingBottom=-3;spacingLeft=-3;spacingRight=-3;points=[[0,0.5,0],[1,0.5,0],[0.5,1,0],[0.5,0,0]];labelBackgroundColor=none;rounded=1;html=1;whiteSpace=wrap;" vertex="1" parent="NtC6nbSk1421t6tspnrx-111">
            <mxGeometry x="20" y="25" width="101" height="57" as="geometry" />
          </mxCell>
        </UserObject>
        <mxCell id="NtC6nbSk1421t6tspnrx-115" style="vsdxID=83;fillColor=#ffffff;gradientColor=none;shape=stencil(lZNNboMwEIVP461lz0ANyypJL9AToOAEqwQih7Shpw9hjPwTqqis7DfvyZ+HMcPNpanOmoG4DLb/0j+mHhqGWwZgukZbM0wrhjuGm0Nv9dH2166m/bmanCBmRdeUkQ83iMruP82vJk1wlCqnAiVP/ffjxBvVleRFQeXRJebdB5n3V0tuScVC8Sxzdhn6xQ0chHDC6AQAjij8J9EFMA04ISt5WXoI8b7C4UNOUIq/qZgkZE3hlsPD6yc8/vDWdEHHoODLFcaVxAor8Dwvwy9G91AQdXSBDq+GseMfHUv69edfgRfQMeMCFDYFn+ZopYsv5m5azBNOs2/alh5IWE9fxCTRa8LdHQ==);strokeColor=#282c33;spacingTop=-3;spacingBottom=-3;spacingLeft=-3;spacingRight=-3;points=[[0,0.5,0],[1,0.5,0],[0.5,1,0],[0.5,0,0]];labelBackgroundColor=none;rounded=1;html=1;whiteSpace=wrap;" vertex="1" parent="NtC6nbSk1421t6tspnrx-114">
          <mxGeometry width="101" height="57" as="geometry" />
        </mxCell>
        <mxCell id="NtC6nbSk1421t6tspnrx-116" value="&lt;div style=&quot;font-size: 1px&quot;&gt;&lt;p style=&quot;text-align:center;margin-left:0;margin-right:0;margin-top:0px;margin-bottom:0px;text-indent:0;vertical-align:middle;direction:ltr;&quot;&gt;&lt;font style=&quot;font-size:14.11px;font-family:Arial;color:#3a414a;direction:ltr;letter-spacing:0px;line-height:100%;opacity:1&quot;&gt;Réclamer le Québec / Acadie / Louisiane&lt;/font&gt;&lt;/p&gt;&lt;/div&gt;" style="text;vsdxID=82;fillColor=none;gradientColor=none;strokeColor=none;spacingTop=-3;spacingBottom=-3;spacingLeft=-3;spacingRight=-3;points=[[0,0.5,0],[1,0.5,0],[0.5,1,0],[0.5,0,0]];labelBackgroundColor=none;rounded=1;html=1;whiteSpace=wrap;verticalAlign=middle;align=center;overflow=width;;html=1;" vertex="1" parent="NtC6nbSk1421t6tspnrx-114">
          <mxGeometry x="3.17" y="3.02" width="95.25" height="50.8" as="geometry" />
        </mxCell>
        <UserObject label="" tags="Arrière-plan" id="NtC6nbSk1421t6tspnrx-117">
          <mxCell style="vsdxID=14;fillColor=none;gradientColor=none;strokeColor=none;spacingTop=-3;spacingBottom=-3;spacingLeft=-3;spacingRight=-3;points=[[0,0.5,0],[1,0.5,0],[0.5,1,0],[0.5,0,0]];labelBackgroundColor=none;rounded=1;html=1;whiteSpace=wrap;" vertex="1" parent="1">
            <mxGeometry x="2650" y="28.5" width="101" height="50" as="geometry" />
          </mxCell>
        </UserObject>
        <mxCell id="NtC6nbSk1421t6tspnrx-118" style="vsdxID=15;fillColor=#ffffff;gradientColor=none;shape=stencil(jZNNDoIwEIVP023TzkSBpfHnAp6ASJVGBFNRwdOLTJG2opFV++ZN5uvLwHB5ydOzYiAutamO6q6zOme4YgC6zJXRdXdiuGa43FdGHUx1LTO6n9POCaJXVEY98uUGkZrdVj8UaYKjjGZUoM5TdXtNbKg+1Fpr728bcu6uhqySinHMYzujla5fNGAJhBVaKwBwjBLns+MaDBusMHMIxGICYuywQhTxOfgYLmhINkx+PzwgGScXunSCAj8ozz5BKblMfM6RALzsBkL3Heg7/s0mSOZr+PAJ6TMNABCE9DuiX7vUHfqVpWXWRUEb79bDFe8k+j1w/QQ=);strokeColor=#282c33;spacingTop=-3;spacingBottom=-3;spacingLeft=-3;spacingRight=-3;points=[[0,0.5,0],[1,0.5,0],[0.5,1,0],[0.5,0,0]];labelBackgroundColor=none;rounded=1;html=1;whiteSpace=wrap;" vertex="1" parent="NtC6nbSk1421t6tspnrx-117">
          <mxGeometry width="101" height="50" as="geometry" />
        </mxCell>
        <mxCell id="NtC6nbSk1421t6tspnrx-119" value="&lt;div style=&quot;font-size: 1px&quot;&gt;&lt;p style=&quot;text-align:center;margin-left:0;margin-right:0;margin-top:0px;margin-bottom:0px;text-indent:0;vertical-align:middle;direction:ltr;&quot;&gt;&lt;font style=&quot;font-size:14.11px;font-family:Arial;color:#3a414a;direction:ltr;letter-spacing:0px;line-height:100%;opacity:1&quot;&gt;Décentralisation&lt;/font&gt;&lt;/p&gt;&lt;/div&gt;" style="text;vsdxID=14;fillColor=none;gradientColor=none;strokeColor=none;spacingTop=-3;spacingBottom=-3;spacingLeft=-3;spacingRight=-3;points=[[0,0.5,0],[1,0.5,0],[0.5,1,0],[0.5,0,0]];labelBackgroundColor=none;rounded=1;html=1;whiteSpace=wrap;verticalAlign=middle;align=center;overflow=width;;html=1;" vertex="1" parent="NtC6nbSk1421t6tspnrx-117">
          <mxGeometry x="3.17" y="2.38" width="95.25" height="44.45" as="geometry" />
        </mxCell>
        <UserObject label="" tags="Arrière-plan" id="NtC6nbSk1421t6tspnrx-125">
          <mxCell style="vsdxID=14;fillColor=none;gradientColor=none;strokeColor=none;spacingTop=-3;spacingBottom=-3;spacingLeft=-3;spacingRight=-3;points=[[0,0.5,0],[1,0.5,0],[0.5,1,0],[0.5,0,0]];labelBackgroundColor=none;rounded=1;html=1;whiteSpace=wrap;" vertex="1" parent="1">
            <mxGeometry x="1660" y="1110" width="101" height="50" as="geometry" />
          </mxCell>
        </UserObject>
        <mxCell id="NtC6nbSk1421t6tspnrx-126" style="vsdxID=15;fillColor=#ffffff;gradientColor=none;shape=stencil(jZNNDoIwEIVP023TzkSBpfHnAp6ASJVGBFNRwdOLTJG2opFV++ZN5uvLwHB5ydOzYiAutamO6q6zOme4YgC6zJXRdXdiuGa43FdGHUx1LTO6n9POCaJXVEY98uUGkZrdVj8UaYKjjGZUoM5TdXtNbKg+1Fpr728bcu6uhqySinHMYzujla5fNGAJhBVaKwBwjBLns+MaDBusMHMIxGICYuywQhTxOfgYLmhINkx+PzwgGScXunSCAj8ozz5BKblMfM6RALzsBkL3Heg7/s0mSOZr+PAJ6TMNABCE9DuiX7vUHfqVpWXWRUEb79bDFe8k+j1w/QQ=);strokeColor=#282c33;spacingTop=-3;spacingBottom=-3;spacingLeft=-3;spacingRight=-3;points=[[0,0.5,0],[1,0.5,0],[0.5,1,0],[0.5,0,0]];labelBackgroundColor=none;rounded=1;html=1;whiteSpace=wrap;" vertex="1" parent="NtC6nbSk1421t6tspnrx-125">
          <mxGeometry width="101" height="50" as="geometry" />
        </mxCell>
        <mxCell id="NtC6nbSk1421t6tspnrx-127" value="&lt;div style=&quot;font-size: 1px&quot;&gt;&lt;p style=&quot;text-align:center;margin-left:0;margin-right:0;margin-top:0px;margin-bottom:0px;text-indent:0;vertical-align:middle;direction:ltr;&quot;&gt;&lt;font style=&quot;font-size:14.11px;font-family:Arial;color:#3a414a;direction:ltr;letter-spacing:0px;line-height:100%;opacity:1&quot;&gt;Sécuriser la Souterraine&lt;/font&gt;&lt;/p&gt;&lt;/div&gt;" style="text;vsdxID=14;fillColor=none;gradientColor=none;strokeColor=none;spacingTop=-3;spacingBottom=-3;spacingLeft=-3;spacingRight=-3;points=[[0,0.5,0],[1,0.5,0],[0.5,1,0],[0.5,0,0]];labelBackgroundColor=none;rounded=1;html=1;whiteSpace=wrap;verticalAlign=middle;align=center;overflow=width;;html=1;" vertex="1" parent="NtC6nbSk1421t6tspnrx-125">
          <mxGeometry x="2.88" y="2.77" width="95.25" height="44.45" as="geometry" />
        </mxCell>
        <mxCell id="NtC6nbSk1421t6tspnrx-129" style="edgeStyle=orthogonalEdgeStyle;rounded=0;orthogonalLoop=1;jettySize=auto;html=1;exitX=0.5;exitY=1;exitDx=0;exitDy=0;exitPerimeter=0;entryX=0.5;entryY=0;entryDx=0;entryDy=0;entryPerimeter=0;" edge="1" parent="1" source="NtC6nbSk1421t6tspnrx-93" target="NtC6nbSk1421t6tspnrx-125">
          <mxGeometry relative="1" as="geometry" />
        </mxCell>
        <mxCell id="NtC6nbSk1421t6tspnrx-131" style="edgeStyle=orthogonalEdgeStyle;rounded=0;orthogonalLoop=1;jettySize=auto;html=1;exitX=0.5;exitY=1;exitDx=0;exitDy=0;exitPerimeter=0;entryX=0.5;entryY=0;entryDx=0;entryDy=0;entryPerimeter=0;" edge="1" parent="1" source="NtC6nbSk1421t6tspnrx-94" target="NtC6nbSk1421t6tspnrx-126">
          <mxGeometry relative="1" as="geometry" />
        </mxCell>
        <mxCell id="NtC6nbSk1421t6tspnrx-132" style="edgeStyle=orthogonalEdgeStyle;rounded=0;orthogonalLoop=1;jettySize=auto;html=1;exitX=0.5;exitY=1;exitDx=0;exitDy=0;exitPerimeter=0;entryX=0.502;entryY=-0.077;entryDx=0;entryDy=0;entryPerimeter=0;" edge="1" parent="1" source="NtC6nbSk1421t6tspnrx-88" target="NtC6nbSk1421t6tspnrx-127">
          <mxGeometry relative="1" as="geometry" />
        </mxCell>
        <UserObject label="" tags="Arrière-plan" id="NtC6nbSk1421t6tspnrx-133">
          <mxCell style="vsdxID=14;fillColor=none;gradientColor=none;strokeColor=none;spacingTop=-3;spacingBottom=-3;spacingLeft=-3;spacingRight=-3;points=[[0,0.5,0],[1,0.5,0],[0.5,1,0],[0.5,0,0]];labelBackgroundColor=none;rounded=1;html=1;whiteSpace=wrap;" vertex="1" parent="1">
            <mxGeometry x="1536" y="1200" width="101" height="50" as="geometry" />
          </mxCell>
        </UserObject>
        <mxCell id="NtC6nbSk1421t6tspnrx-134" style="vsdxID=15;fillColor=#ffffff;gradientColor=none;shape=stencil(jZNNDoIwEIVP023TzkSBpfHnAp6ASJVGBFNRwdOLTJG2opFV++ZN5uvLwHB5ydOzYiAutamO6q6zOme4YgC6zJXRdXdiuGa43FdGHUx1LTO6n9POCaJXVEY98uUGkZrdVj8UaYKjjGZUoM5TdXtNbKg+1Fpr728bcu6uhqySinHMYzujla5fNGAJhBVaKwBwjBLns+MaDBusMHMIxGICYuywQhTxOfgYLmhINkx+PzwgGScXunSCAj8ozz5BKblMfM6RALzsBkL3Heg7/s0mSOZr+PAJ6TMNABCE9DuiX7vUHfqVpWXWRUEb79bDFe8k+j1w/QQ=);strokeColor=#282c33;spacingTop=-3;spacingBottom=-3;spacingLeft=-3;spacingRight=-3;points=[[0,0.5,0],[1,0.5,0],[0.5,1,0],[0.5,0,0]];labelBackgroundColor=none;rounded=1;html=1;whiteSpace=wrap;" vertex="1" parent="NtC6nbSk1421t6tspnrx-133">
          <mxGeometry width="101" height="50" as="geometry" />
        </mxCell>
        <mxCell id="NtC6nbSk1421t6tspnrx-135" value="&lt;div style=&quot;font-size: 1px&quot;&gt;&lt;p style=&quot;text-align:center;margin-left:0;margin-right:0;margin-top:0px;margin-bottom:0px;text-indent:0;vertical-align:middle;direction:ltr;&quot;&gt;&lt;font style=&quot;font-size:14.11px;font-family:Arial;color:#3a414a;direction:ltr;letter-spacing:0px;line-height:100%;opacity:1&quot;&gt;Supprimer l&#39;usure&lt;/font&gt;&lt;/p&gt;&lt;/div&gt;" style="text;vsdxID=14;fillColor=none;gradientColor=none;strokeColor=none;spacingTop=-3;spacingBottom=-3;spacingLeft=-3;spacingRight=-3;points=[[0,0.5,0],[1,0.5,0],[0.5,1,0],[0.5,0,0]];labelBackgroundColor=none;rounded=1;html=1;whiteSpace=wrap;verticalAlign=middle;align=center;overflow=width;;html=1;" vertex="1" parent="NtC6nbSk1421t6tspnrx-133">
          <mxGeometry x="2.88" y="2.77" width="95.25" height="44.45" as="geometry" />
        </mxCell>
        <UserObject label="" tags="Arrière-plan" id="NtC6nbSk1421t6tspnrx-137">
          <mxCell style="vsdxID=14;fillColor=none;gradientColor=none;strokeColor=none;spacingTop=-3;spacingBottom=-3;spacingLeft=-3;spacingRight=-3;points=[[0,0.5,0],[1,0.5,0],[0.5,1,0],[0.5,0,0]];labelBackgroundColor=none;rounded=1;html=1;whiteSpace=wrap;" vertex="1" parent="1">
            <mxGeometry x="1660" y="1320" width="101" height="50" as="geometry" />
          </mxCell>
        </UserObject>
        <mxCell id="NtC6nbSk1421t6tspnrx-138" style="vsdxID=15;fillColor=#ffffff;gradientColor=none;shape=stencil(jZNNDoIwEIVP023TzkSBpfHnAp6ASJVGBFNRwdOLTJG2opFV++ZN5uvLwHB5ydOzYiAutamO6q6zOme4YgC6zJXRdXdiuGa43FdGHUx1LTO6n9POCaJXVEY98uUGkZrdVj8UaYKjjGZUoM5TdXtNbKg+1Fpr728bcu6uhqySinHMYzujla5fNGAJhBVaKwBwjBLns+MaDBusMHMIxGICYuywQhTxOfgYLmhINkx+PzwgGScXunSCAj8ozz5BKblMfM6RALzsBkL3Heg7/s0mSOZr+PAJ6TMNABCE9DuiX7vUHfqVpWXWRUEb79bDFe8k+j1w/QQ=);strokeColor=#282c33;spacingTop=-3;spacingBottom=-3;spacingLeft=-3;spacingRight=-3;points=[[0,0.5,0],[1,0.5,0],[0.5,1,0],[0.5,0,0]];labelBackgroundColor=none;rounded=1;html=1;whiteSpace=wrap;" vertex="1" parent="NtC6nbSk1421t6tspnrx-137">
          <mxGeometry width="101" height="50" as="geometry" />
        </mxCell>
        <mxCell id="NtC6nbSk1421t6tspnrx-139" value="&lt;font face=&quot;Arial&quot; color=&quot;#3a414a&quot;&gt;&lt;span style=&quot;font-size: 14.11px;&quot;&gt;Mettre fin aux banques privées&lt;/span&gt;&lt;/font&gt;" style="text;vsdxID=14;fillColor=none;gradientColor=none;strokeColor=none;spacingTop=-3;spacingBottom=-3;spacingLeft=-3;spacingRight=-3;points=[[0,0.5,0],[1,0.5,0],[0.5,1,0],[0.5,0,0]];labelBackgroundColor=none;rounded=1;html=1;whiteSpace=wrap;verticalAlign=middle;align=center;overflow=width;;html=1;" vertex="1" parent="NtC6nbSk1421t6tspnrx-137">
          <mxGeometry x="2.88" y="2.77" width="95.25" height="44.45" as="geometry" />
        </mxCell>
        <UserObject label="" tags="Arrière-plan" id="NtC6nbSk1421t6tspnrx-141">
          <mxCell style="vsdxID=14;fillColor=none;gradientColor=none;strokeColor=none;spacingTop=-3;spacingBottom=-3;spacingLeft=-3;spacingRight=-3;points=[[0,0.5,0],[1,0.5,0],[0.5,1,0],[0.5,0,0]];labelBackgroundColor=none;rounded=1;html=1;whiteSpace=wrap;" vertex="1" parent="1">
            <mxGeometry x="1780" y="1200" width="101" height="50" as="geometry" />
          </mxCell>
        </UserObject>
        <mxCell id="NtC6nbSk1421t6tspnrx-142" style="vsdxID=15;fillColor=#ffffff;gradientColor=none;shape=stencil(jZNNDoIwEIVP023TzkSBpfHnAp6ASJVGBFNRwdOLTJG2opFV++ZN5uvLwHB5ydOzYiAutamO6q6zOme4YgC6zJXRdXdiuGa43FdGHUx1LTO6n9POCaJXVEY98uUGkZrdVj8UaYKjjGZUoM5TdXtNbKg+1Fpr728bcu6uhqySinHMYzujla5fNGAJhBVaKwBwjBLns+MaDBusMHMIxGICYuywQhTxOfgYLmhINkx+PzwgGScXunSCAj8ozz5BKblMfM6RALzsBkL3Heg7/s0mSOZr+PAJ6TMNABCE9DuiX7vUHfqVpWXWRUEb79bDFe8k+j1w/QQ=);strokeColor=#282c33;spacingTop=-3;spacingBottom=-3;spacingLeft=-3;spacingRight=-3;points=[[0,0.5,0],[1,0.5,0],[0.5,1,0],[0.5,0,0]];labelBackgroundColor=none;rounded=1;html=1;whiteSpace=wrap;" vertex="1" parent="NtC6nbSk1421t6tspnrx-141">
          <mxGeometry width="101" height="50" as="geometry" />
        </mxCell>
        <mxCell id="NtC6nbSk1421t6tspnrx-143" value="&lt;div style=&quot;font-size: 1px&quot;&gt;&lt;p style=&quot;text-align:center;margin-left:0;margin-right:0;margin-top:0px;margin-bottom:0px;text-indent:0;vertical-align:middle;direction:ltr;&quot;&gt;&lt;font style=&quot;font-size:14.11px;font-family:Arial;color:#3a414a;direction:ltr;letter-spacing:0px;line-height:100%;opacity:1&quot;&gt;Garantie d&#39;Etat&lt;/font&gt;&lt;/p&gt;&lt;/div&gt;" style="text;vsdxID=14;fillColor=none;gradientColor=none;strokeColor=none;spacingTop=-3;spacingBottom=-3;spacingLeft=-3;spacingRight=-3;points=[[0,0.5,0],[1,0.5,0],[0.5,1,0],[0.5,0,0]];labelBackgroundColor=none;rounded=1;html=1;whiteSpace=wrap;verticalAlign=middle;align=center;overflow=width;;html=1;" vertex="1" parent="NtC6nbSk1421t6tspnrx-141">
          <mxGeometry x="2.88" y="2.77" width="95.25" height="44.45" as="geometry" />
        </mxCell>
        <mxCell id="NtC6nbSk1421t6tspnrx-144" style="edgeStyle=orthogonalEdgeStyle;rounded=0;orthogonalLoop=1;jettySize=auto;html=1;exitX=1;exitY=0.5;exitDx=0;exitDy=0;exitPerimeter=0;entryX=0.5;entryY=-0.076;entryDx=0;entryDy=0;entryPerimeter=0;" edge="1" parent="1" source="NtC6nbSk1421t6tspnrx-126" target="NtC6nbSk1421t6tspnrx-141">
          <mxGeometry relative="1" as="geometry" />
        </mxCell>
        <mxCell id="NtC6nbSk1421t6tspnrx-146" style="edgeStyle=orthogonalEdgeStyle;rounded=0;orthogonalLoop=1;jettySize=auto;html=1;exitX=0.5;exitY=1;exitDx=0;exitDy=0;exitPerimeter=0;entryX=0.505;entryY=-0.073;entryDx=0;entryDy=0;entryPerimeter=0;" edge="1" parent="1" source="NtC6nbSk1421t6tspnrx-135" target="NtC6nbSk1421t6tspnrx-139">
          <mxGeometry relative="1" as="geometry" />
        </mxCell>
        <mxCell id="NtC6nbSk1421t6tspnrx-147" style="edgeStyle=orthogonalEdgeStyle;rounded=0;orthogonalLoop=1;jettySize=auto;html=1;exitX=0.5;exitY=1;exitDx=0;exitDy=0;exitPerimeter=0;entryX=0.5;entryY=0;entryDx=0;entryDy=0;entryPerimeter=0;" edge="1" parent="1" source="NtC6nbSk1421t6tspnrx-142" target="NtC6nbSk1421t6tspnrx-138">
          <mxGeometry relative="1" as="geometry" />
        </mxCell>
        <mxCell id="NtC6nbSk1421t6tspnrx-148" style="edgeStyle=orthogonalEdgeStyle;rounded=0;orthogonalLoop=1;jettySize=auto;html=1;exitX=0;exitY=0.5;exitDx=0;exitDy=0;exitPerimeter=0;entryX=0.5;entryY=0;entryDx=0;entryDy=0;entryPerimeter=0;" edge="1" parent="1" source="NtC6nbSk1421t6tspnrx-127" target="NtC6nbSk1421t6tspnrx-134">
          <mxGeometry relative="1" as="geometry" />
        </mxCell>
        <UserObject label="" tags="Arrière-plan" id="NtC6nbSk1421t6tspnrx-149">
          <mxCell style="vsdxID=14;fillColor=none;gradientColor=none;strokeColor=none;spacingTop=-3;spacingBottom=-3;spacingLeft=-3;spacingRight=-3;points=[[0,0.5,0],[1,0.5,0],[0.5,1,0],[0.5,0,0]];labelBackgroundColor=none;rounded=1;html=1;whiteSpace=wrap;" vertex="1" parent="1">
            <mxGeometry x="1660" y="1200" width="101" height="50" as="geometry" />
          </mxCell>
        </UserObject>
        <mxCell id="NtC6nbSk1421t6tspnrx-150" style="vsdxID=15;fillColor=#ffffff;gradientColor=none;shape=stencil(jZNNDoIwEIVP023TzkSBpfHnAp6ASJVGBFNRwdOLTJG2opFV++ZN5uvLwHB5ydOzYiAutamO6q6zOme4YgC6zJXRdXdiuGa43FdGHUx1LTO6n9POCaJXVEY98uUGkZrdVj8UaYKjjGZUoM5TdXtNbKg+1Fpr728bcu6uhqySinHMYzujla5fNGAJhBVaKwBwjBLns+MaDBusMHMIxGICYuywQhTxOfgYLmhINkx+PzwgGScXunSCAj8ozz5BKblMfM6RALzsBkL3Heg7/s0mSOZr+PAJ6TMNABCE9DuiX7vUHfqVpWXWRUEb79bDFe8k+j1w/QQ=);strokeColor=#282c33;spacingTop=-3;spacingBottom=-3;spacingLeft=-3;spacingRight=-3;points=[[0,0.5,0],[1,0.5,0],[0.5,1,0],[0.5,0,0]];labelBackgroundColor=none;rounded=1;html=1;whiteSpace=wrap;" vertex="1" parent="NtC6nbSk1421t6tspnrx-149">
          <mxGeometry width="101" height="50" as="geometry" />
        </mxCell>
        <mxCell id="NtC6nbSk1421t6tspnrx-151" value="&lt;div style=&quot;font-size: 1px&quot;&gt;&lt;p style=&quot;text-align:center;margin-left:0;margin-right:0;margin-top:0px;margin-bottom:0px;text-indent:0;vertical-align:middle;direction:ltr;&quot;&gt;&lt;font style=&quot;font-size:14.11px;font-family:Arial;color:#3a414a;direction:ltr;letter-spacing:0px;line-height:100%;opacity:1&quot;&gt;Epargner la Caisse des Dépôts&lt;/font&gt;&lt;/p&gt;&lt;/div&gt;" style="text;vsdxID=14;fillColor=none;gradientColor=none;strokeColor=none;spacingTop=-3;spacingBottom=-3;spacingLeft=-3;spacingRight=-3;points=[[0,0.5,0],[1,0.5,0],[0.5,1,0],[0.5,0,0]];labelBackgroundColor=none;rounded=1;html=1;whiteSpace=wrap;verticalAlign=middle;align=center;overflow=width;;html=1;" vertex="1" parent="NtC6nbSk1421t6tspnrx-149">
          <mxGeometry x="2.88" y="2.77" width="95.25" height="44.45" as="geometry" />
        </mxCell>
        <mxCell id="NtC6nbSk1421t6tspnrx-152" style="edgeStyle=orthogonalEdgeStyle;rounded=0;orthogonalLoop=1;jettySize=auto;html=1;exitX=0.5;exitY=1;exitDx=0;exitDy=0;exitPerimeter=0;entryX=0.5;entryY=0;entryDx=0;entryDy=0;entryPerimeter=0;" edge="1" parent="1" source="NtC6nbSk1421t6tspnrx-127" target="NtC6nbSk1421t6tspnrx-150">
          <mxGeometry relative="1" as="geometry" />
        </mxCell>
        <mxCell id="NtC6nbSk1421t6tspnrx-154" style="edgeStyle=orthogonalEdgeStyle;rounded=0;orthogonalLoop=1;jettySize=auto;html=1;exitX=0.5;exitY=1;exitDx=0;exitDy=0;exitPerimeter=0;entryX=0.5;entryY=0;entryDx=0;entryDy=0;entryPerimeter=0;" edge="1" parent="1" source="NtC6nbSk1421t6tspnrx-150" target="NtC6nbSk1421t6tspnrx-137">
          <mxGeometry relative="1" as="geometry" />
        </mxCell>
        <UserObject label="" tags="Arrière-plan" id="NtC6nbSk1421t6tspnrx-155">
          <mxCell style="vsdxID=14;fillColor=none;gradientColor=none;strokeColor=none;spacingTop=-3;spacingBottom=-3;spacingLeft=-3;spacingRight=-3;points=[[0,0.5,0],[1,0.5,0],[0.5,1,0],[0.5,0,0]];labelBackgroundColor=none;rounded=1;html=1;whiteSpace=wrap;" vertex="1" parent="1">
            <mxGeometry x="1660" y="1410" width="101" height="50" as="geometry" />
          </mxCell>
        </UserObject>
        <mxCell id="NtC6nbSk1421t6tspnrx-156" style="vsdxID=15;fillColor=#ffffff;gradientColor=none;shape=stencil(jZNNDoIwEIVP023TzkSBpfHnAp6ASJVGBFNRwdOLTJG2opFV++ZN5uvLwHB5ydOzYiAutamO6q6zOme4YgC6zJXRdXdiuGa43FdGHUx1LTO6n9POCaJXVEY98uUGkZrdVj8UaYKjjGZUoM5TdXtNbKg+1Fpr728bcu6uhqySinHMYzujla5fNGAJhBVaKwBwjBLns+MaDBusMHMIxGICYuywQhTxOfgYLmhINkx+PzwgGScXunSCAj8ozz5BKblMfM6RALzsBkL3Heg7/s0mSOZr+PAJ6TMNABCE9DuiX7vUHfqVpWXWRUEb79bDFe8k+j1w/QQ=);strokeColor=#282c33;spacingTop=-3;spacingBottom=-3;spacingLeft=-3;spacingRight=-3;points=[[0,0.5,0],[1,0.5,0],[0.5,1,0],[0.5,0,0]];labelBackgroundColor=none;rounded=1;html=1;whiteSpace=wrap;" vertex="1" parent="NtC6nbSk1421t6tspnrx-155">
          <mxGeometry width="101" height="50" as="geometry" />
        </mxCell>
        <mxCell id="NtC6nbSk1421t6tspnrx-157" value="&lt;font face=&quot;Arial&quot; color=&quot;#3a414a&quot;&gt;&lt;span style=&quot;font-size: 14.11px;&quot;&gt;Liberté d&#39;entreprendre !&lt;/span&gt;&lt;/font&gt;" style="text;vsdxID=14;fillColor=none;gradientColor=none;strokeColor=none;spacingTop=-3;spacingBottom=-3;spacingLeft=-3;spacingRight=-3;points=[[0,0.5,0],[1,0.5,0],[0.5,1,0],[0.5,0,0]];labelBackgroundColor=none;rounded=1;html=1;whiteSpace=wrap;verticalAlign=middle;align=center;overflow=width;;html=1;" vertex="1" parent="NtC6nbSk1421t6tspnrx-155">
          <mxGeometry x="2.88" y="2.77" width="95.25" height="44.45" as="geometry" />
        </mxCell>
        <mxCell id="NtC6nbSk1421t6tspnrx-158" style="edgeStyle=orthogonalEdgeStyle;rounded=0;orthogonalLoop=1;jettySize=auto;html=1;exitX=0.5;exitY=1;exitDx=0;exitDy=0;exitPerimeter=0;entryX=0.5;entryY=0;entryDx=0;entryDy=0;entryPerimeter=0;" edge="1" parent="1" source="NtC6nbSk1421t6tspnrx-138" target="NtC6nbSk1421t6tspnrx-156">
          <mxGeometry relative="1" as="geometry" />
        </mxCell>
        <UserObject label="" tags="Arrière-plan" id="NtC6nbSk1421t6tspnrx-159">
          <mxCell style="vsdxID=14;fillColor=none;gradientColor=none;strokeColor=none;spacingTop=-3;spacingBottom=-3;spacingLeft=-3;spacingRight=-3;points=[[0,0.5,0],[1,0.5,0],[0.5,1,0],[0.5,0,0]];labelBackgroundColor=none;rounded=1;html=1;whiteSpace=wrap;" vertex="1" parent="1">
            <mxGeometry x="1660" y="535" width="101" height="50" as="geometry" />
          </mxCell>
        </UserObject>
        <mxCell id="NtC6nbSk1421t6tspnrx-160" style="vsdxID=15;fillColor=#ffffff;gradientColor=none;shape=stencil(jZNNDoIwEIVP023TzkSBpfHnAp6ASJVGBFNRwdOLTJG2opFV++ZN5uvLwHB5ydOzYiAutamO6q6zOme4YgC6zJXRdXdiuGa43FdGHUx1LTO6n9POCaJXVEY98uUGkZrdVj8UaYKjjGZUoM5TdXtNbKg+1Fpr728bcu6uhqySinHMYzujla5fNGAJhBVaKwBwjBLns+MaDBusMHMIxGICYuywQhTxOfgYLmhINkx+PzwgGScXunSCAj8ozz5BKblMfM6RALzsBkL3Heg7/s0mSOZr+PAJ6TMNABCE9DuiX7vUHfqVpWXWRUEb79bDFe8k+j1w/QQ=);strokeColor=#282c33;spacingTop=-3;spacingBottom=-3;spacingLeft=-3;spacingRight=-3;points=[[0,0.5,0],[1,0.5,0],[0.5,1,0],[0.5,0,0]];labelBackgroundColor=none;rounded=1;html=1;whiteSpace=wrap;" vertex="1" parent="NtC6nbSk1421t6tspnrx-159">
          <mxGeometry width="101" height="50" as="geometry" />
        </mxCell>
        <mxCell id="NtC6nbSk1421t6tspnrx-161" value="&lt;font face=&quot;Arial&quot; color=&quot;#3a414a&quot;&gt;&lt;span style=&quot;font-size: 14.11px;&quot;&gt;Protection des Brevets&lt;/span&gt;&lt;/font&gt;" style="text;vsdxID=14;fillColor=none;gradientColor=none;strokeColor=none;spacingTop=-3;spacingBottom=-3;spacingLeft=-3;spacingRight=-3;points=[[0,0.5,0],[1,0.5,0],[0.5,1,0],[0.5,0,0]];labelBackgroundColor=none;rounded=1;html=1;whiteSpace=wrap;verticalAlign=middle;align=center;overflow=width;;html=1;" vertex="1" parent="NtC6nbSk1421t6tspnrx-159">
          <mxGeometry x="2.88" y="2.77" width="95.25" height="44.45" as="geometry" />
        </mxCell>
        <mxCell id="NtC6nbSk1421t6tspnrx-164" style="edgeStyle=orthogonalEdgeStyle;rounded=0;orthogonalLoop=1;jettySize=auto;html=1;exitX=0.5;exitY=1;exitDx=0;exitDy=0;exitPerimeter=0;entryX=0.5;entryY=0;entryDx=0;entryDy=0;entryPerimeter=0;" edge="1" parent="1" source="NtC6nbSk1421t6tspnrx-161" target="NtC6nbSk1421t6tspnrx-51">
          <mxGeometry relative="1" as="geometry" />
        </mxCell>
        <mxCell id="NtC6nbSk1421t6tspnrx-166" style="edgeStyle=orthogonalEdgeStyle;rounded=0;orthogonalLoop=1;jettySize=auto;html=1;exitX=1;exitY=0.5;exitDx=0;exitDy=0;exitPerimeter=0;entryX=0.5;entryY=0;entryDx=0;entryDy=0;entryPerimeter=0;" edge="1" parent="1" source="-43leVQ_KwWmYCP5Dvzr-21" target="NtC6nbSk1421t6tspnrx-119">
          <mxGeometry relative="1" as="geometry" />
        </mxCell>
        <mxCell id="NtC6nbSk1421t6tspnrx-167" style="edgeStyle=orthogonalEdgeStyle;rounded=0;orthogonalLoop=1;jettySize=auto;html=1;exitX=0.5;exitY=1;exitDx=0;exitDy=0;exitPerimeter=0;entryX=0.5;entryY=0;entryDx=0;entryDy=0;entryPerimeter=0;" edge="1" parent="1" source="-43leVQ_KwWmYCP5Dvzr-3" target="-43leVQ_KwWmYCP5Dvzr-5">
          <mxGeometry relative="1" as="geometry" />
        </mxCell>
        <mxCell id="NtC6nbSk1421t6tspnrx-169" style="edgeStyle=orthogonalEdgeStyle;rounded=0;orthogonalLoop=1;jettySize=auto;html=1;exitX=0.5;exitY=1;exitDx=0;exitDy=0;exitPerimeter=0;entryX=0.5;entryY=0;entryDx=0;entryDy=0;entryPerimeter=0;" edge="1" parent="1" source="NtC6nbSk1421t6tspnrx-27" target="NtC6nbSk1421t6tspnrx-159">
          <mxGeometry relative="1" as="geometry" />
        </mxCell>
        <mxCell id="NtC6nbSk1421t6tspnrx-170" style="edgeStyle=orthogonalEdgeStyle;rounded=0;orthogonalLoop=1;jettySize=auto;html=1;exitX=0.5;exitY=1;exitDx=0;exitDy=0;exitPerimeter=0;entryX=0.5;entryY=0;entryDx=0;entryDy=0;entryPerimeter=0;" edge="1" parent="1" source="-43leVQ_KwWmYCP5Dvzr-110" target="NtC6nbSk1421t6tspnrx-159">
          <mxGeometry relative="1" as="geometry" />
        </mxCell>
        <mxCell id="NtC6nbSk1421t6tspnrx-178" style="edgeStyle=orthogonalEdgeStyle;rounded=0;orthogonalLoop=1;jettySize=auto;html=1;exitX=0.5;exitY=1;exitDx=0;exitDy=0;exitPerimeter=0;entryX=0.5;entryY=0;entryDx=0;entryDy=0;entryPerimeter=0;" edge="1" parent="1" source="NtC6nbSk1421t6tspnrx-117" target="-43leVQ_KwWmYCP5Dvzr-28">
          <mxGeometry relative="1" as="geometry" />
        </mxCell>
      </root>
    </mxGraphModel>
  </diagram>
</mxfile>
